%FSLAX25Y25*%
%MOIN*%
G70*
G01*
G75*
G04 Layer_Color=16711935*
%ADD10C,0.00787*%
%ADD11C,0.01181*%
%ADD12C,0.01969*%
%ADD13R,0.01969X0.03937*%
G04:AMPARAMS|DCode=14|XSize=19.69mil|YSize=39.37mil|CornerRadius=0mil|HoleSize=0mil|Usage=FLASHONLY|Rotation=315.000|XOffset=0mil|YOffset=0mil|HoleType=Round|Shape=Rectangle|*
%AMROTATEDRECTD14*
4,1,4,-0.02088,-0.00696,0.00696,0.02088,0.02088,0.00696,-0.00696,-0.02088,-0.02088,-0.00696,0.0*
%
%ADD14ROTATEDRECTD14*%

G04:AMPARAMS|DCode=15|XSize=19.69mil|YSize=39.37mil|CornerRadius=0mil|HoleSize=0mil|Usage=FLASHONLY|Rotation=225.000|XOffset=0mil|YOffset=0mil|HoleType=Round|Shape=Rectangle|*
%AMROTATEDRECTD15*
4,1,4,-0.00696,0.02088,0.02088,-0.00696,0.00696,-0.02088,-0.02088,0.00696,-0.00696,0.02088,0.0*
%
%ADD15ROTATEDRECTD15*%

%ADD16R,0.03937X0.04724*%
G04:AMPARAMS|DCode=17|XSize=23.62mil|YSize=35.43mil|CornerRadius=0mil|HoleSize=0mil|Usage=FLASHONLY|Rotation=45.000|XOffset=0mil|YOffset=0mil|HoleType=Round|Shape=Rectangle|*
%AMROTATEDRECTD17*
4,1,4,0.00418,-0.02088,-0.02088,0.00418,-0.00418,0.02088,0.02088,-0.00418,0.00418,-0.02088,0.0*
%
%ADD17ROTATEDRECTD17*%

G04:AMPARAMS|DCode=18|XSize=23.62mil|YSize=35.43mil|CornerRadius=0mil|HoleSize=0mil|Usage=FLASHONLY|Rotation=315.000|XOffset=0mil|YOffset=0mil|HoleType=Round|Shape=Rectangle|*
%AMROTATEDRECTD18*
4,1,4,-0.02088,-0.00418,0.00418,0.02088,0.02088,0.00418,-0.00418,-0.02088,-0.02088,-0.00418,0.0*
%
%ADD18ROTATEDRECTD18*%

%ADD19R,0.03150X0.05118*%
%ADD20R,0.04724X0.03543*%
%ADD21R,0.01969X0.02362*%
%ADD22R,0.02362X0.01969*%
%ADD23R,0.02362X0.03543*%
%ADD24R,0.03937X0.02756*%
%ADD25R,0.02756X0.04921*%
%ADD26O,0.02362X0.05512*%
%ADD27R,0.02362X0.05512*%
%ADD28O,0.02362X0.07874*%
%ADD29R,0.01575X0.03937*%
%ADD30R,0.03937X0.03543*%
%ADD31R,0.01969X0.01575*%
%ADD32O,0.07480X0.12992*%
%ADD33R,0.02362X0.07874*%
%ADD34R,0.03150X0.07874*%
%ADD35R,0.01575X0.04724*%
%ADD36R,0.03543X0.03937*%
%ADD37R,0.06693X0.03543*%
%ADD38R,0.03543X0.02362*%
%ADD39R,0.04921X0.02756*%
%ADD40O,0.15748X0.11811*%
%ADD41O,0.07874X0.11811*%
%ADD42C,0.07874*%
%ADD43C,0.05906*%
%ADD44C,0.11811*%
%ADD45C,0.03937*%
%ADD46C,0.04724*%
%ADD47R,0.24200X0.17200*%
%ADD48R,0.05300X0.03507*%
%ADD49R,0.15182X0.11426*%
%ADD50R,0.14567X0.16142*%
%ADD51R,0.05512X0.13780*%
%ADD52R,0.08661X0.14173*%
%ADD53R,0.05906X0.13780*%
%ADD54R,0.19291X0.03830*%
%ADD55R,0.06400X0.17200*%
%ADD56R,0.29300X0.12570*%
%ADD57R,0.09645X0.14900*%
%ADD58O,0.05906X0.07874*%
%ADD59C,0.02362*%
%ADD60C,0.09843*%
%ADD61O,0.07874X0.05906*%
%ADD62R,0.07874X0.05906*%
%ADD63R,0.10581X0.53500*%
%ADD64R,0.07500X0.30800*%
%ADD65C,0.00394*%
%ADD66C,0.00197*%
%ADD67C,0.02362*%
%ADD68C,0.00984*%
%ADD69C,0.01000*%
%ADD70C,0.00400*%
%ADD71C,0.00591*%
%ADD72C,0.00200*%
%ADD73C,0.00500*%
%ADD74C,0.00800*%
%ADD75R,0.02769X0.04737*%
G04:AMPARAMS|DCode=76|XSize=27.69mil|YSize=47.37mil|CornerRadius=0mil|HoleSize=0mil|Usage=FLASHONLY|Rotation=315.000|XOffset=0mil|YOffset=0mil|HoleType=Round|Shape=Rectangle|*
%AMROTATEDRECTD76*
4,1,4,-0.02654,-0.00696,0.00696,0.02654,0.02654,0.00696,-0.00696,-0.02654,-0.02654,-0.00696,0.0*
%
%ADD76ROTATEDRECTD76*%

G04:AMPARAMS|DCode=77|XSize=27.69mil|YSize=47.37mil|CornerRadius=0mil|HoleSize=0mil|Usage=FLASHONLY|Rotation=225.000|XOffset=0mil|YOffset=0mil|HoleType=Round|Shape=Rectangle|*
%AMROTATEDRECTD77*
4,1,4,-0.00696,0.02654,0.02654,-0.00696,0.00696,-0.02654,-0.02654,0.00696,-0.00696,0.02654,0.0*
%
%ADD77ROTATEDRECTD77*%

%ADD78R,0.04737X0.05524*%
G04:AMPARAMS|DCode=79|XSize=31.62mil|YSize=43.43mil|CornerRadius=0mil|HoleSize=0mil|Usage=FLASHONLY|Rotation=45.000|XOffset=0mil|YOffset=0mil|HoleType=Round|Shape=Rectangle|*
%AMROTATEDRECTD79*
4,1,4,0.00418,-0.02654,-0.02654,0.00418,-0.00418,0.02654,0.02654,-0.00418,0.00418,-0.02654,0.0*
%
%ADD79ROTATEDRECTD79*%

G04:AMPARAMS|DCode=80|XSize=31.62mil|YSize=43.43mil|CornerRadius=0mil|HoleSize=0mil|Usage=FLASHONLY|Rotation=315.000|XOffset=0mil|YOffset=0mil|HoleType=Round|Shape=Rectangle|*
%AMROTATEDRECTD80*
4,1,4,-0.02654,-0.00418,0.00418,0.02654,0.02654,0.00418,-0.00418,-0.02654,-0.02654,-0.00418,0.0*
%
%ADD80ROTATEDRECTD80*%

%ADD81R,0.03950X0.05918*%
%ADD82R,0.05524X0.04343*%
%ADD83R,0.02769X0.03162*%
%ADD84R,0.03162X0.02769*%
%ADD85R,0.03162X0.04343*%
%ADD86R,0.04331X0.03150*%
%ADD87R,0.03556X0.05721*%
%ADD88O,0.03162X0.06312*%
%ADD89R,0.03162X0.06312*%
%ADD90O,0.03162X0.08674*%
%ADD91R,0.02375X0.04737*%
%ADD92R,0.04737X0.04343*%
%ADD93R,0.02769X0.02375*%
%ADD94O,0.08280X0.13792*%
%ADD95R,0.03162X0.08674*%
%ADD96R,0.03950X0.08674*%
%ADD97R,0.02375X0.05524*%
%ADD98R,0.04343X0.04737*%
%ADD99R,0.07493X0.04343*%
%ADD100R,0.04343X0.03162*%
%ADD101R,0.05721X0.03556*%
%ADD102O,0.16548X0.12611*%
%ADD103O,0.08674X0.12611*%
%ADD104O,0.06706X0.08674*%
%ADD105C,0.03162*%
%ADD106O,0.08674X0.06706*%
%ADD107R,0.08674X0.06706*%
D10*
X15458Y167996D02*
Y186234D01*
X-16038Y167996D02*
Y186135D01*
X-15939Y186234D01*
D11*
X-79103Y-69641D02*
G03*
X-79384Y-69624I0J2362D01*
G01*
X90065Y-47822D02*
G03*
X90065Y-47822I-3150J0D01*
G01*
X96459Y-38932D02*
G03*
X96410Y-38932I0J2362D01*
G01*
X-48153Y96975D02*
G03*
X-76423Y76687I48170J-96962D01*
G01*
X-48194Y97058D02*
G03*
X-38272Y115010I-16614J20901D01*
G01*
X-64473Y-86995D02*
G03*
X-41204Y-100169I64567J86908D01*
G01*
X6249Y147584D02*
G03*
X-6348Y147585I-6298J101D01*
G01*
X-6438Y143285D02*
G03*
X6159Y143283I6298J-101D01*
G01*
X-64573Y-86895D02*
G03*
X-76578Y-76446I-4531J6915D01*
G01*
X76590D02*
G03*
X64584Y-86895I-7475J-3533D01*
G01*
X102311Y35478D02*
G03*
X86602Y65012I-102295J-35465D01*
G01*
X76986Y-76129D02*
G03*
X102301Y-35480I-76969J76143D01*
G01*
X41716Y-99902D02*
G03*
X64584Y-86895I-41700J99915D01*
G01*
X-86637Y64921D02*
G03*
X-102314Y35372I86654J-64908D01*
G01*
X76611Y76532D02*
G03*
X49041Y96546I-76595J-76519D01*
G01*
X38284Y115914D02*
G03*
X49016Y96497I28703J3191D01*
G01*
X-102578Y-34572D02*
G03*
X-76608Y-76476I102595J34585D01*
G01*
X76648Y76508D02*
G03*
X86686Y65075I6547J-4375D01*
G01*
X-86575Y64875D02*
G03*
X-76675Y76507I3491J7058D01*
G01*
X41716Y-99902D02*
Y-90911D01*
X41344Y-90539D02*
X41716Y-90911D01*
X19029Y-90539D02*
X41344D01*
X19005Y-90516D02*
X19029Y-90539D01*
X19005Y-101619D02*
Y-90516D01*
X-24194Y-101619D02*
X19005D01*
X-24194D02*
Y-89916D01*
X-40451D02*
X-24194D01*
X-41204Y-90668D02*
X-40451Y-89916D01*
X-41204Y-100169D02*
Y-90668D01*
X-6348Y143375D02*
Y147585D01*
X6305Y143429D02*
Y147650D01*
X30922Y186234D02*
X38265Y116098D01*
X15421Y186234D02*
X30922D01*
X-30889D02*
X-15939D01*
X-38327Y115188D02*
X-30889Y186234D01*
X-102365Y-35316D02*
X-102295Y35184D01*
X102368Y-35479D02*
Y35075D01*
X-16038Y167996D02*
X15458D01*
D65*
X-20100Y-84147D02*
Y-55100D01*
X-19453Y-84600D02*
X15500D01*
Y-55072D01*
X-19933D02*
X15500D01*
D69*
X-83754Y-47822D02*
G03*
X-83754Y-47822I-3150J0D01*
G01*
M02*
