%FSLAX25Y25*%
%MOIN*%
G70*
G01*
G75*
G04 Layer_Physical_Order=1*
G04 Layer_Color=255*
%ADD10C,0.00787*%
%ADD11C,0.01181*%
%ADD12C,0.01969*%
%ADD13R,0.01969X0.03937*%
G04:AMPARAMS|DCode=14|XSize=19.69mil|YSize=39.37mil|CornerRadius=0mil|HoleSize=0mil|Usage=FLASHONLY|Rotation=315.000|XOffset=0mil|YOffset=0mil|HoleType=Round|Shape=Rectangle|*
%AMROTATEDRECTD14*
4,1,4,-0.02088,-0.00696,0.00696,0.02088,0.02088,0.00696,-0.00696,-0.02088,-0.02088,-0.00696,0.0*
%
%ADD14ROTATEDRECTD14*%

G04:AMPARAMS|DCode=15|XSize=19.69mil|YSize=39.37mil|CornerRadius=0mil|HoleSize=0mil|Usage=FLASHONLY|Rotation=225.000|XOffset=0mil|YOffset=0mil|HoleType=Round|Shape=Rectangle|*
%AMROTATEDRECTD15*
4,1,4,-0.00696,0.02088,0.02088,-0.00696,0.00696,-0.02088,-0.02088,0.00696,-0.00696,0.02088,0.0*
%
%ADD15ROTATEDRECTD15*%

%ADD16R,0.03937X0.04724*%
G04:AMPARAMS|DCode=17|XSize=23.62mil|YSize=35.43mil|CornerRadius=0mil|HoleSize=0mil|Usage=FLASHONLY|Rotation=45.000|XOffset=0mil|YOffset=0mil|HoleType=Round|Shape=Rectangle|*
%AMROTATEDRECTD17*
4,1,4,0.00418,-0.02088,-0.02088,0.00418,-0.00418,0.02088,0.02088,-0.00418,0.00418,-0.02088,0.0*
%
%ADD17ROTATEDRECTD17*%

G04:AMPARAMS|DCode=18|XSize=23.62mil|YSize=35.43mil|CornerRadius=0mil|HoleSize=0mil|Usage=FLASHONLY|Rotation=315.000|XOffset=0mil|YOffset=0mil|HoleType=Round|Shape=Rectangle|*
%AMROTATEDRECTD18*
4,1,4,-0.02088,-0.00418,0.00418,0.02088,0.02088,0.00418,-0.00418,-0.02088,-0.02088,-0.00418,0.0*
%
%ADD18ROTATEDRECTD18*%

%ADD19R,0.03150X0.05118*%
%ADD20R,0.04724X0.03543*%
%ADD21R,0.01969X0.02362*%
%ADD22R,0.02362X0.01969*%
%ADD23R,0.02362X0.03543*%
%ADD24R,0.03937X0.02756*%
%ADD25R,0.02756X0.04921*%
%ADD26O,0.02362X0.05512*%
%ADD27R,0.02362X0.05512*%
%ADD28O,0.02362X0.07874*%
%ADD29R,0.01575X0.03937*%
%ADD30R,0.03937X0.03543*%
%ADD31R,0.01969X0.01575*%
%ADD32O,0.07480X0.12992*%
%ADD33R,0.02362X0.07874*%
%ADD34R,0.03150X0.07874*%
%ADD35R,0.01575X0.04724*%
%ADD36R,0.03543X0.03937*%
%ADD37R,0.06693X0.03543*%
%ADD38R,0.03543X0.02362*%
%ADD39R,0.04921X0.02756*%
%ADD40O,0.15748X0.11811*%
%ADD41O,0.07874X0.11811*%
%ADD42C,0.07874*%
%ADD43C,0.05906*%
%ADD44C,0.11811*%
%ADD45C,0.03937*%
%ADD46C,0.04724*%
%ADD47R,0.24200X0.17200*%
%ADD48R,0.05300X0.03507*%
%ADD49R,0.15182X0.11426*%
%ADD50R,0.14567X0.16142*%
%ADD51R,0.05512X0.13780*%
%ADD52R,0.08661X0.14173*%
%ADD53R,0.05906X0.13780*%
%ADD54R,0.19291X0.03830*%
%ADD55R,0.06400X0.17200*%
%ADD56R,0.29300X0.12570*%
%ADD57R,0.09645X0.14900*%
%ADD58O,0.05906X0.07874*%
%ADD59C,0.02362*%
G36*
X32375Y21659D02*
Y19100D01*
X35918D01*
Y19861D01*
X36805Y20747D01*
X38968D01*
X39855Y19861D01*
Y19100D01*
Y16541D01*
X39855Y16541D01*
X39855D01*
X39967Y16270D01*
X38526Y14829D01*
X30204D01*
Y21592D01*
X30642Y22030D01*
X32375D01*
Y21659D01*
D02*
G37*
G36*
X-24712Y19100D02*
Y16541D01*
X-24144D01*
Y13404D01*
X-30801D01*
X-31382Y13985D01*
Y19100D01*
X-28649D01*
Y19471D01*
X-24712D01*
Y19100D01*
D02*
G37*
G36*
X-8314Y19823D02*
X-8314Y19823D01*
X-7924Y19562D01*
X-7463Y19471D01*
X-7389D01*
Y19100D01*
Y16541D01*
X-6822D01*
Y15304D01*
X-14615D01*
X-14663Y15351D01*
X-14796Y15440D01*
Y19100D01*
X-11326D01*
Y19653D01*
X-11071Y19823D01*
X-10524Y20371D01*
X-8862D01*
X-8314Y19823D01*
D02*
G37*
G36*
X12467Y23340D02*
X12373Y23200D01*
X12282Y22739D01*
X12282Y22739D01*
Y16404D01*
X-1400D01*
X-1861Y16313D01*
X-2017Y16208D01*
X-2252Y16051D01*
X-2252Y16051D01*
X-3351Y14952D01*
X-3613Y14561D01*
X-3704Y14100D01*
X-3704Y14100D01*
Y12142D01*
X-3711D01*
X-3704Y12094D01*
Y11659D01*
X-3754Y11540D01*
X-4043Y11512D01*
X-4413Y11847D01*
Y12378D01*
X-4406Y12436D01*
X-4413D01*
Y13289D01*
Y16541D01*
X-3846D01*
Y19100D01*
Y19827D01*
X-959Y22714D01*
X2437D01*
X2581Y22499D01*
X3232Y22064D01*
X4000Y21911D01*
X4768Y22064D01*
X5419Y22499D01*
X5590Y22755D01*
X6090D01*
X6336Y22388D01*
X6987Y21952D01*
X7755Y21800D01*
X8523Y21952D01*
X9174Y22388D01*
X9609Y23039D01*
X9713Y23559D01*
X11588D01*
X11588Y23559D01*
X12049Y23650D01*
X12113Y23694D01*
X12467Y23340D01*
D02*
G37*
G36*
X-14869Y24809D02*
X-14869D01*
X-14869Y24438D01*
X-15266D01*
X-15727Y24346D01*
X-15883Y24242D01*
X-16118Y24085D01*
X-16118Y24085D01*
X-16851Y23351D01*
X-17113Y22961D01*
X-17204Y22500D01*
X-17204Y22500D01*
Y14831D01*
X-17204Y14831D01*
X-17113Y14370D01*
X-16851Y13979D01*
X-16738Y13866D01*
X-16930Y13404D01*
X-21736D01*
Y16541D01*
X-21169D01*
Y19100D01*
Y21659D01*
Y22466D01*
X-20782Y22783D01*
X-20200Y22668D01*
X-19432Y22820D01*
X-18781Y23256D01*
X-18346Y23907D01*
X-18193Y24675D01*
X-18207Y24747D01*
X-17890Y25134D01*
X-14869D01*
Y24809D01*
D02*
G37*
G36*
X64288Y-34088D02*
X64288Y-34088D01*
X64344Y-34144D01*
X64344Y-34144D01*
X64344Y-34144D01*
X64345Y-34149D01*
X64345Y-34149D01*
X64379Y-34230D01*
X64379Y-34230D01*
X64379Y-34230D01*
X64398Y-34275D01*
X64400Y-34279D01*
X64400Y-34279D01*
X64400Y-34279D01*
Y-34358D01*
X64400Y-34358D01*
Y-43969D01*
X64391Y-44035D01*
X64391Y-44036D01*
X64378Y-44071D01*
X64378Y-44072D01*
Y-44072D01*
X64378Y-44072D01*
X64378Y-44072D01*
X64378Y-44072D01*
X64345Y-44151D01*
X64344Y-44156D01*
X64344Y-44156D01*
X64288Y-44212D01*
X64288Y-44212D01*
X61300Y-47200D01*
X61300Y-47200D01*
X61300Y-47200D01*
X58989Y-49511D01*
X52056Y-56444D01*
X52056Y-56444D01*
X52056Y-56444D01*
X52051Y-56445D01*
X52051Y-56445D01*
X51990Y-56471D01*
X51990Y-56471D01*
X51990Y-56471D01*
X51925Y-56498D01*
X51921Y-56500D01*
X51921Y-56500D01*
X51842D01*
X51842Y-56500D01*
X42854D01*
X42619Y-56735D01*
X42619Y-56735D01*
X42619Y-56735D01*
X42555Y-56800D01*
X42555Y-56800D01*
X42554Y-56800D01*
X42554Y-56800D01*
X41035Y-58319D01*
X41035Y-58319D01*
X41035Y-58319D01*
X40800Y-58554D01*
Y-58887D01*
Y-66585D01*
Y-68000D01*
Y-79200D01*
X39800Y-80200D01*
X16503D01*
Y-55072D01*
X16427Y-54688D01*
X16210Y-54363D01*
X15884Y-54145D01*
X15500Y-54069D01*
X-19933D01*
X-20086Y-54099D01*
X-20100Y-54097D01*
X-20484Y-54173D01*
X-20810Y-54390D01*
X-21027Y-54716D01*
X-21045Y-54807D01*
X-36284D01*
X-36363D01*
X-36367Y-54804D01*
X-36413Y-54785D01*
X-36413Y-54785D01*
X-36414Y-54785D01*
X-36493Y-54752D01*
X-36498Y-54751D01*
X-37249Y-54000D01*
X-37288Y-53960D01*
X-37344Y-53904D01*
X-37344Y-53904D01*
X-37345Y-53900D01*
X-37379Y-53819D01*
X-37379Y-53819D01*
X-37379Y-53818D01*
X-37398Y-53773D01*
X-37400Y-53769D01*
Y-53690D01*
X-37400Y-53690D01*
Y-45856D01*
X-37400Y-45856D01*
X-37334Y-45812D01*
X-37320Y-45798D01*
X-37291Y-45754D01*
X-37251Y-45719D01*
X-37242Y-45702D01*
X-36834Y-45634D01*
X-36638Y-45731D01*
X-36470Y-45900D01*
X-35500D01*
X-36715Y-44945D01*
Y-44945D01*
X-36715Y-44945D01*
X-36730Y-44933D01*
X-36730Y-44933D01*
Y-44933D01*
X-36762Y-44908D01*
Y-44908D01*
X-36762D01*
X-36789Y-44887D01*
X-36789D01*
X-36900Y-44800D01*
X-36900Y-44800D01*
X-36900Y-44800D01*
X-37153Y-44739D01*
X-37158Y-44712D01*
X-37176Y-44669D01*
X-37187Y-44617D01*
X-37199Y-44588D01*
D01*
X-37222Y-44520D01*
X-37248Y-44475D01*
X-37250Y-44468D01*
X-37255Y-44459D01*
X-37258Y-44444D01*
X-37268Y-44419D01*
X-37271Y-44416D01*
X-37281Y-44365D01*
X-37297Y-44325D01*
X-37300Y-44321D01*
Y-44242D01*
X-37300Y-44242D01*
Y-42700D01*
Y-42089D01*
Y-42010D01*
X-37297Y-42006D01*
X-37278Y-41959D01*
X-37278Y-41959D01*
X-37278Y-41959D01*
X-37245Y-41879D01*
X-37244Y-41875D01*
X-37125Y-41756D01*
X-37121Y-41755D01*
X-37039Y-41721D01*
X-37039D01*
X-36994Y-41703D01*
X-36990Y-41700D01*
X-36990Y-41700D01*
X-28133D01*
X-28133Y-41700D01*
X-28133Y-41700D01*
X-27800D01*
X-27035Y-40935D01*
X-27035Y-40935D01*
X-27035Y-40935D01*
X-26800Y-40700D01*
Y-40200D01*
Y-39658D01*
Y-39579D01*
X-26798Y-39575D01*
X-26778Y-39528D01*
X-26778Y-39528D01*
X-26778Y-39528D01*
X-26745Y-39449D01*
X-26744Y-39444D01*
X-26600Y-39300D01*
X-26456Y-39156D01*
D01*
X-26456Y-39156D01*
X-26451Y-39155D01*
X-26370Y-39121D01*
X-26370Y-39121D01*
X-26370Y-39121D01*
X-26325Y-39103D01*
X-26321Y-39100D01*
X-15958D01*
X-15879D01*
X-15875Y-39103D01*
X-15828Y-39122D01*
X-15828Y-39122D01*
X-15828Y-39122D01*
X-15749Y-39155D01*
X-15744Y-39156D01*
X-14200Y-40700D01*
X-13435Y-41465D01*
X-13435Y-41465D01*
X-13435Y-41465D01*
X-13200Y-41700D01*
X-1058D01*
X-979D01*
X-975Y-41702D01*
X-928Y-41722D01*
X-928Y-41722D01*
X-928Y-41722D01*
X-849Y-41755D01*
X-844Y-41756D01*
X-648Y-41952D01*
X-512Y-42088D01*
X-456Y-42144D01*
X-455Y-42149D01*
X-421Y-42231D01*
Y-42231D01*
X-403Y-42275D01*
X-400Y-42279D01*
X-400Y-42279D01*
Y-42800D01*
Y-46848D01*
Y-47495D01*
X-244Y-47651D01*
X840D01*
X919D01*
D01*
X919Y-47651D01*
X965Y-47682D01*
X984Y-47695D01*
D01*
X984Y-47695D01*
X1305Y-47910D01*
X1305Y-47910D01*
X1306Y-47910D01*
X1438Y-47998D01*
X1595Y-48030D01*
X1595Y-48030D01*
X1893Y-48089D01*
X1893D01*
X2206Y-48151D01*
X2520Y-48089D01*
X2520D01*
X2551Y-48083D01*
X2551Y-48083D01*
X2609Y-48071D01*
X2818Y-48030D01*
X2818D01*
X2974Y-47998D01*
X3107Y-47910D01*
X3107Y-47910D01*
X3131Y-47894D01*
X3317Y-47769D01*
X3494Y-47651D01*
X3494Y-47651D01*
X3494Y-47651D01*
X3573D01*
X3573Y-47651D01*
X5840D01*
X5919D01*
D01*
X5919Y-47651D01*
X5965Y-47682D01*
X5985Y-47695D01*
D01*
X5985Y-47695D01*
X6305Y-47910D01*
X6305Y-47910D01*
X6306Y-47910D01*
X6438Y-47998D01*
X6595Y-48030D01*
X6595Y-48030D01*
X6893Y-48089D01*
X6893D01*
X7206Y-48151D01*
X7519Y-48089D01*
X7519D01*
X7551Y-48083D01*
X7551Y-48083D01*
X7609Y-48071D01*
X7818Y-48030D01*
X7818D01*
X7974Y-47998D01*
X8107Y-47910D01*
X8107Y-47910D01*
X8131Y-47894D01*
X8317Y-47769D01*
X8494Y-47651D01*
X8494Y-47651D01*
X8494Y-47651D01*
X8573D01*
X8573Y-47651D01*
X16249D01*
X17300Y-46600D01*
X17600Y-46300D01*
Y-45300D01*
Y-42458D01*
Y-42379D01*
X17603Y-42375D01*
X17622Y-42328D01*
X17622Y-42328D01*
X17622Y-42328D01*
X17655Y-42249D01*
X17656Y-42244D01*
X18188Y-41712D01*
X18244Y-41656D01*
X18249Y-41655D01*
X18330Y-41621D01*
X18330Y-41621D01*
X18330Y-41621D01*
X18375Y-41603D01*
X18379Y-41600D01*
X18458D01*
X18458Y-41600D01*
X36342D01*
X36421D01*
X36425Y-41603D01*
X36472Y-41622D01*
X36472Y-41622D01*
X36472Y-41622D01*
X36551Y-41655D01*
X36556Y-41656D01*
X36700Y-41800D01*
X36788Y-41888D01*
X36788Y-41888D01*
X36844Y-41944D01*
X36846Y-41952D01*
X36863Y-41993D01*
X36880Y-42020D01*
X36880Y-42020D01*
X36800Y-42100D01*
Y-42356D01*
Y-42365D01*
Y-42997D01*
Y-49167D01*
Y-49500D01*
X37400Y-50100D01*
X37500Y-50200D01*
X38599D01*
X38600Y-50200D01*
X38707Y-50272D01*
D01*
X38840Y-50361D01*
X39608Y-50513D01*
X39921Y-50451D01*
X39921D01*
X40219Y-50392D01*
X40219D01*
X40219Y-50392D01*
X40376Y-50361D01*
X40509Y-50272D01*
X40509Y-50272D01*
X40565Y-50235D01*
X40579Y-50225D01*
X40579D01*
X40591Y-50217D01*
X40593Y-50216D01*
X40616Y-50200D01*
D01*
X40695D01*
X40695Y-50200D01*
X43599D01*
X43600Y-50200D01*
X43707Y-50272D01*
D01*
X43840Y-50361D01*
X44608Y-50513D01*
X44921Y-50451D01*
X44921D01*
X45219Y-50392D01*
X45219D01*
X45219Y-50392D01*
X45376Y-50361D01*
X45509Y-50272D01*
X45509Y-50272D01*
X45565Y-50235D01*
X45579Y-50225D01*
X45579D01*
X45591Y-50217D01*
X45593Y-50216D01*
X45616Y-50200D01*
D01*
X45695D01*
X45695Y-50200D01*
X47000D01*
X48800Y-48400D01*
X57837Y-39363D01*
Y-35300D01*
Y-34363D01*
X58400Y-33800D01*
X58500Y-33700D01*
X63900D01*
X64288Y-34088D01*
D02*
G37*
G36*
X-55207Y-62072D02*
X-55204Y-62074D01*
X-55157Y-62094D01*
X-55157Y-62094D01*
X-55156Y-62094D01*
X-55077Y-62127D01*
X-55072Y-62128D01*
X-54700Y-62500D01*
X-54500Y-62700D01*
Y-65400D01*
Y-65703D01*
X-54003Y-66200D01*
X-21103D01*
Y-82600D01*
X-53446D01*
Y-74529D01*
X-53446Y-74529D01*
X-53538Y-74068D01*
X-53799Y-73678D01*
X-53799Y-73677D01*
X-63548Y-63928D01*
Y-62276D01*
X-62558Y-62072D01*
X-55287D01*
X-55207D01*
D02*
G37*
G36*
X-18300Y-3800D02*
X-18000Y-4100D01*
Y-8100D01*
Y-16847D01*
X-18443Y-17511D01*
X-18758Y-18444D01*
X-18822Y-19426D01*
X-18633Y-20369D01*
Y-26656D01*
X-18505Y-27632D01*
X-18128Y-28542D01*
X-18000Y-28708D01*
Y-31000D01*
X-18600Y-31600D01*
X-30000D01*
X-30737Y-32337D01*
X-53050D01*
X-53872Y-32446D01*
X-54003Y-32500D01*
X-72200D01*
X-72649Y-32051D01*
Y-3749D01*
X-72400Y-3500D01*
X-21475D01*
X-21357Y-3382D01*
X-18300Y-3800D01*
D02*
G37*
G36*
X87345Y2585D02*
X87407Y2544D01*
X87695Y2256D01*
X87737Y2194D01*
X87751Y2121D01*
Y-17970D01*
X87737Y-18043D01*
X87695Y-18105D01*
X76800Y-29000D01*
X73856Y-31944D01*
X73794Y-31986D01*
X73721Y-32000D01*
X58600D01*
X57900Y-32700D01*
X57600Y-33000D01*
X54832D01*
X54807Y-32995D01*
X54755D01*
X54714Y-32963D01*
X54690Y-32952D01*
X54618Y-32896D01*
X54444Y-32763D01*
X54347Y-32723D01*
D01*
X53776Y-32486D01*
X53776Y-32486D01*
X53678Y-32446D01*
X53573Y-32432D01*
X53573D01*
X53163Y-32378D01*
X52856Y-32337D01*
X-17470D01*
X-17539Y-32324D01*
X-17579Y-32264D01*
X-17665Y-32057D01*
X-17712Y-31987D01*
X-17740Y-31918D01*
X-17432Y-31568D01*
X-17432Y-31568D01*
X-17258Y-31307D01*
X-17197Y-31000D01*
Y-28708D01*
X-17218Y-28605D01*
X-17224Y-28501D01*
X-17248Y-28453D01*
X-17258Y-28401D01*
X-17317Y-28314D01*
X-17363Y-28220D01*
X-17426Y-28137D01*
X-17722Y-27423D01*
X-17830Y-26603D01*
Y-20369D01*
X-17846Y-20291D01*
X-17846Y-20211D01*
X-18014Y-19373D01*
X-17964Y-18601D01*
X-17716Y-17868D01*
X-17332Y-17292D01*
X-17302Y-17219D01*
X-17258Y-17154D01*
X-17243Y-17076D01*
X-17212Y-17002D01*
X-17212Y-16924D01*
X-17197Y-16847D01*
Y-11100D01*
X-13200D01*
X-12200Y-10100D01*
X-9956Y-7856D01*
X-9894Y-7814D01*
X-9821Y-7800D01*
X10521D01*
X10594Y-7814D01*
X10656Y-7856D01*
X11100Y-8300D01*
Y-8700D01*
X11100Y-8700D01*
X11100Y-8700D01*
Y-9847D01*
X12447Y-8500D01*
X14467D01*
X14467Y-8500D01*
X14468Y-8500D01*
X14800D01*
X15465Y-7835D01*
X15465Y-7835D01*
X15465Y-7835D01*
X15700Y-7600D01*
Y-7400D01*
Y1521D01*
X15714Y1594D01*
X15756Y1656D01*
X16644Y2544D01*
X16706Y2585D01*
X16779Y2600D01*
X87272D01*
X87345Y2585D01*
D02*
G37*
G36*
X-18379Y-32433D02*
X-18376Y-32438D01*
X-18321Y-32572D01*
X-18277Y-32637D01*
X-18247Y-32710D01*
X-18207Y-32770D01*
D01*
X-18207Y-32770D01*
X-18151Y-32825D01*
X-18147Y-32832D01*
X-18140Y-32836D01*
X-18096Y-32880D01*
X-17986Y-32991D01*
X-17986Y-32991D01*
D01*
X-17936Y-33012D01*
X-17784Y-33075D01*
X-17777Y-33079D01*
X-17769Y-33081D01*
X-17696Y-33111D01*
X-17696D01*
D01*
X-17626Y-33125D01*
X-17547D01*
X-17470Y-33140D01*
X52803D01*
X53058Y-33174D01*
X53058D01*
D01*
X53469Y-33228D01*
X53469D01*
X53469D01*
X54039Y-33464D01*
X54039D01*
X54129Y-33533D01*
X54129Y-33533D01*
X54202Y-33589D01*
X54225Y-33600D01*
X54266Y-33632D01*
X54314Y-33655D01*
X54335Y-33672D01*
X54359Y-33683D01*
X54374Y-33687D01*
X54448Y-33737D01*
X54500Y-33747D01*
X54547Y-33770D01*
X54635Y-33776D01*
X54650Y-33782D01*
X54676Y-33787D01*
X54703D01*
X54755Y-33798D01*
X54800D01*
Y-34900D01*
X53534Y-35300D01*
X53070D01*
X52856Y-35514D01*
X53534Y-35300D01*
X57034D01*
Y-39031D01*
X48232Y-47832D01*
X48232Y-47832D01*
X46668Y-49397D01*
X45695D01*
X45695Y-49397D01*
X45616D01*
X45539Y-49413D01*
X45459Y-49413D01*
X45386Y-49443D01*
X45309Y-49458D01*
X45272Y-49483D01*
D01*
X45243Y-49502D01*
X45170Y-49532D01*
X45148Y-49548D01*
X45148D01*
X45147Y-49548D01*
X45147Y-49548D01*
D01*
X45146Y-49549D01*
X45145Y-49549D01*
X45145Y-49549D01*
X45133Y-49557D01*
X45133Y-49557D01*
X45119Y-49567D01*
X45119Y-49567D01*
X45119Y-49567D01*
X45063Y-49604D01*
X45063Y-49604D01*
X45063Y-49604D01*
X45063D01*
X44765Y-49664D01*
X44765D01*
X44451D01*
X44153Y-49604D01*
D01*
X44045Y-49532D01*
X43982Y-49506D01*
X43925Y-49466D01*
X43925Y-49466D01*
X43915Y-49464D01*
X43907Y-49458D01*
X43829Y-49443D01*
X43756Y-49413D01*
X43687D01*
X43620Y-49397D01*
X43610Y-49399D01*
X43599Y-49397D01*
X40695D01*
X40695Y-49397D01*
X40616D01*
X40539Y-49413D01*
X40459Y-49413D01*
X40387Y-49443D01*
X40309Y-49458D01*
X40272Y-49483D01*
D01*
X40243Y-49502D01*
X40170Y-49532D01*
X40148Y-49548D01*
X40148D01*
X40147Y-49548D01*
X40147Y-49548D01*
D01*
X40146Y-49549D01*
X40145Y-49549D01*
X40145Y-49549D01*
X40133Y-49557D01*
X40133Y-49557D01*
X40119Y-49567D01*
X40119Y-49567D01*
X40119Y-49567D01*
X40063Y-49604D01*
X40063Y-49604D01*
X40063Y-49604D01*
X40063D01*
X39765Y-49664D01*
X39765D01*
X39451D01*
X39153Y-49604D01*
D01*
X39045Y-49532D01*
X38982Y-49506D01*
X38925Y-49466D01*
X38925Y-49466D01*
X38915Y-49464D01*
X38907Y-49458D01*
X38829Y-49443D01*
X38756Y-49413D01*
X38687D01*
X38620Y-49397D01*
X38610Y-49399D01*
X38599Y-49397D01*
X37832D01*
X37603Y-49167D01*
Y-42997D01*
Y-42365D01*
Y-42356D01*
Y-42356D01*
X37622Y-42327D01*
X37632Y-42278D01*
X37655Y-42232D01*
X37657Y-42203D01*
X37668Y-42176D01*
X37668Y-42097D01*
X37683Y-42020D01*
X37673Y-41970D01*
X37677Y-41920D01*
X37677Y-41920D01*
X37668Y-41892D01*
Y-41863D01*
X37637Y-41790D01*
X37622Y-41712D01*
X37605Y-41686D01*
X37605Y-41686D01*
X37587Y-41645D01*
X37587Y-41645D01*
X37586Y-41637D01*
X37580Y-41628D01*
X37578Y-41623D01*
X37570Y-41613D01*
X37555Y-41591D01*
X37548Y-41574D01*
X37535Y-41554D01*
X37512Y-41498D01*
X37456Y-41442D01*
X37412Y-41376D01*
X37356Y-41320D01*
X37356Y-41320D01*
D01*
X37356Y-41320D01*
X37268Y-41232D01*
X37268Y-41232D01*
X37268Y-41232D01*
X37124Y-41088D01*
X37058Y-41044D01*
X37001Y-40988D01*
X36929Y-40958D01*
X36863Y-40914D01*
X36859Y-40913D01*
X36859Y-40913D01*
X36779Y-40880D01*
X36732Y-40861D01*
X36732D01*
X36728Y-40858D01*
X36667Y-40846D01*
X36653Y-40840D01*
X36643Y-40840D01*
X36578Y-40813D01*
X36499Y-40813D01*
X36421Y-40797D01*
X18458D01*
X18458Y-40797D01*
X18379D01*
X18302Y-40813D01*
X18223Y-40813D01*
X18150Y-40843D01*
X18072Y-40858D01*
X18068Y-40861D01*
X18068Y-40861D01*
X18023Y-40880D01*
X17942Y-40913D01*
X17937Y-40914D01*
X17871Y-40958D01*
X17798Y-40988D01*
X17742Y-41044D01*
X17676Y-41088D01*
X17621Y-41144D01*
X17620Y-41144D01*
X17620Y-41144D01*
X17088Y-41676D01*
X17044Y-41742D01*
X16988Y-41798D01*
X16958Y-41871D01*
X16914Y-41937D01*
X16913Y-41941D01*
X16913Y-41941D01*
X16880Y-42021D01*
X16861Y-42068D01*
Y-42068D01*
X16858Y-42072D01*
X16846Y-42134D01*
X16840Y-42147D01*
X16839Y-42157D01*
X16813Y-42222D01*
X16813Y-42301D01*
X16797Y-42379D01*
Y-42458D01*
Y-45300D01*
Y-45968D01*
X16732Y-46032D01*
X16732Y-46032D01*
X15916Y-46848D01*
X8573D01*
X8573Y-46848D01*
X8494D01*
X8416Y-46864D01*
X8337Y-46864D01*
X8290Y-46883D01*
X8240Y-46890D01*
X8240Y-46890D01*
X8215Y-46904D01*
X8187Y-46910D01*
X8187Y-46910D01*
X8187D01*
X8121Y-46953D01*
X8048Y-46984D01*
X7871Y-47102D01*
X7871Y-47102D01*
X7871Y-47102D01*
X7685Y-47226D01*
X7685Y-47226D01*
X7685Y-47226D01*
X7661Y-47242D01*
X7661Y-47242D01*
X7661Y-47242D01*
D01*
X7453Y-47284D01*
X7453Y-47284D01*
X7453D01*
X7395Y-47295D01*
X7394Y-47295D01*
X7363Y-47301D01*
X7050D01*
X6752Y-47242D01*
X6751Y-47242D01*
X6431Y-47028D01*
X6431Y-47028D01*
X6411Y-47015D01*
X6411Y-47015D01*
X6411Y-47014D01*
X6365Y-46984D01*
X6292Y-46953D01*
X6226Y-46910D01*
X6148Y-46894D01*
X6075Y-46864D01*
X5996Y-46864D01*
X5919Y-46848D01*
X3573D01*
X3573Y-46848D01*
X3494D01*
X3416Y-46864D01*
X3337Y-46864D01*
X3290Y-46883D01*
X3240Y-46890D01*
X3240Y-46890D01*
X3215Y-46904D01*
X3187Y-46910D01*
X3187Y-46910D01*
X3187D01*
X3121Y-46953D01*
X3048Y-46984D01*
X2871Y-47102D01*
X2871Y-47102D01*
X2871Y-47102D01*
X2685Y-47226D01*
X2685Y-47226D01*
X2685Y-47226D01*
X2661Y-47242D01*
X2661Y-47242D01*
X2661Y-47242D01*
D01*
X2453Y-47284D01*
X2453Y-47284D01*
X2453D01*
X2395Y-47295D01*
X2394Y-47295D01*
X2363Y-47301D01*
X2049D01*
X1751Y-47242D01*
X1751Y-47242D01*
X1431Y-47028D01*
X1431Y-47028D01*
X1411Y-47015D01*
X1411Y-47015D01*
X1411Y-47014D01*
X1365Y-46984D01*
X1292Y-46953D01*
X1226Y-46910D01*
X1148Y-46894D01*
X1075Y-46864D01*
X996Y-46864D01*
X919Y-46848D01*
X403D01*
Y-42800D01*
Y-42279D01*
X387Y-42202D01*
X387Y-42123D01*
X380Y-42104D01*
X379Y-42084D01*
X379Y-42084D01*
X353Y-42030D01*
X342Y-41972D01*
X339Y-41968D01*
X321Y-41923D01*
X321Y-41923D01*
X321Y-41923D01*
X321Y-41923D01*
D01*
X287Y-41841D01*
X286Y-41837D01*
X242Y-41771D01*
X212Y-41698D01*
X156Y-41642D01*
X112Y-41576D01*
X56Y-41521D01*
X-81Y-41384D01*
X-276Y-41188D01*
X-342Y-41144D01*
X-398Y-41088D01*
X-471Y-41058D01*
X-537Y-41014D01*
X-541Y-41013D01*
X-541Y-41013D01*
X-621Y-40980D01*
X-668Y-40961D01*
X-668D01*
X-672Y-40958D01*
X-734Y-40946D01*
X-747Y-40940D01*
X-757Y-40940D01*
X-822Y-40913D01*
X-901Y-40913D01*
X-979Y-40897D01*
X-12867D01*
X-12867Y-40897D01*
X-12867Y-40897D01*
X-13632Y-40132D01*
X-15176Y-38588D01*
X-15242Y-38544D01*
X-15299Y-38488D01*
X-15371Y-38458D01*
X-15437Y-38414D01*
X-15441Y-38413D01*
X-15441Y-38413D01*
X-15521Y-38380D01*
X-15568Y-38361D01*
X-15568D01*
X-15572Y-38358D01*
X-15633Y-38346D01*
X-15647Y-38340D01*
X-15657Y-38340D01*
X-15722Y-38313D01*
X-15801Y-38313D01*
X-15879Y-38297D01*
X-18207D01*
Y-38270D01*
X-26475D01*
Y-38313D01*
X-26478D01*
X-26551Y-38343D01*
X-26628Y-38358D01*
X-26632Y-38361D01*
X-26632Y-38361D01*
X-26677Y-38380D01*
X-26759Y-38413D01*
X-26759Y-38413D01*
X-26763Y-38414D01*
X-26763Y-38414D01*
X-26763D01*
X-26787Y-38430D01*
X-26815Y-38438D01*
X-26815Y-38438D01*
X-26855Y-38469D01*
X-26902Y-38489D01*
X-26958Y-38544D01*
X-27024Y-38588D01*
X-27024Y-38588D01*
X-27168Y-38732D01*
X-27168Y-38732D01*
X-27312Y-38876D01*
X-27356Y-38942D01*
X-27412Y-38998D01*
X-27442Y-39071D01*
X-27486Y-39137D01*
X-27487Y-39141D01*
X-27487Y-39141D01*
X-27520Y-39221D01*
X-27539Y-39268D01*
Y-39268D01*
X-27542Y-39272D01*
X-27554Y-39334D01*
X-27560Y-39347D01*
X-27560Y-39357D01*
X-27587Y-39422D01*
X-27587Y-39501D01*
X-27603Y-39579D01*
Y-39658D01*
Y-40200D01*
Y-40367D01*
X-27603Y-40367D01*
X-27603Y-40367D01*
X-28133Y-40897D01*
D01*
X-28133Y-40897D01*
X-36990D01*
X-37068Y-40913D01*
X-37147Y-40913D01*
X-37165Y-40920D01*
X-37185Y-40921D01*
X-37185Y-40921D01*
X-37239Y-40947D01*
X-37298Y-40958D01*
X-37301Y-40961D01*
X-37346Y-40979D01*
X-37346Y-40979D01*
X-37346Y-40979D01*
X-37346Y-40979D01*
D01*
X-37428Y-41013D01*
X-37433Y-41014D01*
X-37498Y-41058D01*
X-37571Y-41088D01*
X-37627Y-41144D01*
X-37693Y-41188D01*
X-37812Y-41307D01*
X-37856Y-41373D01*
X-37912Y-41429D01*
X-37942Y-41502D01*
X-37986Y-41567D01*
X-37987Y-41572D01*
X-37987Y-41572D01*
X-38020Y-41651D01*
X-38039Y-41699D01*
Y-41699D01*
X-38042Y-41702D01*
X-38054Y-41764D01*
X-38060Y-41778D01*
X-38060Y-41788D01*
X-38087Y-41852D01*
X-38087Y-41932D01*
X-38103Y-42010D01*
Y-42089D01*
Y-42700D01*
Y-44242D01*
X-38103Y-44242D01*
Y-44321D01*
X-38087Y-44398D01*
X-38087Y-44477D01*
X-38067Y-44526D01*
X-38058Y-44573D01*
X-38058Y-44573D01*
Y-44573D01*
X-38048Y-44598D01*
X-38042Y-44628D01*
X-38039Y-44632D01*
X-38023Y-44672D01*
X-38020Y-44675D01*
X-38011Y-44722D01*
X-38011Y-44725D01*
X-38008Y-44733D01*
X-38006Y-44736D01*
X-38000Y-44751D01*
X-37982Y-44778D01*
Y-44778D01*
X-37959Y-44846D01*
X-37951Y-44860D01*
X-37951Y-44860D01*
X-37946Y-44869D01*
X-37946Y-44869D01*
X-37940Y-44895D01*
X-37940Y-44895D01*
Y-44895D01*
X-37928Y-44925D01*
X-37928Y-44925D01*
X-37888Y-45228D01*
X-37895Y-45234D01*
X-37898Y-45240D01*
X-37902Y-45245D01*
X-37902Y-45245D01*
X-37968Y-45289D01*
X-38012Y-45354D01*
X-38067Y-45410D01*
X-38098Y-45483D01*
X-38142Y-45549D01*
X-38157Y-45627D01*
X-38187Y-45700D01*
Y-45779D01*
X-38203Y-45856D01*
Y-53690D01*
X-38203Y-53690D01*
Y-53769D01*
X-38187Y-53847D01*
X-38188Y-53926D01*
X-38157Y-53999D01*
X-38142Y-54077D01*
X-38139Y-54080D01*
X-38139Y-54080D01*
X-38120Y-54126D01*
X-38087Y-54207D01*
Y-54207D01*
X-38086Y-54212D01*
X-38042Y-54277D01*
X-38012Y-54350D01*
X-38012Y-54350D01*
X-38012Y-54350D01*
X-38011Y-54351D01*
X-37956Y-54406D01*
X-37912Y-54472D01*
X-37856Y-54528D01*
X-37856Y-54528D01*
X-37856Y-54528D01*
X-37816Y-54568D01*
X-37816Y-54568D01*
X-37065Y-55318D01*
X-36999Y-55363D01*
X-36943Y-55419D01*
X-36870Y-55449D01*
X-36805Y-55493D01*
X-36800Y-55493D01*
X-36800Y-55493D01*
X-36721Y-55526D01*
X-36674Y-55546D01*
X-36674D01*
X-36670Y-55548D01*
X-36608Y-55561D01*
X-36595Y-55567D01*
X-36585Y-55567D01*
X-36520Y-55594D01*
X-36441Y-55594D01*
X-36363Y-55610D01*
X-21103D01*
Y-64962D01*
X-52638D01*
X-53100Y-64500D01*
Y-55732D01*
Y-45300D01*
X-53335Y-45065D01*
X-53335Y-45065D01*
X-53468Y-44932D01*
X-53468Y-44932D01*
X-53534Y-44866D01*
X-53600Y-44800D01*
X-53600Y-44800D01*
X-53600Y-44800D01*
X-56888Y-41512D01*
D01*
X-56944Y-41456D01*
X-56945Y-41451D01*
X-56971Y-41390D01*
X-56971Y-41390D01*
X-56971Y-41390D01*
X-56998Y-41325D01*
X-57000Y-41321D01*
Y-41242D01*
X-57000Y-41242D01*
Y-36000D01*
Y-34858D01*
Y-34779D01*
X-56998Y-34775D01*
X-56978Y-34728D01*
X-56978Y-34728D01*
X-56978Y-34728D01*
X-56945Y-34649D01*
X-56944Y-34644D01*
X-56788Y-34488D01*
X-56633Y-34332D01*
X-56633Y-34332D01*
X-55603Y-33303D01*
X-54003D01*
X-53696Y-33242D01*
X-53662Y-33228D01*
X-52997Y-33140D01*
X-30738D01*
X-30737Y-33140D01*
X-30430Y-33079D01*
X-30170Y-32905D01*
X-30170Y-32905D01*
X-29850Y-32585D01*
X-22341D01*
X-21621Y-32491D01*
X-21410Y-32403D01*
X-18600D01*
X-18600Y-32403D01*
X-18408Y-32365D01*
D01*
X-18379Y-32433D01*
D02*
G37*
G36*
X27000Y160000D02*
Y152700D01*
X26000Y151700D01*
X6900D01*
X3900Y154700D01*
X3622Y159236D01*
X3965Y159600D01*
X4000D01*
X5900Y161500D01*
X6000Y161600D01*
X25400D01*
X27000Y160000D01*
D02*
G37*
G36*
X25615Y75599D02*
X24121D01*
X24121Y75600D01*
X23660Y75508D01*
X23269Y75247D01*
X23269Y75247D01*
X21869Y73847D01*
X21609Y73457D01*
X21517Y72996D01*
X21517Y72996D01*
Y67506D01*
X20753D01*
Y60419D01*
X24690D01*
Y67506D01*
X23925D01*
Y72497D01*
X24619Y73191D01*
X25615D01*
Y72624D01*
Y69080D01*
X26517D01*
Y67506D01*
X25753D01*
Y60419D01*
X28147D01*
X28196Y59921D01*
X27732Y59829D01*
X27081Y59394D01*
X26758Y58911D01*
X11763D01*
X11554Y59301D01*
X11707Y60069D01*
X11554Y60837D01*
X11119Y61488D01*
X10904Y61632D01*
Y71676D01*
X12419Y73191D01*
X15674D01*
Y72624D01*
Y69080D01*
X16517D01*
Y67506D01*
X15753D01*
Y60419D01*
X19690D01*
Y67506D01*
X18925D01*
Y69080D01*
X19611D01*
Y72624D01*
Y76164D01*
X25615D01*
Y75599D01*
D02*
G37*
G36*
X-15359Y95656D02*
X-14968Y95394D01*
X-14507Y95303D01*
X-11133D01*
X-8951Y93121D01*
X-8560Y92860D01*
X-8100Y92768D01*
X-871D01*
X-4Y91901D01*
Y72543D01*
X-157D01*
Y72543D01*
X-4352D01*
Y74192D01*
X-3784D01*
Y78129D01*
X-7196D01*
Y79609D01*
X-7196Y79610D01*
X-7287Y80070D01*
X-7548Y80461D01*
X-7548Y80461D01*
X-8084Y80996D01*
X-8034Y81249D01*
X-8125Y81710D01*
X-8141Y81733D01*
Y83091D01*
X-12078D01*
Y82453D01*
X-12649D01*
X-12932Y82509D01*
Y83021D01*
Y86564D01*
X-16869D01*
Y86450D01*
X-17332D01*
Y86450D01*
X-21269D01*
Y86216D01*
X-27648D01*
Y86651D01*
X-31585D01*
Y83108D01*
X-27648D01*
Y83808D01*
X-21269D01*
Y82907D01*
Y82340D01*
X-22239D01*
X-22700Y82248D01*
X-23091Y81987D01*
X-23091Y81987D01*
X-23870Y81207D01*
X-24132Y80817D01*
X-24223Y80356D01*
X-24223Y80356D01*
Y68337D01*
X-24594D01*
Y62038D01*
X-21146D01*
X-21001Y61689D01*
X-21279Y61273D01*
X-26393D01*
X-26821Y61559D01*
X-26676Y62038D01*
X-26562D01*
Y68337D01*
X-28291D01*
X-28414Y68635D01*
X-28136Y69050D01*
X-27141D01*
Y70014D01*
X-26931Y70328D01*
X-26794Y71019D01*
X-26931Y71710D01*
X-27141Y72024D01*
Y72987D01*
X-28182D01*
X-28197Y73010D01*
X-28848Y73445D01*
X-29616Y73598D01*
X-29903Y73541D01*
X-30225Y73605D01*
X-30225D01*
D01*
X-32397D01*
X-32513Y73620D01*
Y73605D01*
X-35217D01*
Y74391D01*
X-39154D01*
D01*
X-39154D01*
X-39496Y74732D01*
Y82101D01*
X-32893Y88704D01*
X-5398D01*
X-4904Y88210D01*
Y86463D01*
X-5119Y86319D01*
X-5554Y85668D01*
X-5707Y84900D01*
X-5554Y84132D01*
X-5119Y83481D01*
X-4468Y83046D01*
X-3700Y82893D01*
X-2932Y83046D01*
X-2281Y83481D01*
X-1846Y84132D01*
X-1693Y84900D01*
X-1846Y85668D01*
X-2281Y86319D01*
X-2496Y86463D01*
Y88709D01*
X-2587Y89170D01*
X-2692Y89326D01*
X-2849Y89560D01*
X-2849Y89560D01*
X-4048Y90760D01*
X-4438Y91021D01*
X-4899Y91112D01*
X-4899Y91112D01*
X-33392D01*
X-33392Y91112D01*
X-33853Y91021D01*
X-34243Y90760D01*
X-41552Y83451D01*
X-41813Y83061D01*
X-41904Y82600D01*
X-41904Y82600D01*
Y69300D01*
X-41904Y69300D01*
X-41813Y68839D01*
X-41552Y68449D01*
X-41002Y67899D01*
X-41050Y67660D01*
X-41128Y67401D01*
X-41868Y67254D01*
X-42519Y66819D01*
X-42663Y66604D01*
X-43400D01*
X-43400Y66604D01*
X-43861Y66513D01*
X-44251Y66251D01*
X-46352Y64152D01*
X-46613Y63761D01*
X-46704Y63300D01*
X-46704Y63300D01*
Y55999D01*
X-48699Y54004D01*
X-61392D01*
X-61853Y53913D01*
X-62244Y53651D01*
X-66452Y49444D01*
X-66713Y49053D01*
X-66804Y48592D01*
X-66804Y48592D01*
Y36999D01*
X-68838Y34965D01*
X-75439D01*
X-75439Y34965D01*
X-75900Y34873D01*
X-76291Y34612D01*
X-76291Y34612D01*
X-78751Y32151D01*
X-79013Y31761D01*
X-79104Y31300D01*
X-79104Y31300D01*
Y28699D01*
X-79299Y28504D01*
X-83309D01*
X-83310Y28504D01*
X-83310Y28504D01*
X-88037D01*
X-88181Y28719D01*
X-88832Y29154D01*
X-89600Y29307D01*
X-90368Y29154D01*
X-91019Y28719D01*
X-91193Y28459D01*
X-91672Y28604D01*
Y29087D01*
X-87148Y33611D01*
X-81585D01*
X-81585Y33611D01*
X-81124Y33703D01*
X-80733Y33964D01*
X-73002Y41695D01*
X-72741Y42086D01*
X-72649Y42546D01*
Y47853D01*
X-72649Y47853D01*
X-72649Y47854D01*
Y47854D01*
X-72649D01*
X-72649Y47854D01*
X-72741Y48314D01*
X-72846Y48471D01*
X-73002Y48705D01*
X-73002Y48705D01*
X-75491Y51194D01*
X-75378Y51681D01*
X-74780Y51884D01*
X-72234Y53140D01*
X-69874Y54717D01*
X-67740Y56588D01*
X-65868Y58722D01*
X-64291Y61083D01*
X-63036Y63628D01*
X-62123Y66316D01*
X-61570Y69100D01*
X-61384Y71933D01*
X-61438Y72757D01*
X-58738Y75008D01*
X-54102Y78418D01*
X-49270Y81543D01*
X-44257Y84370D01*
X-42512Y85220D01*
X-42381Y85246D01*
X-41990Y85507D01*
X-30601Y96896D01*
X-16599D01*
X-15359Y95656D01*
D02*
G37*
G36*
X30835Y86508D02*
Y82965D01*
X31501D01*
Y82295D01*
X31501Y82294D01*
X31593Y81834D01*
X31718Y81646D01*
X31483Y81205D01*
X30700D01*
X30162Y81098D01*
X29706Y80793D01*
X29457Y80544D01*
X15045D01*
X14507Y80437D01*
X14051Y80133D01*
X13088Y79169D01*
X8069D01*
X7919Y79394D01*
X7268Y79829D01*
X6500Y79982D01*
X5732Y79829D01*
X5081Y79394D01*
X4646Y78743D01*
X4493Y77975D01*
Y77975D01*
X4467Y77693D01*
X4443Y77669D01*
X4197Y77669D01*
X3979Y77735D01*
Y82843D01*
X7607D01*
Y82843D01*
X7676Y82900D01*
X7900Y82855D01*
X8668Y83008D01*
X9319Y83443D01*
X9754Y84094D01*
X9783Y84237D01*
X15481D01*
Y81075D01*
X20993D01*
Y84237D01*
X21780D01*
Y82965D01*
X25717D01*
Y86508D01*
X26111D01*
Y86508D01*
X30048D01*
Y88096D01*
X30835D01*
Y86508D01*
D02*
G37*
G36*
X-21269Y79364D02*
X-17332D01*
Y79477D01*
X-16869D01*
Y79477D01*
X-14271D01*
X-13954Y79091D01*
X-14101Y78352D01*
X-13948Y77584D01*
X-13658Y77150D01*
X-13585Y76784D01*
X-13468Y76609D01*
Y74075D01*
Y74059D01*
X-13546D01*
Y74059D01*
X-17483D01*
Y73116D01*
X-17492Y73107D01*
X-17870Y72730D01*
X-18331Y72921D01*
Y74004D01*
X-21815D01*
Y79857D01*
X-21741Y79931D01*
X-21269D01*
Y79364D01*
D02*
G37*
G36*
X-75543Y31300D02*
Y29331D01*
X-74976D01*
Y25298D01*
X-75268Y25005D01*
X-78880D01*
Y19887D01*
X-73401D01*
Y10902D01*
X-74705Y9598D01*
X-74966Y9207D01*
X-75058Y8747D01*
X-75058Y8746D01*
Y-43746D01*
X-75058Y-43746D01*
X-74966Y-44207D01*
X-74705Y-44598D01*
X-70240Y-49063D01*
X-70240Y-49063D01*
X-69849Y-49324D01*
X-69388Y-49416D01*
X-69110D01*
Y-49460D01*
X-69110D01*
Y-53004D01*
X-65173D01*
Y-53000D01*
X-65075D01*
Y-53000D01*
X-61138D01*
Y-49457D01*
D01*
Y-49457D01*
X-61097Y-49416D01*
X-60122D01*
Y-51858D01*
X-55398D01*
Y-45165D01*
X-60122D01*
Y-47008D01*
X-63160D01*
X-63160Y-47008D01*
X-63160Y-47008D01*
X-67460D01*
X-67460Y-47008D01*
X-67460Y-47008D01*
X-68889D01*
X-72649Y-43248D01*
Y-33608D01*
X-72263Y-33290D01*
X-72200Y-33303D01*
X-57392D01*
X-57346Y-33414D01*
X-57200Y-33765D01*
X-57512Y-34076D01*
X-57556Y-34142D01*
X-57612Y-34198D01*
X-57653Y-34260D01*
X-57683Y-34333D01*
X-57686Y-34337D01*
X-57687Y-34341D01*
X-57720Y-34421D01*
X-57739Y-34468D01*
X-57742Y-34472D01*
X-57743Y-34476D01*
X-57773Y-34549D01*
X-57773Y-34549D01*
D01*
D01*
X-57787Y-34622D01*
Y-34701D01*
X-57803Y-34779D01*
Y-36000D01*
Y-41321D01*
X-57787Y-41399D01*
X-57787Y-41478D01*
X-57773Y-41551D01*
Y-41551D01*
Y-41551D01*
X-57773Y-41551D01*
X-57743Y-41624D01*
X-57742Y-41628D01*
X-57739Y-41632D01*
X-57712Y-41697D01*
X-57687Y-41758D01*
X-57686Y-41763D01*
X-57683Y-41767D01*
X-57653Y-41840D01*
X-57653Y-41840D01*
X-57653Y-41840D01*
X-57653Y-41840D01*
X-57612Y-41902D01*
X-57556Y-41958D01*
X-57512Y-42024D01*
X-54168Y-45368D01*
X-54168Y-45368D01*
D01*
X-54168Y-45368D01*
X-54035Y-45500D01*
X-54035Y-45500D01*
X-53903Y-45632D01*
Y-55732D01*
Y-61509D01*
X-54365Y-61700D01*
X-54505Y-61560D01*
X-54571Y-61516D01*
X-54627Y-61460D01*
X-54688Y-61419D01*
X-54761Y-61388D01*
X-54765Y-61386D01*
X-54770Y-61385D01*
X-54849Y-61352D01*
X-54896Y-61332D01*
X-54900Y-61330D01*
X-54905Y-61329D01*
X-54978Y-61299D01*
X-54978Y-61299D01*
D01*
D01*
X-55051Y-61284D01*
X-55130D01*
X-55207Y-61269D01*
X-55398D01*
Y-60874D01*
X-55398D01*
Y-54181D01*
X-60122D01*
Y-56757D01*
X-60491D01*
Y-56757D01*
X-64428D01*
Y-60300D01*
Y-62395D01*
X-64890Y-62586D01*
X-72596Y-54880D01*
X-72636Y-54853D01*
X-72658Y-54839D01*
X-73348Y-54149D01*
X-73739Y-53887D01*
X-74200Y-53796D01*
X-74200Y-53796D01*
X-75036D01*
X-75227Y-53334D01*
X-75043Y-53150D01*
X-74809Y-52993D01*
X-74809Y-52994D01*
X-74809Y-52993D01*
X-74658Y-52842D01*
X-74501Y-52608D01*
X-73024Y-51131D01*
X-75808Y-48347D01*
X-78056Y-50595D01*
X-79630D01*
X-79646Y-50558D01*
X-79745Y-50057D01*
X-76922Y-47234D01*
X-79583Y-44573D01*
X-79781Y-44276D01*
X-80432Y-43841D01*
X-80607Y-43807D01*
X-81525Y-42888D01*
X-81560Y-42843D01*
X-81565Y-42848D01*
X-84644Y-39770D01*
X-85099Y-39465D01*
X-85637Y-39358D01*
X-93410D01*
Y-36508D01*
X-93516Y-35970D01*
X-93821Y-35515D01*
X-94818Y-34518D01*
Y-18213D01*
X-94376Y-17977D01*
X-94136Y-18138D01*
X-93675Y-18229D01*
X-93675Y-18229D01*
X-87143D01*
Y-19092D01*
D01*
Y-19092D01*
X-87155Y-19104D01*
X-91574D01*
Y-24222D01*
X-85275D01*
Y-22867D01*
X-84763D01*
X-84763Y-22867D01*
X-84302Y-22776D01*
X-83912Y-22514D01*
X-80977Y-19580D01*
X-80977Y-19580D01*
X-80716Y-19189D01*
X-80696Y-19092D01*
X-80057D01*
Y-15155D01*
X-87143D01*
Y-15821D01*
X-91430D01*
X-91479Y-15323D01*
X-91132Y-15254D01*
X-90481Y-14819D01*
X-90313Y-14568D01*
X-90251Y-14542D01*
X-90103Y-14513D01*
X-89712Y-14252D01*
X-89280Y-13820D01*
X-85275D01*
Y-8702D01*
X-91574D01*
Y-9492D01*
X-91676Y-10266D01*
X-91900Y-11393D01*
X-92668Y-11546D01*
X-92806Y-11638D01*
X-93247Y-11402D01*
Y514D01*
X-92785Y706D01*
X-92404Y325D01*
X-92013Y64D01*
X-91552Y-28D01*
X-87443D01*
Y-792D01*
D01*
Y-792D01*
X-87479Y-828D01*
X-91574D01*
Y-5946D01*
X-85275D01*
Y-4591D01*
X-84187D01*
X-84187Y-4591D01*
X-83726Y-4499D01*
X-83335Y-4238D01*
X-81277Y-2180D01*
X-81277Y-2180D01*
X-81120Y-1946D01*
X-81016Y-1789D01*
X-80924Y-1328D01*
Y-792D01*
X-80357D01*
Y3145D01*
X-87443D01*
Y2381D01*
X-88718D01*
X-88954Y2822D01*
X-88546Y3432D01*
X-88397Y4180D01*
X-85275D01*
Y9298D01*
X-91574D01*
D01*
X-91574D01*
X-91672Y9396D01*
Y12054D01*
X-91574D01*
Y12054D01*
X-85275D01*
Y16132D01*
X-85227Y16204D01*
X-85159Y16305D01*
X-85159Y16305D01*
X-85159Y16305D01*
X-85067Y16766D01*
X-85067Y16766D01*
Y18408D01*
X-80957D01*
Y22345D01*
X-81524D01*
Y26096D01*
X-78800D01*
X-78800Y26096D01*
X-78339Y26187D01*
X-77948Y26449D01*
X-77048Y27349D01*
X-77048Y27349D01*
X-76787Y27739D01*
X-76696Y28200D01*
Y30801D01*
X-76005Y31492D01*
X-75543Y31300D01*
D02*
G37*
G36*
X5581Y48093D02*
X6232Y47657D01*
X7000Y47505D01*
X7193Y47543D01*
X7580Y47226D01*
Y34279D01*
X6700D01*
X6700Y34279D01*
X6670Y34273D01*
X6639Y34279D01*
X6639Y34279D01*
X5900D01*
X5900Y34279D01*
X5439Y34187D01*
X5049Y33926D01*
X5034Y33940D01*
X5033Y33938D01*
X5033Y33938D01*
X4942Y33820D01*
X3710Y32588D01*
X3710Y32588D01*
X3707Y32590D01*
X3691Y32569D01*
X3381Y32259D01*
X3232Y32229D01*
X2581Y31794D01*
X2146Y31143D01*
X1993Y30375D01*
X2146Y29607D01*
X2148Y29603D01*
X1912Y29162D01*
X-14332D01*
Y32075D01*
Y32758D01*
X-13654D01*
Y32190D01*
X-9717D01*
Y35734D01*
X-11578D01*
Y38416D01*
X-8649D01*
Y40361D01*
X-6396D01*
Y38343D01*
X-1278D01*
Y40361D01*
X1478D01*
Y38343D01*
X6596D01*
Y43855D01*
X4143D01*
Y44006D01*
X4143D01*
Y47738D01*
X4619Y48056D01*
X4862Y48419D01*
X5362D01*
X5581Y48093D01*
D02*
G37*
G36*
X36867Y115952D02*
X36879Y115914D01*
X36879Y115914D01*
X36901Y115800D01*
X36869Y115757D01*
X36869D01*
X36869Y115757D01*
X36872Y115712D01*
X36872Y115712D01*
X37441Y112361D01*
D01*
Y112361D01*
Y112361D01*
X38382Y109096D01*
X39682Y105956D01*
X41326Y102981D01*
X43293Y100210D01*
X45557Y97676D01*
X48092Y95411D01*
X48131Y95384D01*
X48156Y95415D01*
X48478Y95199D01*
X48649Y95165D01*
X49690Y94658D01*
X55314Y91487D01*
X60736Y87981D01*
X65937Y84154D01*
X70897Y80021D01*
X74904Y76248D01*
X74606Y75690D01*
X74077Y73946D01*
X73898Y72133D01*
X74077Y70319D01*
X74606Y68575D01*
X75465Y66968D01*
X76621Y65559D01*
X78030Y64403D01*
X79637Y63543D01*
X81381Y63014D01*
X83195Y62836D01*
X85009Y63014D01*
X86069Y63336D01*
X87984Y60733D01*
X91049Y55992D01*
X90769Y55578D01*
X90638Y55604D01*
X90638Y55604D01*
X87662D01*
X87662Y55604D01*
X87201Y55513D01*
X86810Y55251D01*
X86810Y55251D01*
X85678Y54119D01*
X85277Y54520D01*
X81379Y50623D01*
X83885Y48118D01*
D01*
X83885D01*
X83885D01*
X83885Y48118D01*
X83885D01*
Y48118D01*
X83885Y48118D01*
D01*
D01*
X83885D01*
X83885D01*
Y48118D01*
X84036Y47966D01*
Y47466D01*
X80274Y43704D01*
X80013Y43313D01*
X79921Y42852D01*
X79921Y42852D01*
Y37848D01*
X79921Y37848D01*
X80013Y37387D01*
X80274Y36996D01*
X82502Y34768D01*
X82311Y34306D01*
X71978D01*
Y47101D01*
X71917Y47408D01*
X71743Y47668D01*
X71483Y47842D01*
X71176Y47903D01*
X68783D01*
Y50457D01*
X65445D01*
X65167Y50872D01*
X65320Y51243D01*
X65476Y52425D01*
Y57937D01*
X65320Y59119D01*
X65047Y59779D01*
X65325Y60195D01*
X67467D01*
X67700Y60149D01*
X68468Y60301D01*
X69119Y60737D01*
X69554Y61388D01*
X69707Y62156D01*
X69554Y62924D01*
X69119Y63575D01*
X68468Y64010D01*
X67700Y64163D01*
X66932Y64010D01*
X66281Y63575D01*
X65900Y63005D01*
X60909D01*
X60372Y62898D01*
X59916Y62593D01*
X59754Y62351D01*
X59728Y62348D01*
X58626Y61892D01*
X57680Y61166D01*
X56955Y60220D01*
X56498Y59119D01*
X56343Y57937D01*
Y52425D01*
X56498Y51243D01*
X56955Y50142D01*
X57680Y49196D01*
X58547Y48531D01*
Y41008D01*
X63272D01*
Y48531D01*
X64139Y49196D01*
X64373Y49501D01*
X64846Y49341D01*
Y47903D01*
X64776D01*
X64468Y47842D01*
X64208Y47668D01*
X64034Y47408D01*
X63973Y47101D01*
Y39925D01*
X62484D01*
Y33429D01*
X63445D01*
Y33035D01*
X63445Y33035D01*
X63445Y33035D01*
Y32238D01*
X62962Y31755D01*
X60925D01*
Y27818D01*
X64468D01*
Y28846D01*
X64776Y29098D01*
X66421D01*
Y29000D01*
Y28045D01*
X66227Y27915D01*
X65835Y27329D01*
X65698Y26638D01*
Y24925D01*
X65526Y24753D01*
X62583D01*
Y18257D01*
X66913D01*
Y18729D01*
X67504D01*
X68195Y18867D01*
X68503Y19072D01*
X68994Y18975D01*
X69056Y18881D01*
X69708Y18446D01*
X70476Y18294D01*
X71244Y18446D01*
X71895Y18881D01*
X72330Y19533D01*
X72483Y20301D01*
X72330Y21069D01*
X71895Y21720D01*
X71244Y22155D01*
X71159Y22172D01*
X70548Y22782D01*
X69962Y23174D01*
X69310Y23304D01*
Y24177D01*
Y25422D01*
X82318D01*
X82432Y25346D01*
X83200Y25193D01*
X83968Y25346D01*
X84037Y25392D01*
X84591Y25502D01*
X85177Y25894D01*
X85569Y26480D01*
X85706Y27171D01*
X85592Y27744D01*
X86033Y27980D01*
X90095Y23918D01*
Y-21918D01*
X80232Y-31781D01*
X80200Y-31781D01*
Y-31781D01*
X80198Y-31782D01*
X80198D01*
X80184Y-31796D01*
X79432Y-31946D01*
X78781Y-32381D01*
X78346Y-33032D01*
X78193Y-33800D01*
X78346Y-34568D01*
X78781Y-35219D01*
X79432Y-35654D01*
X80200Y-35807D01*
X80966Y-35655D01*
X81201Y-36096D01*
X72149Y-45149D01*
X71887Y-45539D01*
X71796Y-46000D01*
X71796Y-46000D01*
Y-46817D01*
X71700Y-47296D01*
X71239Y-47387D01*
X70849Y-47649D01*
X70849Y-47649D01*
X69423Y-49074D01*
X68954Y-48932D01*
X68519Y-48281D01*
X67868Y-47846D01*
X67100Y-47693D01*
X66332Y-47846D01*
X65681Y-48281D01*
X65246Y-48932D01*
X65093Y-49700D01*
X65143Y-49954D01*
X60674Y-54423D01*
X60413Y-54814D01*
X60321Y-55275D01*
X60321Y-55275D01*
Y-63720D01*
X58180Y-65860D01*
X58048Y-65948D01*
X51799Y-72198D01*
X51538Y-72589D01*
X51446Y-73050D01*
X51446Y-73050D01*
Y-82897D01*
X49953Y-84390D01*
X41877D01*
X41803Y-84300D01*
Y-67100D01*
X41742Y-66793D01*
X41603Y-66585D01*
Y-58887D01*
X41603Y-58887D01*
X41603Y-58887D01*
X43122Y-57368D01*
X43122Y-57368D01*
X43122Y-57368D01*
X43187Y-57303D01*
X43187Y-57303D01*
X43187Y-57303D01*
X51842D01*
X51842Y-57303D01*
X51921D01*
X51999Y-57287D01*
X52078Y-57287D01*
X52151Y-57257D01*
X52228Y-57242D01*
X52232Y-57239D01*
X52232Y-57239D01*
X52297Y-57212D01*
X52359Y-57187D01*
X52359Y-57187D01*
X52363Y-57186D01*
X52414Y-57152D01*
X52415Y-57152D01*
X52416Y-57150D01*
X52429Y-57142D01*
X52502Y-57111D01*
X52558Y-57056D01*
X52623Y-57012D01*
X61868Y-47768D01*
X61868Y-47768D01*
X64912Y-44724D01*
X64956Y-44658D01*
X65012Y-44602D01*
X65042Y-44529D01*
X65086Y-44463D01*
X65087Y-44459D01*
X65087Y-44459D01*
X65120Y-44379D01*
X65133Y-44346D01*
X65139Y-44320D01*
X65152Y-44296D01*
X65157Y-44260D01*
X65160Y-44253D01*
X65161Y-44229D01*
X65161Y-44227D01*
X65170Y-44204D01*
X65170Y-44204D01*
X65170Y-44192D01*
X65187Y-44139D01*
X65196Y-44073D01*
X65194Y-44041D01*
X65194Y-44039D01*
X65194Y-44035D01*
X65193Y-44020D01*
X65203Y-43969D01*
Y-34358D01*
X65203Y-34358D01*
Y-34279D01*
X65187Y-34202D01*
X65188Y-34123D01*
X65157Y-34050D01*
X65142Y-33972D01*
X65139Y-33968D01*
X65139Y-33968D01*
X65120Y-33923D01*
X65087Y-33841D01*
X65087Y-33841D01*
X65086Y-33837D01*
X65042Y-33771D01*
X65012Y-33698D01*
X64956Y-33642D01*
X64912Y-33576D01*
X64856Y-33521D01*
X64856Y-33520D01*
X64600Y-33265D01*
X64792Y-32803D01*
X73721D01*
X73799Y-32787D01*
X73878D01*
X73951Y-32773D01*
X73951Y-32773D01*
X73951D01*
X74024Y-32743D01*
X74028Y-32742D01*
X74032Y-32739D01*
X74076Y-32721D01*
X74159Y-32687D01*
X74163Y-32686D01*
X74167Y-32683D01*
X74240Y-32653D01*
X74240Y-32653D01*
X74240Y-32653D01*
X74302Y-32612D01*
X74358Y-32556D01*
X74424Y-32512D01*
X77368Y-29568D01*
X77368Y-29568D01*
X88263Y-18672D01*
X88307Y-18607D01*
X88363Y-18551D01*
X88404Y-18489D01*
X88434Y-18416D01*
X88437Y-18412D01*
X88438Y-18407D01*
X88471Y-18328D01*
X88490Y-18281D01*
X88493Y-18277D01*
X88494Y-18272D01*
X88524Y-18199D01*
X88524Y-18199D01*
X88524Y-18199D01*
X88524Y-18199D01*
X88524Y-18199D01*
Y-18199D01*
X88539Y-18126D01*
Y-18088D01*
X88554Y-17970D01*
X88554Y-17970D01*
X88554D01*
Y2121D01*
X88539Y2199D01*
X88539Y2278D01*
X88524Y2351D01*
Y2351D01*
X88524Y2351D01*
X88524Y2351D01*
X88494Y2424D01*
X88493Y2428D01*
X88490Y2432D01*
X88472Y2477D01*
X88438Y2559D01*
X88437Y2563D01*
X88435Y2567D01*
X88404Y2640D01*
X88404Y2640D01*
X88404Y2640D01*
X88404Y2640D01*
X88363Y2702D01*
X88307Y2758D01*
X88263Y2824D01*
X87975Y3112D01*
X87909Y3156D01*
X87853Y3212D01*
X87791Y3253D01*
X87718Y3283D01*
X87714Y3286D01*
X87710Y3287D01*
X87630Y3320D01*
X87583Y3339D01*
X87580Y3342D01*
X87575Y3343D01*
X87502Y3373D01*
X87502Y3373D01*
D01*
D01*
X87429Y3387D01*
X87350D01*
X87272Y3403D01*
X16779D01*
X16702Y3387D01*
X16623D01*
X16549Y3373D01*
X16549Y3373D01*
X16549D01*
X16476Y3343D01*
X16472Y3342D01*
X16468Y3339D01*
X16423Y3321D01*
X16341Y3287D01*
X16337Y3286D01*
X16333Y3283D01*
X16260Y3253D01*
X16260Y3253D01*
X16260Y3253D01*
X16198Y3212D01*
X16142Y3156D01*
X16076Y3112D01*
X15188Y2224D01*
X15144Y2158D01*
X15088Y2102D01*
X15047Y2040D01*
X15017Y1967D01*
X15014Y1963D01*
X15013Y1959D01*
X14980Y1879D01*
X14961Y1832D01*
X14958Y1828D01*
X14957Y1824D01*
X14927Y1751D01*
X14927Y1751D01*
D01*
D01*
X14913Y1678D01*
Y1599D01*
X14897Y1521D01*
Y-7267D01*
D01*
X14897Y-7267D01*
X14467Y-7697D01*
D01*
X14467Y-7697D01*
X14348D01*
Y-7681D01*
X11616D01*
X11224Y-7288D01*
X11158Y-7244D01*
X11102Y-7188D01*
X11040Y-7147D01*
X10967Y-7117D01*
X10963Y-7114D01*
X10959Y-7113D01*
X10879Y-7080D01*
X10832Y-7061D01*
X10828Y-7058D01*
X10824Y-7057D01*
X10751Y-7027D01*
X10751Y-7027D01*
D01*
D01*
X10678Y-7013D01*
X10599D01*
X10521Y-6997D01*
X-9821D01*
X-9899Y-7013D01*
X-9978D01*
X-10051Y-7027D01*
X-10051Y-7027D01*
X-10051D01*
X-10124Y-7057D01*
X-10128Y-7058D01*
X-10132Y-7061D01*
X-10176Y-7079D01*
X-10259Y-7113D01*
X-10263Y-7114D01*
X-10267Y-7117D01*
X-10340Y-7147D01*
X-10340Y-7147D01*
X-10340Y-7147D01*
X-10402Y-7188D01*
X-10458Y-7244D01*
X-10524Y-7288D01*
X-12768Y-9532D01*
X-12768Y-9532D01*
X-13533Y-10297D01*
X-17197D01*
Y-8100D01*
Y-4100D01*
X-17258Y-3793D01*
X-17432Y-3532D01*
X-17432Y-3532D01*
X-17732Y-3232D01*
X-17818Y-3175D01*
X-17895Y-3107D01*
X-17922Y-3097D01*
Y-3034D01*
X-17922D01*
Y903D01*
X-21465D01*
Y40D01*
X-39181D01*
Y40D01*
Y252D01*
X-39181Y394D01*
X-39181Y394D01*
X-39181D01*
Y6748D01*
X-42040D01*
X-44449Y9157D01*
X-44438Y9174D01*
X-44286Y9942D01*
Y13092D01*
X-44438Y13860D01*
X-44486Y13931D01*
Y19950D01*
X-44624Y20641D01*
X-44906Y21064D01*
X-44937Y21216D01*
X-45372Y21867D01*
X-46023Y22302D01*
X-46791Y22455D01*
X-47559Y22302D01*
X-47956Y22037D01*
X-48273Y22424D01*
X-47700Y22997D01*
X-40901D01*
X-40901Y22997D01*
X-40440Y23088D01*
X-40049Y23349D01*
X-32928Y30471D01*
X-25832D01*
X-25596Y30030D01*
X-25654Y29943D01*
X-25807Y29175D01*
X-25678Y28525D01*
X-27299Y26904D01*
X-34270D01*
X-34731Y26813D01*
X-35122Y26551D01*
X-37200Y24474D01*
X-37461Y24083D01*
X-37552Y23622D01*
X-37552Y23622D01*
Y22468D01*
X-41663D01*
Y19004D01*
X-41754Y18868D01*
X-41907Y18100D01*
X-41754Y17332D01*
X-41543Y17016D01*
Y13879D01*
X-38000D01*
Y17562D01*
X-37893Y18100D01*
X-37902Y18145D01*
X-37585Y18531D01*
X-34576D01*
Y22468D01*
X-35144D01*
Y23123D01*
X-34778Y23489D01*
X-33567Y24298D01*
X-33412Y24267D01*
X-33315Y24034D01*
X-33437Y23912D01*
X-33698Y23521D01*
X-33790Y23060D01*
X-33790Y23060D01*
Y13486D01*
X-33790Y13486D01*
X-33698Y13025D01*
X-33437Y12634D01*
X-32151Y11349D01*
X-32151Y11349D01*
X-31917Y11192D01*
X-31761Y11087D01*
X-31300Y10996D01*
X-22445D01*
X-22445Y10996D01*
X-22445Y10996D01*
X-11583D01*
X-11266Y10609D01*
X-11407Y9900D01*
X-11254Y9132D01*
X-10819Y8481D01*
X-10168Y8046D01*
X-9400Y7893D01*
X-8632Y8046D01*
X-7981Y8481D01*
X-7728Y8860D01*
X-7228D01*
X-7175Y8781D01*
X-6524Y8346D01*
X-5756Y8193D01*
X-4988Y8346D01*
X-4365Y8762D01*
X-3875Y8664D01*
X-3819Y8581D01*
X-3168Y8146D01*
X-2400Y7993D01*
X-1632Y8146D01*
X-981Y8581D01*
X-686D01*
X-619Y8481D01*
X32Y8046D01*
X800Y7893D01*
X1568Y8046D01*
X2219Y8481D01*
X2654Y9132D01*
X2807Y9900D01*
X2654Y10668D01*
X2219Y11319D01*
X2004Y11463D01*
Y12001D01*
X2424Y12421D01*
X39025D01*
X39025Y12421D01*
X39486Y12513D01*
X39877Y12774D01*
X42355Y15251D01*
X42796Y15016D01*
X42693Y14500D01*
X42846Y13732D01*
X43281Y13081D01*
X43932Y12646D01*
X44700Y12493D01*
X45468Y12646D01*
X46119Y13081D01*
X46554Y13732D01*
X46704Y14484D01*
X46718Y14498D01*
D01*
X46719Y14500D01*
X46719Y14500D01*
X46719Y14532D01*
X47935Y15748D01*
X48240Y16204D01*
X48347Y16742D01*
Y22696D01*
X48468Y22720D01*
X49119Y23156D01*
X49554Y23807D01*
X49707Y24575D01*
X49554Y25343D01*
X49119Y25994D01*
X48468Y26429D01*
X48347Y26453D01*
Y39433D01*
X48240Y39971D01*
X47935Y40426D01*
X44867Y43495D01*
X44863Y43499D01*
X44690Y43615D01*
Y46049D01*
X40753D01*
Y38962D01*
X41320D01*
Y37372D01*
X40756D01*
Y33828D01*
X44693D01*
Y37372D01*
X44130D01*
Y38962D01*
X44690D01*
Y39045D01*
X45151Y39236D01*
X45537Y38851D01*
Y28694D01*
X45075Y28503D01*
X44352Y29226D01*
X43961Y29487D01*
X43500Y29579D01*
X43500Y29579D01*
X42000D01*
X41872Y29771D01*
X41221Y30206D01*
X40453Y30359D01*
X39978Y30264D01*
X39591Y30582D01*
Y33844D01*
Y37387D01*
X39126D01*
Y38962D01*
X39690D01*
Y46049D01*
X35753D01*
Y38962D01*
X36316D01*
Y37387D01*
X35654D01*
Y33844D01*
Y31301D01*
X35176Y31155D01*
X34785Y31740D01*
X34768Y31751D01*
Y33844D01*
Y37387D01*
X34126D01*
Y38962D01*
X34690D01*
Y46049D01*
X30753D01*
Y38962D01*
X31316D01*
Y37387D01*
X30831D01*
Y33844D01*
Y30301D01*
X31363D01*
X31512Y29552D01*
X31303Y29162D01*
X25215D01*
X23925Y30453D01*
Y38962D01*
X24690D01*
Y46049D01*
X20753D01*
Y38962D01*
X21517D01*
Y29954D01*
X21517Y29954D01*
X21609Y29493D01*
X21869Y29102D01*
X22528Y28443D01*
X22337Y27981D01*
X11375D01*
X11375Y27981D01*
X10914Y27890D01*
X10914Y27890D01*
X10678Y28331D01*
X12648Y30301D01*
X14788D01*
Y33844D01*
Y37387D01*
X13925D01*
Y38962D01*
X14690D01*
Y46049D01*
X11563D01*
Y48059D01*
X11857Y48256D01*
X12292Y48907D01*
X12445Y49675D01*
X12292Y50443D01*
X12067Y50780D01*
X12303Y51221D01*
X15851D01*
X16517Y50555D01*
Y46049D01*
X15753D01*
Y38962D01*
X16517D01*
Y37387D01*
X15871D01*
Y33844D01*
X19808D01*
Y37387D01*
X18925D01*
Y38962D01*
X19690D01*
Y46049D01*
X18925D01*
Y51054D01*
X18834Y51515D01*
X18573Y51905D01*
X18144Y52334D01*
X18335Y52796D01*
X26517D01*
Y46439D01*
X26478Y46241D01*
Y46049D01*
X25753D01*
Y38962D01*
X26478D01*
Y37387D01*
X25812D01*
Y33844D01*
X29749D01*
Y37387D01*
X28925D01*
Y38962D01*
X29690D01*
Y46049D01*
X28925D01*
Y53479D01*
X28925Y53479D01*
X28925Y53479D01*
Y53479D01*
X28925D01*
X28925Y53479D01*
X28834Y53940D01*
X29478Y54371D01*
X31900D01*
X31900Y54371D01*
X32361Y54462D01*
X32752Y54723D01*
X33553Y55525D01*
X33553Y55525D01*
X33814Y55915D01*
X33814Y55915D01*
X33814Y55915D01*
X33906Y56376D01*
X33906Y56376D01*
Y60419D01*
X34690D01*
Y67506D01*
X33906D01*
Y69080D01*
X34571D01*
Y72624D01*
X30634D01*
Y69080D01*
X31497D01*
Y67506D01*
X30753D01*
Y60419D01*
X31497D01*
Y56875D01*
X31401Y56779D01*
X30583D01*
X30354Y57207D01*
X30507Y57975D01*
X30354Y58743D01*
X29919Y59394D01*
X29268Y59829D01*
X28804Y59921D01*
X28853Y60419D01*
X29690D01*
Y67506D01*
X28925D01*
Y69080D01*
X29552D01*
Y72624D01*
Y76164D01*
X35654D01*
Y72624D01*
Y69080D01*
X36316D01*
Y67506D01*
X35753D01*
Y60419D01*
X39690D01*
Y67506D01*
X39126D01*
Y69080D01*
X39591D01*
Y72624D01*
Y76167D01*
X38925D01*
Y76753D01*
X38925Y76753D01*
X38834Y77214D01*
X38573Y77605D01*
X38367Y77810D01*
X38416Y78308D01*
X38526Y78381D01*
X38961Y79032D01*
X39113Y79800D01*
X38961Y80568D01*
X38526Y81219D01*
X37874Y81654D01*
X37106Y81807D01*
X36338Y81654D01*
X35687Y81219D01*
X35074Y81629D01*
X34200Y82503D01*
X34391Y82965D01*
X34772D01*
Y86508D01*
Y90052D01*
X32637D01*
X32537Y90152D01*
X32146Y90413D01*
X31685Y90504D01*
X31685Y90504D01*
X20993D01*
Y91705D01*
X16404D01*
Y93000D01*
X16313Y93461D01*
X16051Y93852D01*
X14451Y95451D01*
X14061Y95713D01*
X13600Y95804D01*
X13600Y95804D01*
X7129D01*
Y109344D01*
X7129Y109344D01*
X7037Y109805D01*
X6776Y110195D01*
X6776Y110196D01*
X4045Y112926D01*
X3654Y113187D01*
X3193Y113279D01*
X3193Y113279D01*
X-27305D01*
X-27622Y113666D01*
X-27593Y113811D01*
X-27746Y114579D01*
X-28181Y115230D01*
X-28832Y115665D01*
X-29600Y115818D01*
X-30368Y115665D01*
X-31019Y115230D01*
X-31454Y114579D01*
X-31607Y113811D01*
X-31454Y113043D01*
X-31335Y112864D01*
X-31526Y112402D01*
X-31768Y112354D01*
X-32419Y111919D01*
X-32854Y111268D01*
X-33007Y110500D01*
X-32854Y109732D01*
X-32599Y109350D01*
X-32834Y108908D01*
X-34396D01*
X-34396Y108908D01*
X-34857Y108817D01*
X-35247Y108556D01*
X-35247Y108556D01*
X-39969Y103834D01*
X-40368Y104135D01*
X-39471Y105758D01*
X-38264Y108672D01*
X-37391Y111702D01*
X-37391D01*
X-37391Y111702D01*
D01*
X-36863Y114811D01*
X-36863Y114811D01*
X-36861Y114853D01*
X-36861Y114853D01*
X-36861D01*
X-36890Y114893D01*
X-36867Y115010D01*
X-36910Y115226D01*
X-29623Y184829D01*
X-17242D01*
Y168674D01*
X-17336Y168534D01*
X-17443Y167996D01*
X-17336Y167458D01*
X-17031Y167003D01*
X-16576Y166698D01*
X-16038Y166591D01*
X-4534D01*
Y163998D01*
X-4754Y163668D01*
X-4907Y162900D01*
X-4754Y162132D01*
X-4319Y161481D01*
X-3668Y161046D01*
X-2900Y160893D01*
X-2132Y161046D01*
X-2089Y161074D01*
X-1648Y160838D01*
Y160133D01*
X-1819Y160019D01*
X-2254Y159368D01*
X-2407Y158600D01*
X-2254Y157832D01*
X-1819Y157181D01*
X-1168Y156746D01*
X-400Y156593D01*
X368Y156746D01*
X781Y156525D01*
Y155690D01*
X411Y155354D01*
X-50Y155399D01*
X-1555Y155251D01*
X-3002Y154812D01*
X-4335Y154099D01*
X-5505Y153140D01*
X-6464Y151971D01*
X-7177Y150637D01*
X-7616Y149190D01*
X-7764Y147685D01*
X-7753Y147574D01*
Y143735D01*
X-7838Y143307D01*
X-7841Y143307D01*
X-7854Y143184D01*
X-7705Y141679D01*
X-7266Y140232D01*
X-6554Y138898D01*
X-5594Y137729D01*
X-4425Y136769D01*
X-3091Y136057D01*
X-1644Y135618D01*
X-139Y135469D01*
X1366Y135618D01*
X2813Y136057D01*
X4147Y136769D01*
X5316Y137729D01*
X6275Y138898D01*
X6988Y140232D01*
X7427Y141679D01*
X7536Y142792D01*
X7603Y142891D01*
X7705Y143407D01*
X7755Y143397D01*
X17400D01*
X17707Y143458D01*
X17968Y143632D01*
X18142Y143893D01*
X18203Y144200D01*
Y150897D01*
X26000D01*
X26307Y150958D01*
X26568Y151132D01*
X26568Y151132D01*
X27568Y152132D01*
X27742Y152393D01*
X27803Y152700D01*
Y160000D01*
X27742Y160307D01*
X27568Y160568D01*
X25968Y162168D01*
X25707Y162342D01*
X25400Y162403D01*
X10487D01*
X10376Y162768D01*
X10674Y163170D01*
X11411D01*
Y166591D01*
X15458D01*
X15996Y166698D01*
X16452Y167003D01*
X16756Y167458D01*
X16863Y167996D01*
X16756Y168534D01*
X16662Y168674D01*
Y184829D01*
X29657D01*
X36867Y115952D01*
D02*
G37*
G36*
X-48942Y49686D02*
X-48942D01*
X-48789Y48520D01*
Y45981D01*
D01*
Y45981D01*
X-48903Y45867D01*
X-52316D01*
Y43843D01*
X-52405Y43710D01*
X-52497Y43249D01*
X-52497Y43249D01*
Y36702D01*
X-52712Y36558D01*
X-53147Y35907D01*
X-53300Y35139D01*
Y31989D01*
X-53147Y31221D01*
X-52712Y30570D01*
X-52061Y30135D01*
X-51293Y29982D01*
X-50524Y30135D01*
X-49873Y30570D01*
X-49438Y31221D01*
X-49286Y31989D01*
Y35139D01*
X-49438Y35907D01*
X-49873Y36558D01*
X-50088Y36702D01*
Y37895D01*
X-48205D01*
Y35613D01*
X-48300Y35139D01*
Y31989D01*
X-48147Y31221D01*
X-47712Y30570D01*
X-47061Y30135D01*
X-46293Y29982D01*
X-45525Y30135D01*
X-44884Y30563D01*
X-44828Y30526D01*
X-44367Y30434D01*
X-44367Y30434D01*
X-41864D01*
X-41864Y30434D01*
X-41412Y30524D01*
X-41176Y30083D01*
X-42704Y28555D01*
X-49504D01*
X-49504Y28555D01*
X-49964Y28463D01*
X-50355Y28202D01*
X-50355Y28202D01*
X-53553Y25004D01*
X-63593D01*
X-63920Y25331D01*
Y28942D01*
X-68457D01*
Y29331D01*
X-68457D01*
Y30194D01*
X-67703D01*
X-67703Y30194D01*
X-67243Y30286D01*
X-66852Y30547D01*
X-63148Y34250D01*
X-63148Y34250D01*
X-62887Y34641D01*
X-62887Y34641D01*
X-62887Y34641D01*
X-62796Y35102D01*
X-62796Y35102D01*
Y41946D01*
X-62371D01*
Y41946D01*
X-58828D01*
Y41946D01*
X-58812D01*
Y41832D01*
X-58812D01*
Y37895D01*
X-58233D01*
Y35476D01*
X-58300Y35139D01*
Y31989D01*
X-58147Y31221D01*
X-57712Y30570D01*
X-57061Y30135D01*
X-56293Y29982D01*
X-55524Y30135D01*
X-54873Y30570D01*
X-54438Y31221D01*
X-54286Y31989D01*
Y35139D01*
X-54438Y35907D01*
X-54873Y36558D01*
X-55088Y36702D01*
Y43151D01*
X-55180Y43611D01*
X-55285Y43768D01*
X-55285Y43768D01*
Y45883D01*
X-55285D01*
Y46204D01*
X-55257Y46231D01*
X-55257D01*
Y49696D01*
X-48942D01*
Y49686D01*
D02*
G37*
%LPC*%
G36*
X31596Y-11695D02*
X28053D01*
Y-14922D01*
X27846Y-15232D01*
X27693Y-16000D01*
X27846Y-16768D01*
X28150Y-17224D01*
X27754Y-17817D01*
X27601Y-18585D01*
Y-24097D01*
X27754Y-24865D01*
X28189Y-25516D01*
X28840Y-25951D01*
X29608Y-26104D01*
X30376Y-25951D01*
X31027Y-25516D01*
X31462Y-24865D01*
X31615Y-24097D01*
Y-18585D01*
X31462Y-17817D01*
X31158Y-17361D01*
X31554Y-16768D01*
X31707Y-16000D01*
X31596Y-15442D01*
Y-11695D01*
D02*
G37*
G36*
X-85275Y-26978D02*
X-91574D01*
Y-32096D01*
X-89629D01*
Y-34253D01*
X-89819Y-34381D01*
X-90254Y-35032D01*
X-90407Y-35800D01*
X-90254Y-36568D01*
X-89819Y-37219D01*
X-89168Y-37654D01*
X-88400Y-37807D01*
X-87632Y-37654D01*
X-86981Y-37219D01*
X-86546Y-36568D01*
X-86393Y-35800D01*
X-86546Y-35032D01*
X-86981Y-34381D01*
X-87220Y-34221D01*
Y-32096D01*
X-85275D01*
Y-26978D01*
D02*
G37*
G36*
X-7900Y-17393D02*
X-8668Y-17546D01*
X-9319Y-17981D01*
X-9754Y-18632D01*
X-9907Y-19400D01*
X-9754Y-20168D01*
X-9671Y-20293D01*
X-9801Y-20947D01*
Y-24097D01*
X-9648Y-24865D01*
X-9213Y-25516D01*
X-8562Y-25951D01*
X-7794Y-26104D01*
X-7026Y-25951D01*
X-6374Y-25516D01*
X-5939Y-24865D01*
X-5787Y-24097D01*
Y-20947D01*
X-5939Y-20179D01*
X-6023Y-20054D01*
X-5893Y-19400D01*
X-6046Y-18632D01*
X-6481Y-17981D01*
X-7132Y-17546D01*
X-7900Y-17393D01*
D02*
G37*
G36*
X2300D02*
X1532Y-17546D01*
X881Y-17981D01*
X446Y-18632D01*
X293Y-19400D01*
X426Y-20068D01*
X352Y-20179D01*
X199Y-20947D01*
Y-24097D01*
X352Y-24865D01*
X787Y-25516D01*
X1438Y-25951D01*
X2206Y-26104D01*
X2974Y-25951D01*
X3625Y-25516D01*
X4061Y-24865D01*
X4213Y-24097D01*
Y-20947D01*
X4080Y-20279D01*
X4154Y-20168D01*
X4307Y-19400D01*
X4154Y-18632D01*
X3719Y-17981D01*
X3068Y-17546D01*
X2300Y-17393D01*
D02*
G37*
G36*
X44611Y72624D02*
X40674D01*
Y69080D01*
X41517D01*
Y67506D01*
X40753D01*
Y60419D01*
X41195D01*
X41387Y59957D01*
X40409Y58979D01*
X39263D01*
X39119Y59194D01*
X38468Y59629D01*
X37700Y59782D01*
X36932Y59629D01*
X36281Y59194D01*
X35846Y58543D01*
X35693Y57775D01*
X35846Y57007D01*
X36281Y56356D01*
X36932Y55920D01*
X37700Y55768D01*
X38468Y55920D01*
X39119Y56356D01*
X39263Y56571D01*
X40907D01*
X40908Y56571D01*
X41368Y56662D01*
X41759Y56923D01*
X43573Y58737D01*
X43573Y58737D01*
X43834Y59127D01*
X43834Y59127D01*
X43834Y59127D01*
X43925Y59588D01*
X43925Y59588D01*
Y60419D01*
X44690D01*
Y67506D01*
X43925D01*
Y69080D01*
X44611D01*
Y72624D01*
D02*
G37*
G36*
X43013Y-12089D02*
X39470D01*
Y-15666D01*
X39387Y-15790D01*
X39235Y-16558D01*
X39253Y-16649D01*
X38840Y-16731D01*
X38189Y-17166D01*
X37754Y-17817D01*
X37601Y-18585D01*
Y-24097D01*
X37754Y-24865D01*
X38189Y-25516D01*
X38840Y-25951D01*
X39608Y-26104D01*
X40376Y-25951D01*
X41027Y-25516D01*
X41462Y-24865D01*
X41615Y-24097D01*
Y-18585D01*
X41597Y-18495D01*
X42010Y-18413D01*
X42661Y-17977D01*
X43096Y-17326D01*
X43249Y-16558D01*
X43096Y-15790D01*
X43013Y-15666D01*
Y-12089D01*
D02*
G37*
G36*
X-45100Y-17093D02*
X-45868Y-17246D01*
X-46519Y-17681D01*
X-46954Y-18332D01*
X-47107Y-19100D01*
X-46954Y-19868D01*
X-46898Y-19952D01*
X-47049Y-20179D01*
X-47202Y-20947D01*
Y-24097D01*
X-47049Y-24865D01*
X-46615Y-25516D01*
X-45963Y-25951D01*
X-45195Y-26104D01*
X-44427Y-25951D01*
X-43776Y-25516D01*
X-43341Y-24865D01*
X-43188Y-24097D01*
Y-20947D01*
X-43341Y-20179D01*
X-43397Y-20095D01*
X-43246Y-19868D01*
X-43093Y-19100D01*
X-43246Y-18332D01*
X-43681Y-17681D01*
X-44332Y-17246D01*
X-45100Y-17093D01*
D02*
G37*
G36*
X-35195Y-17193D02*
X-35963Y-17346D01*
X-36615Y-17781D01*
X-37050Y-18432D01*
X-37202Y-19200D01*
X-37050Y-19968D01*
X-36979Y-20074D01*
X-37050Y-20179D01*
X-37202Y-20947D01*
Y-24097D01*
X-37050Y-24865D01*
X-36615Y-25516D01*
X-35963Y-25951D01*
X-35195Y-26104D01*
X-34427Y-25951D01*
X-33776Y-25516D01*
X-33341Y-24865D01*
X-33188Y-24097D01*
Y-20947D01*
X-33341Y-20179D01*
X-33411Y-20074D01*
X-33341Y-19968D01*
X-33188Y-19200D01*
X-33341Y-18432D01*
X-33776Y-17781D01*
X-34427Y-17346D01*
X-35195Y-17193D01*
D02*
G37*
%LPD*%
D10*
X-44858Y92015D02*
G03*
X-69313Y75323I44875J-92001D01*
G01*
X-46446Y93427D02*
G03*
X-71353Y76114I46463J-93414D01*
G01*
X30257Y-16557D02*
G03*
X29608Y-18123I1567J-1567D01*
G01*
Y-17679D02*
G03*
X29143Y-16557I-1586J0D01*
G01*
Y-15443D02*
G03*
X29608Y-14321I-1122J1122D01*
G01*
Y-13877D02*
G03*
X30257Y-15443I2215J0D01*
G01*
X41242Y-17346D02*
G03*
X39898Y-17902I0J-1901D01*
G01*
X39898Y-17902D02*
G03*
X40454Y-16558I-1344J1344D01*
G01*
X40685Y-16002D02*
G03*
X41242Y-14657I-1344J1344D01*
G01*
D02*
G03*
X41798Y-16002I1901J0D01*
G01*
X-44543Y-19657D02*
G03*
X-45195Y-21231I1574J-1574D01*
G01*
Y-20771D02*
G03*
X-45657Y-19657I-1576J0D01*
G01*
X-34639Y-19757D02*
G03*
X-35195Y-21101I1344J-1344D01*
G01*
D02*
G03*
X-35752Y-19757I-1901J0D01*
G01*
X54447Y29458D02*
G03*
X55004Y30802I-1344J1344D01*
G01*
D02*
G03*
X55561Y29458I1901J0D01*
G01*
X54426Y29435D02*
G03*
X54647Y30332I-702J649D01*
G01*
D02*
G03*
X55278Y29639I986J264D01*
G01*
X55561Y28344D02*
G03*
X55004Y27000I1344J-1344D01*
G01*
D02*
G03*
X54447Y28344I-1901J0D01*
G01*
X55312Y30944D02*
G03*
X55004Y30200I744J-744D01*
G01*
Y29000D02*
G03*
X54199Y30944I-2749J0D01*
G01*
Y32057D02*
G03*
X55004Y34001I-1944J1944D01*
G01*
Y32802D02*
G03*
X55312Y32057I1053J0D01*
G01*
X54443Y32223D02*
G03*
X54775Y32910I-232J536D01*
G01*
X55004Y32055D02*
G03*
X54127Y34172I-2993J0D01*
G01*
Y35285D02*
G03*
X55004Y37401I-2116J2116D01*
G01*
Y38079D02*
G03*
X54476Y39354I-1804J0D01*
G01*
X55004Y36178D02*
G03*
X53919Y38797I-3705J0D01*
G01*
X54476Y39354D02*
G03*
X55004Y40630I-1276J1276D01*
G01*
X53919Y39911D02*
G03*
X55004Y42531I-2620J2620D01*
G01*
X-11702Y18116D02*
G03*
X-9886Y19140I0J2122D01*
G01*
X-13097Y18116D02*
G03*
X-10560Y19547I0J2965D01*
G01*
X-10050Y18370D02*
G03*
X-10910Y18116I-196J-918D01*
G01*
D02*
G03*
X-10656Y18976I-664J664D01*
G01*
X41495Y24744D02*
G03*
X42721Y24275I1138J1138D01*
G01*
X40249Y25990D02*
G03*
X42678Y25061I2254J2254D01*
G01*
X42567Y23503D02*
G03*
X41680Y23234I-192J-963D01*
G01*
D02*
G03*
X41949Y24121I-695J695D01*
G01*
X6381Y77196D02*
G03*
X5400Y76875I-173J-1130D01*
G01*
X5400Y76875D02*
G03*
X5722Y77856I-808J808D01*
G01*
X-4922Y66853D02*
G03*
X-5700Y64975I1878J-1878D01*
G01*
X-3578Y68197D02*
G03*
X-4913Y64975I3222J-3222D01*
G01*
X4843Y65832D02*
G03*
X5400Y67176I-1344J1344D01*
G01*
D02*
G03*
X5957Y65832I1901J0D01*
G01*
X2372Y47747D02*
G03*
X2528Y49064I-758J758D01*
G01*
X69821Y32344D02*
G03*
X68477Y32901I-1344J-1344D01*
G01*
D02*
G03*
X69821Y33457I0J1901D01*
G01*
X-8957Y74432D02*
G03*
X-8400Y75776I-1344J1344D01*
G01*
D02*
G03*
X-7843Y74432I1901J0D01*
G01*
X7579Y31062D02*
G03*
X8923Y31619I0J1901D01*
G01*
X8923Y31619D02*
G03*
X8366Y30275I1344J-1344D01*
G01*
X4000Y31162D02*
G03*
X5241Y31676I0J1755D01*
G01*
X5387Y31822D02*
G03*
X4787Y30375I1448J-1448D01*
G01*
X4000Y31162D02*
G03*
X5344Y31719I0J1901D01*
G01*
X5344Y31719D02*
G03*
X4787Y30375I1344J-1344D01*
G01*
X4561Y31736D02*
G03*
X4000Y30375I1356J-1356D01*
G01*
X5900Y33075D02*
G03*
X4787Y30377I2686J-2686D01*
G01*
X7964Y24566D02*
G03*
X8711Y24763I204J740D01*
G01*
X8711Y24763D02*
G03*
X8514Y24016I543J-543D01*
G01*
X32701Y32072D02*
G03*
X33512Y31094I995J0D01*
G01*
X32740Y30798D02*
G03*
X32701Y31379I-351J268D01*
G01*
X32701Y31379D02*
G03*
X33361Y31108I654J654D01*
G01*
X37615Y18513D02*
G03*
X36509Y18116I-132J-1371D01*
G01*
D02*
G03*
X36906Y19222I-974J974D01*
G01*
X20907Y18513D02*
G03*
X19801Y18116I-132J-1371D01*
G01*
D02*
G03*
X20198Y19222I-974J974D01*
G01*
X-27237Y17756D02*
G03*
X-28106Y18116I-869J-869D01*
G01*
X-29056D02*
G03*
X-27237Y18869I0J2573D01*
G01*
X-17822Y59651D02*
G03*
X-19251Y59349I-483J-1248D01*
G01*
X-18106Y58917D02*
G03*
X-20106Y58494I-675J-1747D01*
G01*
X-43800Y38323D02*
G03*
X-43200Y36875I2049J0D01*
G01*
X-43800Y40224D02*
G03*
X-42643Y37432I3949J0D01*
G01*
X-41857Y51832D02*
G03*
X-41300Y53176I-1344J1344D01*
G01*
D02*
G03*
X-40743Y51832I1901J0D01*
G01*
X5743Y60632D02*
G03*
X6300Y61976I-1344J1344D01*
G01*
D02*
G03*
X6857Y60632I1901J0D01*
G01*
X-14343Y68618D02*
G03*
X-15342Y66207I2411J-2411D01*
G01*
X-30766Y35600D02*
G03*
X-33000Y34675I0J-3159D01*
G01*
X-28865Y35600D02*
G03*
X-32443Y34118I0J-5060D01*
G01*
X-32769Y35427D02*
G03*
X-32075Y35600I204J663D01*
G01*
X-32075Y35600D02*
G03*
X-32247Y34906I490J-490D01*
G01*
X-19743Y69218D02*
G03*
X-20300Y67874I1344J-1344D01*
G01*
D02*
G03*
X-20857Y69218I-1901J0D01*
G01*
Y70332D02*
G03*
X-20300Y71676I-1344J1344D01*
G01*
D02*
G03*
X-19743Y70332I1901J0D01*
G01*
X-19046Y26338D02*
G03*
X-19439Y24877I1072J-1072D01*
G01*
X-83900Y-60100D02*
G03*
X-82674Y-60608I1226J1226D01*
G01*
X-83343Y-59543D02*
G03*
X-80773Y-60608I2570J2570D01*
G01*
X79656Y-54244D02*
G03*
X78100Y-53600I-1556J-1556D01*
G01*
X81000Y-55589D02*
G03*
X78100Y-54387I-2900J-2900D01*
G01*
X77313Y-53600D02*
G03*
X76756Y-52256I-1901J0D01*
G01*
X76756Y-52256D02*
G03*
X78100Y-52813I1344J1344D01*
G01*
X-1175Y-94749D02*
G03*
X-1914Y-93622I-1229J0D01*
G01*
X70947Y-52734D02*
G03*
X73039Y-53600I2091J2091D01*
G01*
X71544D02*
G03*
X70947Y-53847I0J-844D01*
G01*
X76900Y-45913D02*
G03*
X78244Y-45356I0J1901D01*
G01*
X78244Y-45356D02*
G03*
X77687Y-46700I1344J-1344D01*
G01*
X-9957Y10457D02*
G03*
X-9400Y11801I-1344J1344D01*
G01*
D02*
G03*
X-8843Y10457I1901J0D01*
G01*
X-6313Y10757D02*
G03*
X-5617Y12436I-1679J1679D01*
G01*
Y11766D02*
G03*
X-5199Y10757I1428J0D01*
G01*
X-2957Y10557D02*
G03*
X-2500Y11660I-1103J1103D01*
G01*
Y12142D02*
G03*
X-1843Y10557I2242J0D01*
G01*
X1543Y163457D02*
G03*
X2159Y164944I-1487J1487D01*
G01*
Y164658D02*
G03*
X2657Y163457I1699J0D01*
G01*
X-3457D02*
G03*
X-2959Y164658I-1202J1202D01*
G01*
Y164944D02*
G03*
X-2343Y163457I2103J0D01*
G01*
X-30443Y111057D02*
G03*
X-29099Y110500I1344J1344D01*
G01*
D02*
G03*
X-30443Y109943I0J-1901D01*
G01*
X-92309Y-44501D02*
G03*
X-91100Y-44000I0J1710D01*
G01*
X-94210Y-44501D02*
G03*
X-91657Y-43443I0J3611D01*
G01*
X-91900Y-13400D02*
G03*
X-89701Y-12537I111J2952D01*
G01*
X-91870Y-12613D02*
G03*
X-88424Y-11261I173J4625D01*
G01*
X-91211Y-13018D02*
G03*
X-90564Y-13400I647J359D01*
G01*
D02*
G03*
X-91211Y-13781I0J-740D01*
G01*
X-96800Y36813D02*
G03*
X-98998Y35902I0J-3108D01*
G01*
X-95102Y39798D02*
G03*
X-96013Y37600I2198J-2198D01*
G01*
X-90400Y4987D02*
G03*
X-89056Y5544I0J1901D01*
G01*
X-89056Y5544D02*
G03*
X-89613Y4200I1344J-1344D01*
G01*
X-39343Y17543D02*
G03*
X-39891Y16220I1324J-1324D01*
G01*
Y16178D02*
G03*
X-40457Y17543I-1930J0D01*
G01*
Y18657D02*
G03*
X-39891Y20022I-1365J1365D01*
G01*
Y19980D02*
G03*
X-39343Y18657I1872J0D01*
G01*
X-19700Y161500D02*
G03*
X-20577Y159382I2118J-2118D01*
G01*
X-19143Y160943D02*
G03*
X-20577Y157481I3462J-3462D01*
G01*
Y163618D02*
G03*
X-19700Y161500I2995J0D01*
G01*
X-20577Y165519D02*
G03*
X-19143Y162057I4896J0D01*
G01*
X-47117Y50543D02*
G03*
X-47980Y50900I-863J-863D01*
G01*
X-48942D02*
G03*
X-47117Y51656I0J2582D01*
G01*
X36549Y79243D02*
G03*
X35205Y79800I-1344J-1344D01*
G01*
D02*
G03*
X36549Y80357I0J1901D01*
G01*
X-32900Y54000D02*
G03*
X-31264Y54412I473J1576D01*
G01*
X-32674Y54754D02*
G03*
X-30332Y55345I677J2256D01*
G01*
X-32183Y54326D02*
G03*
X-31677Y54000I507J230D01*
G01*
D02*
G03*
X-32183Y53674I0J-557D01*
G01*
X-86447Y61849D02*
G03*
X-73482Y76493I3363J10084D01*
G01*
X-86450Y61849D02*
G03*
X-86447Y61849I3366J10083D01*
G01*
X-86300Y62053D02*
G03*
X-86447Y61849I86317J-62040D01*
G01*
X-99286Y37940D02*
G03*
X-99462Y37478I99303J-37927D01*
G01*
D02*
G03*
X-99700Y36839I99478J-37464D01*
G01*
X-86447Y61849D02*
G03*
X-99286Y37940I86463J-61835D01*
G01*
X-77439Y52254D02*
G03*
X-62657Y73303I-5645J19679D01*
G01*
X-80474Y53216D02*
G03*
X-64303Y74029I-2610J18717D01*
G01*
X-42939Y86377D02*
G03*
X-62641Y73348I42955J-86364D01*
G01*
X-43883Y87666D02*
G03*
X-64256Y74035I43900J-87653D01*
G01*
X-57956Y-88145D02*
G03*
X-44106Y-95830I57973J88158D01*
G01*
X-99793Y-36761D02*
G03*
X-85881Y-62805I99809J36574D01*
G01*
X98239Y39615D02*
G03*
X90941Y54316I-98223J-39601D01*
G01*
X-98038Y-36964D02*
G03*
X-87639Y-57491I98054J36777D01*
G01*
X-85869Y59247D02*
G03*
X-93377Y46517I85885J-59234D01*
G01*
X77826Y-71249D02*
G03*
X89646Y-55658I-77810J71263D01*
G01*
X77826Y-71249D02*
G03*
X89646Y-55658I-77810J71263D01*
G01*
D02*
G03*
X96364Y-42997I-89629J55672D01*
G01*
X-85785Y59627D02*
G03*
X-71113Y75858I2701J12306D01*
G01*
X-46581Y95555D02*
G03*
X-73640Y76657I46597J-95542D01*
G01*
X-84935Y57824D02*
G03*
X-90791Y48104I84951J-57810D01*
G01*
X-84694Y57851D02*
G03*
X-69327Y75342I1610J14082D01*
G01*
X13128Y-88925D02*
X16459Y-85594D01*
X13128Y-88925D02*
X13636D01*
X-17721D02*
X13128D01*
X16459Y-85594D02*
X50451D01*
X13636Y-88925D02*
X16756Y-85805D01*
X52650Y-83395D02*
Y-73050D01*
X17619Y-87169D02*
X51104D01*
X4100Y-90500D02*
X14289D01*
X17619Y-87169D01*
X51104D02*
X54225Y-84048D01*
Y-74648D01*
X16300Y-99400D02*
X17234Y-98466D01*
Y-89782D01*
X5500Y-99400D02*
X16300D01*
X-20100D02*
X5500D01*
X18272Y-88744D02*
X51756D01*
X17234Y-89782D02*
X18272Y-88744D01*
X51756D02*
X55800Y-84700D01*
X-42842Y86358D02*
X-31100Y98100D01*
X-42920Y86358D02*
X-42842D01*
X-16100Y98100D02*
X-14507Y96507D01*
X-31100Y98100D02*
X-16100D01*
X-14507Y96507D02*
X-10634D01*
X-15521Y100210D02*
X-13393Y98082D01*
X-31337Y100210D02*
X-15521D01*
X-43829Y87719D02*
X-31337Y100210D01*
X-13393Y98082D02*
X-9982D01*
X-14600Y104300D02*
X-11925Y101625D01*
X-32518Y104300D02*
X-14600D01*
X-35193Y101625D02*
X-32518Y104300D01*
X-35248Y101625D02*
X-35193D01*
X-44858Y92015D02*
X-35248Y101625D01*
X-11925D02*
X-3334D01*
X-33773Y106100D02*
X-14029D01*
X-46446Y93427D02*
X-33773Y106100D01*
X-14000Y106129D02*
X-11071Y103200D01*
X-14029Y106100D02*
X-14000Y106129D01*
X-11071Y103200D02*
X-4972D01*
X-444Y158344D02*
Y165882D01*
X-2959Y162900D02*
Y165926D01*
X-46500Y95600D02*
X-34396Y107704D01*
X-10090D01*
X-8885Y106500D01*
X-8318D01*
X-72197Y25503D02*
X-71400Y26300D01*
X-72197Y10403D02*
Y25503D01*
X-73853Y8747D02*
X-72197Y10403D01*
X-71400Y26300D02*
Y30227D01*
X-1457Y23918D02*
X4000D01*
X-4701Y20675D02*
X-1457Y23918D01*
X-5617Y20675D02*
X-4701D01*
X11588Y24763D02*
X12028Y25202D01*
X7755Y23807D02*
X8711Y24763D01*
X11588D01*
X12028Y25202D02*
X19152D01*
X-19046Y26338D02*
X-19000Y26384D01*
X-22150Y23234D02*
X-19046Y26338D01*
X5948D02*
X10936D01*
X-19046D02*
X5948D01*
X-26877Y22739D02*
X-21658Y27958D01*
X6555D01*
X6600Y27913D01*
X8557D01*
X-22940Y23234D02*
X-22150D01*
X10936Y26338D02*
X11375Y26777D01*
X8557Y27913D02*
X12717Y32072D01*
X12721D01*
X-31677Y54000D02*
X-30332Y55345D01*
X-32900Y54000D02*
X-31677D01*
X-30332Y55345D02*
X-14430D01*
X-29502Y85012D02*
X-15021D01*
X-14802Y84792D01*
X-40700Y69300D02*
Y82600D01*
X-33392Y89908D01*
X-3700Y84900D02*
Y88709D01*
X-4899Y89908D02*
X-3700Y88709D01*
X-33392Y89908D02*
X-4899D01*
X29000Y13625D02*
Y22091D01*
X30143Y23234D01*
X34146D01*
X29000Y13625D02*
X39025D01*
X1925D02*
X29000D01*
X-58761Y-58528D02*
X-57760Y-57528D01*
X-62558Y-58528D02*
X-58761D01*
X-74200Y-55000D02*
X-73468Y-55732D01*
X-73448D01*
X-54650Y-74529D01*
Y-84700D02*
Y-74529D01*
X-77627Y-55000D02*
X-74200D01*
X-75480Y-57307D02*
X-74100D01*
X-75599D02*
X-75480D01*
X-77206Y-58913D02*
X-75599Y-57307D01*
X-77087Y-58913D02*
X-75480Y-57307D01*
X-74100D02*
X-71312Y-60095D01*
Y-60961D02*
Y-60095D01*
Y-60961D02*
X-56225Y-76048D01*
Y-85724D02*
Y-76048D01*
X-74581Y-61419D02*
X-73081D01*
X-57800Y-76700D01*
Y-88200D02*
Y-76700D01*
X1975Y-92625D02*
X4100Y-90500D01*
X-78800Y27300D02*
X-77900Y28200D01*
X-83310Y27300D02*
X-78800D01*
X-77900Y28200D02*
Y31300D01*
X-83109Y27100D02*
X-82728Y26719D01*
X-83310Y27300D02*
X-83109Y27100D01*
X-89400D02*
X-83109D01*
X-89600Y27300D02*
X-89400Y27100D01*
X-77900Y31300D02*
X-75439Y33761D01*
X-68339D01*
X-82728Y20278D02*
Y26719D01*
X-89600Y27300D02*
X-83310D01*
X35200Y79800D02*
X37106D01*
X32706Y82294D02*
X35200Y79800D01*
X32706Y82294D02*
Y84737D01*
X14700Y75970D02*
X16098Y77368D01*
X11268Y75970D02*
X14700D01*
X8125Y72827D02*
X11268Y75970D01*
X16098Y77368D02*
X37106D01*
X8125Y63943D02*
Y72827D01*
X-40700Y69300D02*
X-39700Y68300D01*
X-35400D01*
X-34800Y67700D01*
Y66732D02*
Y67700D01*
Y66732D02*
X-33255Y65187D01*
X-46759Y50900D02*
X-46560Y51099D01*
X-59550Y50900D02*
X-46759D01*
X-60572Y49878D02*
X-59550Y50900D01*
X-60572Y48102D02*
Y49878D01*
X-48200Y52800D02*
X-45500Y55500D01*
X-61392Y52800D02*
X-48200D01*
X-65600Y48592D02*
X-61392Y52800D01*
X-45500Y55500D02*
Y63300D01*
X-56529Y-1164D02*
X-52736D01*
X-57944Y251D02*
Y3014D01*
Y251D02*
X-56529Y-1164D01*
X-52736D02*
X-19694D01*
X-57944Y3014D02*
X-53484D01*
X-57944D02*
X-56293Y4666D01*
Y11517D01*
X-51293Y4366D02*
Y11517D01*
Y4366D02*
X-49928Y3002D01*
X-65600Y36500D02*
Y48592D01*
X-57028Y43886D02*
X-56293Y43151D01*
X-57056Y43914D02*
X-57028Y43886D01*
X-56293Y33564D02*
Y43151D01*
X-57028Y43886D02*
Y48102D01*
Y34300D02*
Y43886D01*
Y34300D02*
X-56293Y33564D01*
X-63160Y-48212D02*
X-56958D01*
X-67460D02*
X-67141Y-48530D01*
Y-51232D02*
Y-48530D01*
X-69388Y-48212D02*
X-63160D01*
X-63008Y-48364D01*
Y-51228D02*
Y-48364D01*
X-71400Y30227D02*
X-70228Y31398D01*
X-73853Y-43746D02*
Y8747D01*
Y-43746D02*
X-69388Y-48212D01*
X-39891Y16066D02*
Y20402D01*
X-36348D02*
Y23622D01*
X-34270Y25700D01*
X-39891Y16066D02*
X-39772Y15946D01*
X-23800Y28700D02*
Y29175D01*
X-26800Y25700D02*
X-23800Y28700D01*
X-34270Y25700D02*
X-26800D01*
X-99700Y36839D02*
Y37000D01*
Y35636D02*
Y36839D01*
X-99462Y35874D02*
Y37478D01*
X-99600Y35300D02*
X-93719Y41181D01*
X-88424Y6176D02*
Y6739D01*
X-90400Y4200D02*
X-88424Y6176D01*
X-90564Y-13400D02*
X-88424Y-11261D01*
X-91900Y-13400D02*
X-90564D01*
X-94840Y-44501D02*
X-91601D01*
X-91100Y-44000D01*
X-88424Y-35776D02*
X-88400Y-35800D01*
X-88424Y-35776D02*
Y-29537D01*
Y-21663D02*
X-84763D01*
X-81828Y-18728D01*
Y-17025D01*
X-88424Y-3387D02*
X-84187D01*
X-82128Y-1328D01*
Y1176D01*
X-92876Y2500D02*
Y29586D01*
Y2500D02*
X-91552Y1176D01*
X-85672D01*
X-94451Y-16249D02*
X-93675Y-17025D01*
X-85372D01*
X-94451Y-16249D02*
Y30238D01*
X-88424Y14613D02*
X-86272Y16766D01*
Y20278D01*
X-68339Y33761D02*
X-65600Y36500D01*
X-45500Y63300D02*
X-43400Y65400D01*
X-41100D01*
X-77439Y51439D02*
Y52254D01*
X-92876Y29586D02*
X-87647Y34815D01*
X-81585D01*
X-73853Y42546D01*
Y47854D01*
X-77439Y51439D02*
X-73853Y47854D01*
X-81000Y52690D02*
X-80474Y53216D01*
X-81000Y51906D02*
Y52690D01*
X-94451Y30238D02*
X-88299Y36390D01*
X-82504D01*
X-75428Y43466D01*
Y46334D01*
X-81000Y51906D02*
X-75428Y46334D01*
X-10634Y96507D02*
X-8100Y93972D01*
X-372D01*
X-7447Y95547D02*
X280D01*
X-9982Y98082D02*
X-7447Y95547D01*
X-372Y93972D02*
X1200Y92400D01*
Y62375D02*
Y92400D01*
X7900Y85442D02*
X18800D01*
X6564D02*
X7900D01*
Y84862D02*
Y85442D01*
X18237Y84879D02*
X18800Y85442D01*
X18237Y83240D02*
Y84879D01*
X18800Y85442D02*
X22945D01*
X5737Y84615D02*
X6564Y85442D01*
X22945D02*
X23650Y84737D01*
X15200Y89300D02*
X31685D01*
X32706Y88280D01*
X15200Y89300D02*
Y93000D01*
X13600Y94600D02*
X15200Y93000D01*
X6500Y94600D02*
X13600D01*
X5924Y95176D02*
X6500Y94600D01*
X5924Y95176D02*
Y109344D01*
X3193Y112075D02*
X5924Y109344D01*
X-27900Y112075D02*
X3193D01*
X-27900D02*
Y112111D01*
X-29600Y113811D02*
X-27900Y112111D01*
X2541Y110500D02*
X4350Y108692D01*
Y89546D02*
Y108692D01*
X5737Y88158D02*
X8296Y90717D01*
X11524D01*
X4350Y89546D02*
X5737Y88158D01*
X-31000Y110500D02*
X2541D01*
X2775Y61722D02*
Y93052D01*
X280Y95547D02*
X2775Y93052D01*
X2159Y162900D02*
Y165926D01*
X-444Y158344D02*
X-400Y158300D01*
X-444Y165882D02*
X-400Y165926D01*
X27000Y119506D02*
Y120900D01*
Y99500D02*
Y119506D01*
X55004Y28901D02*
Y45732D01*
X-52402Y22225D02*
X-48851Y25776D01*
X-62975Y22225D02*
X-52402D01*
X-66676Y18524D02*
X-62975Y22225D01*
X-66676Y18509D02*
Y18524D01*
Y26384D02*
X-64092Y23800D01*
X-53054D01*
X-49504Y27351D01*
X-42206D01*
X-61185Y44500D02*
X-60600Y43914D01*
X-63200Y44500D02*
X-61185D01*
X-64000Y43700D02*
X-63200Y44500D01*
X-64000Y35102D02*
Y43700D01*
X-67703Y31398D02*
X-64000Y35102D01*
X-70228Y31398D02*
X-67703D01*
X-76124Y22446D02*
X-73772Y24799D01*
Y31398D01*
X-42206Y27351D02*
X-37249Y32308D01*
Y55875D01*
X-48851Y25776D02*
X-41553D01*
X-35500Y31829D01*
Y35700D01*
X-34025Y37175D01*
X-19800D01*
X-17901Y39074D01*
Y41565D01*
X-33427Y31675D02*
X-17770D01*
X-40901Y24201D02*
X-33427Y31675D01*
X-48199Y24201D02*
X-40901D01*
X-51293Y21107D02*
X-48199Y24201D01*
X-51293Y11517D02*
Y21107D01*
X-60600Y43914D02*
X-60584Y43930D01*
X41627Y23234D02*
Y24612D01*
X57169Y29984D02*
Y43567D01*
X-5617Y13289D02*
Y18116D01*
Y10339D02*
Y13289D01*
X-6429Y14100D02*
X-5617Y13289D01*
X-15114Y14100D02*
X-6429D01*
X-15514Y14500D02*
X-15114Y14100D01*
X-15569Y14445D02*
X-15514Y14500D01*
X-15569Y14400D02*
Y14445D01*
X-16000Y14831D02*
X-15569Y14400D01*
X-16000Y14831D02*
Y22500D01*
X-9400Y9900D02*
Y11900D01*
X-9700Y12200D02*
X-9400Y11900D01*
X-22445Y12200D02*
X-9700D01*
X-22940Y12695D02*
X-22445Y12200D01*
X-31300D02*
X-22445D01*
X-32586Y13486D02*
Y23060D01*
Y13486D02*
X-31300Y12200D01*
X800Y9900D02*
Y12500D01*
X1925Y13625D01*
X-2500Y10100D02*
X-2400Y10000D01*
X-2500Y10100D02*
Y14100D01*
X-1400Y15200D01*
X13500D01*
X39025Y13625D02*
X41627Y16227D01*
Y18116D01*
X13486Y15214D02*
X13500Y15200D01*
X13486Y15214D02*
Y22739D01*
X13981Y23234D01*
X16824D01*
X13500Y15200D02*
X21865D01*
X24304Y17639D01*
Y18116D01*
X-5756Y10200D02*
X-5617Y10339D01*
X-16000Y22500D02*
X-15266Y23234D01*
X-13098D01*
X-22940Y12695D02*
Y18116D01*
X-32586Y23060D02*
X-32412Y23234D01*
X-30421D01*
X-45195Y-22522D02*
Y-19100D01*
X29608Y-21341D02*
Y-13762D01*
X83325Y-35675D02*
Y-33537D01*
X73000Y-46000D02*
X83325Y-35675D01*
X73000Y-48500D02*
Y-46000D01*
X83325Y-33537D02*
X93272Y-23590D01*
Y28354D01*
X84900Y-34189D02*
X94846Y-24243D01*
X84900Y-38700D02*
Y-34189D01*
X76900Y-46700D02*
X84900Y-38700D01*
X61525Y-64219D02*
Y-55275D01*
X74557Y-53600D02*
X81486Y-60529D01*
X61525Y-55275D02*
X67100Y-49700D01*
X70351Y-53330D02*
X70390Y-53290D01*
X70351Y-53500D02*
Y-53330D01*
Y-53500D02*
X70451Y-53600D01*
X74557D01*
X71700Y-48500D02*
X73000D01*
X63100Y-57100D02*
X71700Y-48500D01*
X63100Y-65773D02*
Y-57100D01*
X73000Y-48500D02*
X78100Y-53600D01*
X92200Y29425D02*
X93272Y28354D01*
X89548Y29425D02*
X92200D01*
X81125Y37848D02*
X89548Y29425D01*
X81125Y37848D02*
Y42852D01*
X87086Y48814D01*
X94846Y-24243D02*
Y30154D01*
X94000Y31000D02*
X94846Y30154D01*
X90200Y31000D02*
X94000D01*
X82700Y38500D02*
X90200Y31000D01*
X82700Y38500D02*
Y39973D01*
X89314Y46586D01*
X58944Y-66800D02*
X61525Y-64219D01*
X58900Y-66800D02*
X58944D01*
X52650Y-73050D02*
X58900Y-66800D01*
X54225Y-74648D02*
X63100Y-65773D01*
X50451Y-85594D02*
X52650Y-83395D01*
X1975Y-92625D02*
Y-91357D01*
Y-94700D02*
Y-92625D01*
X-1600Y-92725D02*
X-1175Y-93150D01*
X-1600Y-92900D02*
Y-92725D01*
X-1175Y-94700D02*
Y-93150D01*
X-21795Y-84850D02*
X-17721Y-88925D01*
X-44105Y-84850D02*
X-21795D01*
X-45704Y-86450D02*
X-44105Y-84850D01*
X-52736Y-86450D02*
X-45704D01*
X-54486Y-84700D02*
X-52736Y-86450D01*
X-54650Y-84700D02*
X-54486D01*
X-22448Y-86425D02*
X-18373Y-90500D01*
X1118D01*
X1975Y-91357D01*
X-43452Y-86425D02*
X-22448D01*
X-45052Y-88025D02*
X-43452Y-86425D01*
X-53925Y-88025D02*
X-45052D01*
X-99700Y35300D02*
Y35636D01*
Y-36561D02*
Y35300D01*
Y35636D02*
X-99462Y35874D01*
X-99700Y35300D02*
X-99600D01*
X-98125Y-36717D02*
Y31575D01*
X-87500Y42200D01*
X-56225Y-85724D02*
X-53925Y-88025D01*
X-79314Y-56686D02*
X-77627Y-55000D01*
X-85881Y-62805D02*
X-85622Y-63064D01*
X-85881Y-62805D02*
X-85881Y-62805D01*
X-80396Y-63064D02*
X-76226D01*
X-85622D02*
X-80396D01*
X-76226D02*
X-74581Y-61419D01*
X-80396Y-63064D02*
X-78175D01*
X-87569Y-57450D02*
X-80077D01*
X-79314Y-56686D01*
X-87500Y42200D02*
Y43800D01*
X-88986Y45286D02*
X-87500Y43800D01*
X-88986Y45286D02*
Y45914D01*
X90638Y54400D02*
X90804Y54234D01*
X87662Y54400D02*
X90638D01*
X84581Y51319D02*
X87662Y54400D01*
X87751Y39549D02*
Y40013D01*
X91819Y44081D01*
X90700Y-33400D02*
X98390Y-25710D01*
Y40761D01*
X79011Y-53600D02*
X83714Y-58302D01*
X78100Y-53600D02*
X79011D01*
X-83900Y-60500D02*
Y-60100D01*
Y-60500D02*
X-83792Y-60608D01*
X-78900D01*
X-77206Y-58913D01*
X-77087D01*
X-93377Y46517D02*
X-91642Y44782D01*
X57169Y29984D02*
X58956D01*
X59154Y29787D01*
X55004Y45732D02*
X57169Y43567D01*
X64650Y33035D02*
Y36677D01*
Y31739D02*
Y33035D01*
X67504Y30181D01*
X62697Y29787D02*
X64650Y31739D01*
X-14731Y81319D02*
X-13002D01*
X-14802Y81249D02*
X-14731Y81319D01*
X-19398Y84679D02*
X-19285Y84792D01*
X-14802D01*
X-19466Y84746D02*
X-19398Y84679D01*
X-17770Y31675D02*
X-16398Y30303D01*
X-26877Y20675D02*
Y22739D01*
X-20300Y65347D02*
Y69775D01*
Y72233D01*
X-15569Y75776D02*
X-15514Y75831D01*
X-20300Y75776D02*
X-15569D01*
X-20460Y65187D02*
X-20300Y65347D01*
X-16593Y72303D02*
X-11402D01*
X-17901Y69901D02*
Y70995D01*
Y69901D02*
X-15514Y72287D01*
X-17901Y65187D02*
Y69901D01*
Y70995D02*
X-16640Y72256D01*
X-16593Y72303D01*
X-12783Y34780D02*
Y38992D01*
Y41565D01*
X-13600Y33962D02*
X-12783Y34780D01*
X-16283Y33962D02*
X-13600D01*
X-11686D01*
X-16398Y33846D02*
X-16283Y33962D01*
X11375Y26777D02*
X23123D01*
X-15342Y39304D02*
Y41565D01*
X-19046Y35600D02*
X-15342Y39304D01*
X-32075Y35600D02*
X-19046D01*
X-33000Y34675D02*
X-32075Y35600D01*
X-63106Y-54775D02*
X-63090Y-54760D01*
X-67142Y-54775D02*
X-63106D01*
X-67142D02*
X-67110Y-54807D01*
X-47001Y34273D02*
X-46293Y33564D01*
X-47001Y34273D02*
Y39962D01*
X-46293Y33564D02*
X-44367Y31638D01*
X-41864D01*
X-40700Y32802D01*
Y39002D01*
X-38823Y40879D01*
Y57946D01*
X-37249Y55875D02*
X-36204Y56919D01*
X-17213D01*
X-38275Y58494D02*
X-20106D01*
X-18949Y59651D01*
X-17822D01*
X-38823Y57946D02*
X-38275Y58494D01*
X-43800Y37475D02*
Y60075D01*
Y37475D02*
X-43200Y36875D01*
X-41300Y58691D02*
X-39922Y60069D01*
X-41300Y51275D02*
Y58691D01*
X-42231Y61644D02*
X-28649D01*
X-43800Y60075D02*
X-42231Y61644D01*
X-39922Y60069D02*
X-20758D01*
X-23019Y65187D02*
Y80356D01*
X-22239Y81135D01*
X-19398D01*
X-14900Y69175D02*
X-14700Y69375D01*
X-14430D01*
X-15342Y65187D02*
Y68463D01*
X-5617Y23234D02*
Y26300D01*
X22721Y29954D02*
X24716Y27958D01*
X36384D01*
X23910Y25990D02*
X24304Y25596D01*
X23123Y26777D02*
X23910Y25990D01*
X40249D01*
X41627Y24612D01*
X22721Y29954D02*
Y42505D01*
X36384Y27958D02*
X37721Y29296D01*
Y32072D01*
X40453Y28375D02*
X43500D01*
X45170Y26705D01*
Y21951D02*
Y26705D01*
X6300Y62117D02*
X8125Y63943D01*
X6300Y60075D02*
Y62117D01*
X27721Y35655D02*
Y41375D01*
X11920Y74395D02*
X17741D01*
X9700Y72175D02*
X11920Y74395D01*
X9700Y60069D02*
Y72175D01*
X-14430Y55345D02*
X-12783Y56992D01*
Y65187D01*
X-17213Y56919D02*
X-15342Y58791D01*
Y65187D01*
X-17901Y62926D02*
Y65187D01*
X-20758Y60069D02*
X-17901Y62926D01*
X-28649Y61644D02*
X-28137Y62156D01*
Y65187D01*
X-47001Y39962D02*
X-46293Y39253D01*
Y33564D02*
Y39253D01*
X-47017Y47950D02*
X-47001Y47934D01*
Y43997D02*
Y47934D01*
X-26877Y18509D02*
X-26680Y18313D01*
X-27094Y18509D02*
X-26877D01*
X-27487Y18116D02*
X-27094Y18509D01*
X-30421Y18116D02*
X-27487D01*
X27682Y35616D02*
X27721Y35655D01*
X17721Y35635D02*
Y42505D01*
Y35635D02*
X17741Y35616D01*
X12721Y35616D02*
Y42505D01*
X12721Y35616D02*
X12721Y35616D01*
X-26877Y20675D02*
X-22940D01*
X-30421D02*
X-26877D01*
X35029D02*
X36306Y21951D01*
X39467D01*
X40744Y20675D01*
X41627D01*
X36509Y18116D02*
X37690Y19297D01*
X34146Y18116D02*
X36509D01*
X16824D02*
X19186D01*
X19579Y18509D01*
X16824Y20675D02*
X18202D01*
X19973Y22446D01*
X21649D02*
X23421Y20675D01*
X24304D01*
X19186Y18116D02*
X19801D01*
X20194Y18509D02*
X20367D01*
X19579D02*
X20194D01*
X20982Y19297D01*
X19801Y18116D02*
X20194Y18509D01*
X17721Y63962D02*
Y70832D01*
X17741Y70852D01*
X27721Y63962D02*
Y70813D01*
X27682Y70852D02*
X27721Y70813D01*
X-51293Y43249D02*
X-50545Y43997D01*
X-51293Y33564D02*
Y43249D01*
X-61293Y33564D02*
Y39253D01*
X-60584Y39962D01*
X32701Y31379D02*
Y32072D01*
Y31379D02*
X33366Y30714D01*
X41627Y20675D02*
X43894D01*
X45170Y21951D01*
X24304Y23234D02*
Y25596D01*
X32701Y63943D02*
X32721Y63962D01*
X37106Y77368D02*
X37721Y76753D01*
Y74395D02*
Y76753D01*
X20811Y22446D02*
X21649D01*
X19152Y25202D02*
X20811Y23543D01*
Y22446D02*
Y23543D01*
X19973Y22446D02*
X21649D01*
X-12094Y77652D02*
X-11917Y77475D01*
X-12094Y77652D02*
Y78352D01*
X-10039Y81249D02*
X-9238D01*
X0Y61175D02*
X1200Y62375D01*
X-10200Y61175D02*
X0D01*
X-11208Y60167D02*
X-10200Y61175D01*
X-11208Y55267D02*
Y60167D01*
X-12705Y53770D02*
X-11208Y55267D01*
X-12053Y52195D02*
X-9633Y54615D01*
Y58775D01*
X-8808Y59600D01*
X652D01*
X2775Y61722D01*
X42721Y59588D02*
Y63962D01*
X40908Y57775D02*
X42721Y59588D01*
X37700Y57775D02*
X40908D01*
X28232Y57707D02*
X28500Y57975D01*
X-6468Y57707D02*
X28232D01*
X-9655Y50620D02*
X-7600Y52675D01*
Y56575D01*
X-6468Y57707D01*
X32701Y56376D02*
Y63943D01*
X31900Y55575D02*
X32701Y56376D01*
X-5000Y55575D02*
X31900D01*
X-6025Y54550D02*
X-5000Y55575D01*
X32701Y63943D02*
Y70852D01*
X-6025Y50350D02*
Y54550D01*
X-7329Y49046D02*
X-6025Y50350D01*
X-4450Y49697D02*
Y53596D01*
X-6677Y47471D02*
X-4450Y49697D01*
X27200Y54000D02*
X27721Y53479D01*
X27682Y35616D02*
Y46241D01*
X27721Y42505D02*
Y53479D01*
X-4047Y54000D02*
X27200D01*
X-4450Y53596D02*
X-4047Y54000D01*
X16350Y52425D02*
X17721Y51054D01*
X-2876Y52425D02*
X16350D01*
X-2876Y49045D02*
Y52425D01*
X-6025Y45896D02*
X-2876Y49045D01*
X17721Y45521D02*
Y51054D01*
X4000Y30375D02*
Y30435D01*
X10359Y49596D02*
X10438Y49675D01*
X10359Y33055D02*
Y49596D01*
X7579Y30275D02*
X10359Y33055D01*
X7000Y49512D02*
X7047D01*
X8784Y47775D01*
Y33759D02*
Y47775D01*
X8100Y33075D02*
X8784Y33759D01*
X4000Y31175D02*
X5900Y33075D01*
X4000Y30435D02*
Y31175D01*
Y30435D02*
X6639Y33075D01*
X5900D02*
X6639D01*
X4000Y30375D02*
X6700Y33075D01*
X8100D01*
X2372Y46073D02*
Y47746D01*
X3300Y48675D01*
Y49375D01*
X3200Y49475D02*
X3300Y49375D01*
X-8400Y73875D02*
Y79610D01*
X-14802Y81249D02*
X-10039D01*
X-8400Y79610D01*
X-10109Y81319D02*
X-10039Y81249D01*
X-8888Y65187D02*
X-5556Y68519D01*
X-10224Y65187D02*
X-8888D01*
X-5556Y68519D02*
Y76161D01*
X-1928Y69846D02*
Y70476D01*
X-6300Y65475D02*
X-5800Y64975D01*
X-5700D01*
X-6300Y65475D02*
X-1928Y69846D01*
X-15342Y68463D02*
X-14430Y69375D01*
X5400Y65275D02*
Y76875D01*
X6500Y77975D01*
X24121Y74395D02*
X27682D01*
X22721Y72996D02*
X24121Y74395D01*
X22721Y63962D02*
Y72996D01*
X42721Y63962D02*
Y70832D01*
X42741Y70852D01*
X-1172Y42046D02*
Y46073D01*
Y42046D02*
X-1000Y41875D01*
X-1310Y41565D02*
X-1000Y41875D01*
X3571Y41565D02*
X4037Y41099D01*
X-1310Y41565D02*
X3571D01*
X-10224D02*
X-1310D01*
X64748Y21505D02*
X64790Y21463D01*
X65476Y20778D01*
Y20535D02*
Y20778D01*
X41627Y23234D02*
X41680D01*
X42721Y24275D01*
X64650Y36677D02*
X68426Y32901D01*
X70378D01*
X55004Y24556D02*
X58055Y21505D01*
X-29680Y53770D02*
X-12705D01*
X-33100Y50350D02*
X-29680Y53770D01*
X-33100Y41720D02*
Y50350D01*
X-33255Y41565D02*
X-33100Y41720D01*
X-29027Y52195D02*
X-12053D01*
X-30696Y50526D02*
X-29027Y52195D01*
X-30696Y41565D02*
Y50526D01*
X-26454Y50620D02*
X-9655D01*
X-28137Y48938D02*
X-26454Y50620D01*
X-28137Y41565D02*
Y48938D01*
X-23704Y49046D02*
X-7329D01*
X-25578Y47172D02*
X-23704Y49046D01*
X-25578Y41565D02*
Y47172D01*
X-21801Y47471D02*
X-6677D01*
X-23019Y46253D02*
X-21801Y47471D01*
X-23019Y41565D02*
Y46253D01*
X-20460Y41565D02*
Y44415D01*
X-18979Y45896D01*
X-6025D01*
X-13098Y20675D02*
X-11922D01*
X-11022Y21575D01*
X-8363D01*
X-7463Y20675D01*
X-5617D01*
X-13098Y18116D02*
X-10910D01*
X-9886Y19140D01*
X-61487Y3014D02*
Y11322D01*
X-61293Y11517D01*
X-5518Y156000D02*
X-5400D01*
X-5518D02*
Y165926D01*
X-35195Y-22522D02*
Y-19200D01*
X-45195Y-19100D02*
X-45100D01*
X29608Y-13762D02*
X29824D01*
X41242Y-16558D02*
Y-13959D01*
X39608Y-18192D02*
X41242Y-16558D01*
X39608Y-21341D02*
Y-18192D01*
X-22000Y-2739D02*
X-21357Y-3382D01*
Y-6971D02*
Y-3382D01*
X-60861Y-2739D02*
X-22000D01*
X-61500Y-2100D02*
X-60861Y-2739D01*
X-61500Y-2100D02*
Y3002D01*
X-61487Y3014D01*
X-44100Y-95900D02*
Y-89300D01*
X-42800Y-88000D01*
X-23100D01*
X-21700Y-89400D01*
Y-97800D02*
Y-89400D01*
Y-97800D02*
X-20100Y-99400D01*
X5500D02*
Y-95493D01*
X55800Y-84700D02*
Y-75300D01*
X63600Y-67500D01*
X73800D01*
X77688Y-71388D01*
X86219Y-55797D02*
X87194Y-56772D01*
X90700Y-37463D02*
X96233Y-42997D01*
X90700Y-37463D02*
Y-33400D01*
X96233Y-42997D02*
X96364D01*
X87194Y-56772D02*
X88532D01*
X55004Y24556D02*
Y28901D01*
X-20577Y135277D02*
X-11300Y126000D01*
X21900D01*
X27000Y120900D01*
X55004Y45732D02*
Y70238D01*
X-20577Y135277D02*
Y167107D01*
X27000Y98200D02*
Y99500D01*
X40038Y85203D02*
X52445Y72797D01*
X55004Y70238D01*
X-4775Y103397D02*
Y106500D01*
X-4972Y103200D02*
X-4775Y103397D01*
X-1625Y103334D02*
Y106500D01*
X-3334Y101625D02*
X-1625Y103334D01*
X-91642Y44782D02*
X-91514D01*
X-90791Y47718D02*
X-88986Y45914D01*
X-90791Y47718D02*
Y48104D01*
X1918Y100662D02*
Y106500D01*
X-244Y98500D02*
X1918Y100662D01*
D11*
X70796Y33318D02*
G03*
X71804Y32901I1008J1008D01*
G01*
D02*
G03*
X70796Y32483I0J-1426D01*
G01*
X70091Y34700D02*
G03*
X70742Y33366I1693J0D01*
G01*
X-81791Y-45696D02*
G03*
X-82559Y-43841I-2622J0D01*
G01*
X-79650Y-46750D02*
G03*
X-81106Y-46279I-1189J-1189D01*
G01*
X67791Y-60000D02*
G03*
X68136Y-60833I1178J0D01*
G01*
X68383Y-61081D02*
G03*
X67200Y-60590I-1183J-1183D01*
G01*
X-15056Y-94600D02*
G03*
X-16010Y-95501I0J-956D01*
G01*
X86782Y-39682D02*
G03*
X87200Y-38674I-1008J1008D01*
G01*
D02*
G03*
X87618Y-39682I1426J0D01*
G01*
X44700Y15090D02*
G03*
X45708Y15508I0J1426D01*
G01*
D02*
G03*
X45291Y14500I1008J-1008D01*
G01*
X-30033Y71173D02*
G03*
X-32513Y72200I-2479J-2479D01*
G01*
X80200Y-33209D02*
G03*
X81208Y-32792I0J1426D01*
G01*
D02*
G03*
X80791Y-33800I1008J-1008D01*
G01*
X-82910Y55398D02*
G03*
X-66739Y74434I-175J16534D01*
G01*
X-44787Y89315D02*
G03*
X-66541Y74546I44804J-89402D01*
G01*
X-44112Y90200D02*
X-31912Y102400D01*
X-44119Y90200D02*
X-44112D01*
X-44859Y89459D02*
X-44119Y90200D01*
X-12659Y99853D02*
X-7109D01*
X-15205Y102400D02*
X-12659Y99853D01*
X-31912Y102400D02*
X-15205D01*
X-29616Y71591D02*
X-29616D01*
X-30225Y72200D02*
X-29616Y71591D01*
X-36767Y72200D02*
X-30225D01*
X-54132Y-70498D02*
X-49344D01*
X-62558Y-62072D02*
X-54132Y-70498D01*
X66900Y-59597D02*
X70351Y-63049D01*
X80200Y-33800D02*
X91500Y-22500D01*
Y24500D01*
X83099Y32901D02*
X91500Y24500D01*
X70378Y32901D02*
X83099D01*
X-37186Y72619D02*
X-36767Y72200D01*
X30039Y79139D02*
X30700Y79800D01*
X15045Y79139D02*
X30039D01*
X13670Y77764D02*
X15045Y79139D01*
X6710Y77764D02*
X13670D01*
X6500Y77975D02*
X6710Y77764D01*
X30700Y79800D02*
X35200D01*
X-83849Y44851D02*
Y45787D01*
Y42651D02*
Y44851D01*
X-86481Y48419D02*
X-83849Y45787D01*
X-96223Y30972D02*
X-89033Y38162D01*
X-83238D01*
X-77200Y44200D01*
X60909Y61600D02*
X67700D01*
X44700Y14500D02*
X46942Y16742D01*
Y39433D01*
X19973Y-1373D02*
X22000Y-3400D01*
X87200Y-40100D02*
Y-34394D01*
X96618Y-24976D01*
X-16600Y-95467D02*
Y-95395D01*
X-15805Y-94600D01*
X-15056D01*
X-4818D02*
X-4718Y-94700D01*
X-9544Y-94600D02*
X-4818D01*
X-85637Y-40763D02*
X-79650Y-46750D01*
X-96223Y-35100D02*
Y30972D01*
X-94063Y-40763D02*
X-85637D01*
X-94814Y-40012D02*
Y-36508D01*
Y-40012D02*
X-94063Y-40763D01*
X-96223Y-35100D02*
X-94814Y-36508D01*
X-75803Y-52000D02*
X-75651Y-51849D01*
X-79638Y-52000D02*
X-75803D01*
X-81819Y-54181D02*
X-79638Y-52000D01*
X-83587Y51987D02*
X-77200Y45600D01*
X-84687Y51987D02*
X-79485Y46785D01*
X-77200Y44200D02*
Y45600D01*
X-84687Y51987D02*
X-83587D01*
X78132Y-63035D02*
X78981D01*
X74249Y-59151D02*
X78132Y-63035D01*
X96618Y-24976D02*
Y33900D01*
X94867Y35651D02*
X96618Y33900D01*
X91649Y35651D02*
X94867D01*
X70091Y33187D02*
X70378Y32901D01*
X70091Y33187D02*
Y34700D01*
X37721Y63962D02*
X37721Y63962D01*
Y70852D01*
X43869Y42505D02*
X43873Y42502D01*
X46942Y39433D01*
X42725Y42502D02*
X43873D01*
X42721Y42505D02*
X43869D01*
X42725Y35600D02*
Y42502D01*
X42721Y42505D02*
X42725Y42502D01*
X46557Y-27837D02*
X48525Y-29805D01*
X37721Y35616D02*
Y42505D01*
Y35616D02*
X37721Y35616D01*
X32721Y35635D02*
Y42505D01*
X32701Y35616D02*
X32721Y35635D01*
X4718Y159800D02*
X6000D01*
X4718D02*
Y165926D01*
X60909Y55181D02*
Y61600D01*
X-7109Y99853D02*
X-5756Y98500D01*
X-84687Y51987D02*
Y53252D01*
X-82725Y55213D01*
D12*
X-11598Y76681D02*
G03*
X-12233Y78213I-2166J0D01*
G01*
X-11598Y77058D02*
G03*
X-12203Y78188I-1358J0D01*
G01*
X-11904Y78301D02*
G03*
X-11598Y77157I1141J-308D01*
G01*
X70324Y20176D02*
G03*
X67504Y21505I-2820J-2325D01*
G01*
X-46293Y18770D02*
G03*
X-46930Y20309I-2176J0D01*
G01*
X-30696Y69139D02*
G03*
X-29812Y71573I-2163J2163D01*
G01*
X-29492Y71438D02*
G03*
X-30696Y68912I2047J-2526D01*
G01*
X-29581Y71397D02*
G03*
X-30696Y70063I240J-1334D01*
G01*
Y70511D02*
X-29616Y71591D01*
X-30696Y69139D02*
X-28817Y71019D01*
X-29616Y71591D02*
X-29044Y71019D01*
X68291Y27228D02*
X83843D01*
X83200Y27200D02*
X83229Y27171D01*
X83900D01*
X83843Y27228D02*
X83900Y27171D01*
X-46293Y8446D02*
Y11517D01*
Y8446D02*
X-41346Y3500D01*
X-28817Y71019D02*
X-28600D01*
X-29044D02*
X-28817D01*
X-46293Y11517D02*
Y19950D01*
X-30696Y65187D02*
Y69139D01*
X-11598Y75846D02*
Y77157D01*
X-11917Y77475D02*
X-11598Y77157D01*
X-30696Y69139D02*
Y70511D01*
X67504Y24177D02*
Y26638D01*
X65476Y20535D02*
X67504D01*
X69271Y21505D02*
X70476Y20301D01*
X64748Y21505D02*
X64832D01*
X67504D01*
X69271D01*
X64790Y21463D02*
X64832Y21505D01*
X67504Y24177D01*
Y20535D02*
Y21505D01*
Y24177D01*
D13*
X-8318Y106500D02*
D03*
X-4775D02*
D03*
X-1625D02*
D03*
X1918D02*
D03*
X-4718Y-94700D02*
D03*
X-1175D02*
D03*
X1975D02*
D03*
X5518D02*
D03*
D14*
X91819Y44081D02*
D03*
X89314Y46586D02*
D03*
X87086Y48814D02*
D03*
X84581Y51319D02*
D03*
X-74581Y-61419D02*
D03*
X-77087Y-58913D02*
D03*
X-79314Y-56686D02*
D03*
X-81819Y-54181D02*
D03*
D15*
X86219Y-55797D02*
D03*
X83714Y-58302D02*
D03*
X81486Y-60529D02*
D03*
X78981Y-63035D02*
D03*
X-86481Y48419D02*
D03*
X-88986Y45914D02*
D03*
X-91214Y43687D02*
D03*
X-93719Y41181D02*
D03*
D16*
X3537Y158300D02*
D03*
X-4337D02*
D03*
D17*
X70351Y-63049D02*
D03*
X74249Y-59151D02*
D03*
X-79951Y46549D02*
D03*
X-83849Y42651D02*
D03*
D18*
X-80123Y-47651D02*
D03*
X-76226Y-51549D02*
D03*
X91649Y35651D02*
D03*
X87751Y39549D02*
D03*
D19*
X-57760Y-48512D02*
D03*
Y-57528D02*
D03*
X11524Y81701D02*
D03*
X11524Y90717D02*
D03*
D20*
X-88424Y-29537D02*
D03*
X-78976Y-25600D02*
D03*
X-88424Y-21663D02*
D03*
Y-11261D02*
D03*
X-78976Y-7324D02*
D03*
X-88424Y-3387D02*
D03*
Y6739D02*
D03*
X-78976Y10676D02*
D03*
X-88424Y14613D02*
D03*
D21*
X-85672Y1176D02*
D03*
X-82128D02*
D03*
X-81828Y-17124D02*
D03*
X-85372D02*
D03*
X-82728Y20376D02*
D03*
X-86272D02*
D03*
X41242Y-14058D02*
D03*
X37698D02*
D03*
X29824Y-13664D02*
D03*
X26281D02*
D03*
X-36228Y15847D02*
D03*
X-39772D02*
D03*
X-36348Y20500D02*
D03*
X-39891D02*
D03*
X-73772Y31300D02*
D03*
X-70228D02*
D03*
X-50545Y39863D02*
D03*
X-47001D02*
D03*
X-57041Y39863D02*
D03*
X-60584D02*
D03*
X-50545Y43899D02*
D03*
X-47001D02*
D03*
X-5472Y70575D02*
D03*
X-1928D02*
D03*
X-57028Y48200D02*
D03*
X-60572D02*
D03*
X-1172Y45975D02*
D03*
X2372D02*
D03*
X-49928Y3100D02*
D03*
X-53472D02*
D03*
X-19694Y-1065D02*
D03*
X-16150D02*
D03*
X-61487Y3014D02*
D03*
X-57944Y3014D02*
D03*
X-60600Y43914D02*
D03*
X-57056Y43914D02*
D03*
X-2013Y76161D02*
D03*
X-5556Y76161D02*
D03*
X-50560Y47950D02*
D03*
X-47017Y47950D02*
D03*
X62697Y29787D02*
D03*
X59154Y29787D02*
D03*
D22*
X68390Y30771D02*
D03*
Y27228D02*
D03*
X-29616Y84880D02*
D03*
Y81336D02*
D03*
X32800Y35616D02*
D03*
Y32072D02*
D03*
X27780D02*
D03*
Y35616D02*
D03*
X37623Y32072D02*
D03*
Y35616D02*
D03*
X12820Y32072D02*
D03*
Y35616D02*
D03*
X17839D02*
D03*
Y32072D02*
D03*
X17642Y74395D02*
D03*
Y70852D02*
D03*
X32603Y70852D02*
D03*
Y74395D02*
D03*
X27583D02*
D03*
Y70852D02*
D03*
X37623D02*
D03*
Y74395D02*
D03*
X42642D02*
D03*
Y70852D02*
D03*
X28080Y88280D02*
D03*
Y84737D02*
D03*
X32804Y88280D02*
D03*
Y84737D02*
D03*
X23749D02*
D03*
Y88280D02*
D03*
X5639Y84615D02*
D03*
Y88158D02*
D03*
X-14900Y81249D02*
D03*
Y84792D02*
D03*
X-19300Y84679D02*
D03*
Y81135D02*
D03*
X-16300Y30303D02*
D03*
Y33846D02*
D03*
X-11500Y75846D02*
D03*
Y72303D02*
D03*
X-63106Y-54772D02*
D03*
Y-51228D02*
D03*
X-62460Y-58528D02*
D03*
Y-62072D02*
D03*
X-20300Y75776D02*
D03*
Y72233D02*
D03*
X-11686Y33962D02*
D03*
X-11686Y30419D02*
D03*
X-15514Y72287D02*
D03*
X-15514Y75831D02*
D03*
X-37186Y76162D02*
D03*
X-37186Y72619D02*
D03*
X42725Y32057D02*
D03*
X42725Y35600D02*
D03*
X-5514Y-9287D02*
D03*
X-5514Y-5744D02*
D03*
X-10109Y84862D02*
D03*
X-10109Y81319D02*
D03*
X-67142Y-54775D02*
D03*
X-67141Y-51232D02*
D03*
D23*
X-5756Y98500D02*
D03*
X-244D02*
D03*
X-15056Y-94600D02*
D03*
X-9544D02*
D03*
D24*
X18237Y83240D02*
D03*
X18237Y89540D02*
D03*
D25*
X-14664Y-6971D02*
D03*
X-21357D02*
D03*
X-21750Y-22719D02*
D03*
X-15057D02*
D03*
X-21357Y-14845D02*
D03*
X-14664D02*
D03*
X-41346Y3500D02*
D03*
X-34653D02*
D03*
X64748Y21505D02*
D03*
X58055D02*
D03*
X57957Y36677D02*
D03*
X64650D02*
D03*
D26*
X-61293Y33564D02*
D03*
X-46293Y11517D02*
D03*
X-56293D02*
D03*
X-46293Y33564D02*
D03*
X-56293D02*
D03*
X-61293Y11517D02*
D03*
X-51293D02*
D03*
X-51293Y33564D02*
D03*
X-35195Y-22522D02*
D03*
Y-44569D02*
D03*
X-40195Y-22522D02*
D03*
X-30195D02*
D03*
Y-44569D02*
D03*
X-45195Y-22522D02*
D03*
X-40195Y-44569D02*
D03*
X-45195D02*
D03*
X2206Y-22522D02*
D03*
Y-44569D02*
D03*
X-2794Y-22522D02*
D03*
X7206D02*
D03*
Y-44569D02*
D03*
X-7794Y-22522D02*
D03*
X-2794Y-44569D02*
D03*
X-7794D02*
D03*
D27*
X12721Y42505D02*
D03*
X42721D02*
D03*
X37721D02*
D03*
X32721D02*
D03*
X27721D02*
D03*
X22721D02*
D03*
X17721D02*
D03*
X12721Y63962D02*
D03*
X17721D02*
D03*
X22721D02*
D03*
X27721D02*
D03*
X32721D02*
D03*
X37721D02*
D03*
X42721D02*
D03*
D28*
X29608Y-21341D02*
D03*
X44608Y-45750D02*
D03*
X34608D02*
D03*
X44608Y-21341D02*
D03*
X34608D02*
D03*
X29608Y-45750D02*
D03*
X39608D02*
D03*
Y-21341D02*
D03*
D29*
X9836Y165926D02*
D03*
X2159D02*
D03*
X-400D02*
D03*
X-2959D02*
D03*
X-10636D02*
D03*
X-5518D02*
D03*
X-8077D02*
D03*
X4718D02*
D03*
X7277D02*
D03*
D30*
X-76124Y22446D02*
D03*
X-66676Y26384D02*
D03*
Y18509D02*
D03*
D31*
X-13098Y23234D02*
D03*
Y20675D02*
D03*
Y18116D02*
D03*
X-5617D02*
D03*
Y20675D02*
D03*
Y23234D02*
D03*
X-30421D02*
D03*
Y20675D02*
D03*
Y18116D02*
D03*
X-22940D02*
D03*
Y20675D02*
D03*
Y23234D02*
D03*
X16824D02*
D03*
Y20675D02*
D03*
Y18116D02*
D03*
X24304D02*
D03*
Y20675D02*
D03*
Y23234D02*
D03*
X34146D02*
D03*
Y20675D02*
D03*
Y18116D02*
D03*
X41627D02*
D03*
Y20675D02*
D03*
Y23234D02*
D03*
D32*
X60909Y55181D02*
D03*
D33*
X55004Y45732D02*
D03*
X66815D02*
D03*
D34*
X60909D02*
D03*
D35*
X-10224Y41565D02*
D03*
X-12783D02*
D03*
X-15342D02*
D03*
X-17901D02*
D03*
X-20460D02*
D03*
X-23019D02*
D03*
X-25578D02*
D03*
X-28137D02*
D03*
X-30696D02*
D03*
X-33255D02*
D03*
Y65187D02*
D03*
X-30696D02*
D03*
X-28137D02*
D03*
X-25578D02*
D03*
X-23019D02*
D03*
X-20460D02*
D03*
X-17901D02*
D03*
X-15342D02*
D03*
X-12783D02*
D03*
X-10224D02*
D03*
D36*
X4037Y41099D02*
D03*
X-3837D02*
D03*
X100Y31650D02*
D03*
D37*
X-40680Y-70498D02*
D03*
Y-59475D02*
D03*
X-22341Y-29805D02*
D03*
Y-40829D02*
D03*
X-23700Y-70512D02*
D03*
Y-59488D02*
D03*
X-32021Y-70476D02*
D03*
Y-59453D02*
D03*
X-49344Y-70498D02*
D03*
Y-59475D02*
D03*
D38*
X-53050Y-29609D02*
D03*
Y-35514D02*
D03*
X52856Y-35514D02*
D03*
Y-29609D02*
D03*
X60336Y-34924D02*
D03*
Y-29412D02*
D03*
X-29700Y76531D02*
D03*
Y71019D02*
D03*
D39*
X1281Y-3231D02*
D03*
Y-9924D02*
D03*
X11100Y-3153D02*
D03*
Y-9847D02*
D03*
D40*
X-44688Y-76500D02*
D03*
X28104Y-71800D02*
D03*
D41*
X12200Y152300D02*
D03*
X-13000Y152700D02*
D03*
D42*
X6700Y157400D02*
X22800D01*
X27000Y119506D02*
X32503Y114003D01*
X26106Y120400D02*
X27000Y119506D01*
X19500Y120400D02*
X26106D01*
X52445Y74055D02*
Y83455D01*
Y72797D02*
Y74055D01*
X32503Y103397D02*
Y114003D01*
Y103397D02*
X52445Y83455D01*
X4900Y120400D02*
X19500D01*
X52445Y48025D02*
Y72797D01*
X53606Y13506D02*
Y46865D01*
X4600Y1700D02*
X10700Y7800D01*
X47900D01*
X53606Y13506D01*
X19500Y120400D02*
X21600Y118300D01*
Y104900D02*
Y118300D01*
X52445Y48025D02*
X53606Y46865D01*
X21600Y104900D02*
X27000Y99500D01*
D43*
X-5018Y-12089D02*
X19785D01*
X46557Y-27837D02*
Y-11302D01*
X41646Y-29018D02*
X42040Y-28624D01*
X45769D01*
X46557Y-27837D01*
X-15057Y-19176D02*
X-13679Y-17601D01*
X-14861Y-26656D02*
X-12498Y-29018D01*
X-5805Y-11302D02*
X-5018Y-12089D01*
X-12498Y-29018D02*
X41646D01*
X-14861Y-26656D02*
Y-19569D01*
X-13679Y-17601D02*
X-7774Y-11695D01*
D44*
X22000Y-3400D02*
X73600D01*
D45*
X-35195Y-44569D02*
X-29684Y-50081D01*
X26362D02*
X28724Y-52443D01*
X-29684Y-50081D02*
X26362D01*
X60336Y-40464D02*
Y-34924D01*
X28724Y-52443D02*
X48357D01*
X60336Y-40464D01*
X68776Y40803D02*
Y43771D01*
X52856Y-35514D02*
X52856Y-35514D01*
X-22341Y-29805D02*
X-21357Y-28821D01*
Y-14845D02*
Y-6971D01*
X-58400Y-28200D02*
X-56795Y-29805D01*
X-58400Y-28200D02*
Y-27800D01*
X-58500Y-27700D02*
X-58400Y-27800D01*
X-58500Y-27700D02*
Y-8200D01*
X-21386Y-7000D02*
X-21357Y-6971D01*
X-56795Y-29805D02*
X-22341D01*
X-21357Y-28821D02*
Y-14845D01*
X-55700Y-5400D02*
X-21400D01*
X-58500Y-8200D02*
X-55700Y-5400D01*
D46*
X-53050Y-35514D02*
X52856D01*
D47*
X28900Y-75700D02*
D03*
D48*
X7350Y165354D02*
D03*
D49*
X-13109Y160213D02*
D03*
D50*
X19195Y-20554D02*
D03*
D51*
X34746Y-20947D02*
D03*
D52*
X9155Y-19963D02*
D03*
D53*
X-2853Y-20947D02*
D03*
D54*
X-2065Y-15185D02*
D03*
D55*
X67976Y38501D02*
D03*
D56*
X-2250Y-685D02*
D03*
D57*
X12577Y151650D02*
D03*
D58*
X19777Y167107D02*
D03*
X-20577D02*
D03*
X19777Y181674D02*
D03*
X-20577D02*
D03*
D59*
X-10600Y145500D02*
D03*
X-14200Y145600D02*
D03*
X-18673D02*
D03*
X-22900Y145700D02*
D03*
X-23000Y150400D02*
D03*
X-19400Y151100D02*
D03*
X-16700Y151600D02*
D03*
X-13481Y151700D02*
D03*
X-10109D02*
D03*
X-18949Y17562D02*
D03*
X-686Y18800D02*
D03*
X7206Y18881D02*
D03*
X10359Y19000D02*
D03*
X-78035Y6500D02*
D03*
X-81100Y15500D02*
D03*
X-75700Y15600D02*
D03*
X-62100Y28300D02*
D03*
X-58400Y27100D02*
D03*
X-54556Y27228D02*
D03*
X-53400Y48000D02*
D03*
X-34400Y79900D02*
D03*
X-27000Y79139D02*
D03*
X26100Y81834D02*
D03*
X-28700Y3087D02*
D03*
X-24401Y3342D02*
D03*
X-19300Y3600D02*
D03*
X-18516Y7043D02*
D03*
X-23604Y7100D02*
D03*
X-29200Y7043D02*
D03*
X-32853Y8200D02*
D03*
X-36938Y9207D02*
D03*
X12217Y8300D02*
D03*
X18500Y5619D02*
D03*
X23269Y5500D02*
D03*
X28700Y5300D02*
D03*
X33200Y5200D02*
D03*
X34400Y9000D02*
D03*
X30053Y9200D02*
D03*
X25753Y9100D02*
D03*
X21200D02*
D03*
X16900Y8860D02*
D03*
X6337Y-2300D02*
D03*
X-1625Y-1600D02*
D03*
X-5518Y-2219D02*
D03*
X-5398Y941D02*
D03*
X-2500Y1507D02*
D03*
X861Y1600D02*
D03*
X4600Y1700D02*
D03*
X9100Y1400D02*
D03*
X12200D02*
D03*
X12292Y4814D02*
D03*
X6752D02*
D03*
X2685Y4802D02*
D03*
X-1200Y4708D02*
D03*
X-5000Y4802D02*
D03*
X19000Y155900D02*
D03*
X20000Y158200D02*
D03*
X22000Y160100D02*
D03*
X21900Y156000D02*
D03*
X20400Y153500D02*
D03*
X22721Y153200D02*
D03*
X25100Y154300D02*
D03*
X25549Y157200D02*
D03*
X-32900Y54000D02*
D03*
X73200Y-4000D02*
D03*
X77500Y-6400D02*
D03*
X81200D02*
D03*
X84700Y-6100D02*
D03*
X80200Y-33800D02*
D03*
X-89600Y27300D02*
D03*
X-29616Y71591D02*
D03*
X37106Y79800D02*
D03*
X83200Y27200D02*
D03*
X-46560Y51099D02*
D03*
X-19700Y161500D02*
D03*
X-15400D02*
D03*
X-11200D02*
D03*
X-23700Y161468D02*
D03*
X76200Y-3600D02*
D03*
X79600D02*
D03*
X83000Y-3500D02*
D03*
X85900Y-3600D02*
D03*
X86400Y-1100D02*
D03*
X83000Y-1000D02*
D03*
X79000D02*
D03*
X74600Y-900D02*
D03*
X-39900Y18100D02*
D03*
X-90400Y4200D02*
D03*
X-96800Y37600D02*
D03*
X-91900Y-13400D02*
D03*
X-91100Y-44000D02*
D03*
X-88400Y-35800D02*
D03*
X-41100Y65400D02*
D03*
X-3700Y84900D02*
D03*
X7900Y84862D02*
D03*
X-29600Y113811D02*
D03*
X-31000Y110500D02*
D03*
X24600Y159600D02*
D03*
X-2900Y162900D02*
D03*
X-400Y158600D02*
D03*
X2100Y162900D02*
D03*
X44800Y-800D02*
D03*
X44700Y14500D02*
D03*
X-2400Y10000D02*
D03*
X800Y9900D02*
D03*
X-5756Y10200D02*
D03*
X-9400Y9900D02*
D03*
X76900Y-46700D02*
D03*
X67100Y-49700D02*
D03*
X70390Y-53290D02*
D03*
X87200Y-40100D02*
D03*
X-1600Y-88100D02*
D03*
Y-92900D02*
D03*
X-16600Y-95467D02*
D03*
X67200Y-60000D02*
D03*
X-81200Y-45696D02*
D03*
X78100Y-53600D02*
D03*
X-83900Y-60100D02*
D03*
X-93300Y45300D02*
D03*
X-46791Y20448D02*
D03*
X-20200Y24675D02*
D03*
X-23800Y29175D02*
D03*
X-20300Y69775D02*
D03*
X-33000Y34675D02*
D03*
X-14900Y69175D02*
D03*
X7000Y49512D02*
D03*
X6300Y60075D02*
D03*
X10438Y49675D02*
D03*
X9700Y60069D02*
D03*
X-41300Y51275D02*
D03*
X-43200Y36875D02*
D03*
X-17822Y59651D02*
D03*
X-26680Y18313D02*
D03*
X20982Y19297D02*
D03*
X37690D02*
D03*
X33366Y30321D02*
D03*
X40453Y28352D02*
D03*
X7755Y23807D02*
D03*
X4000Y23918D02*
D03*
Y30375D02*
D03*
X7579Y30275D02*
D03*
X70476Y20301D02*
D03*
X-12094Y78352D02*
D03*
X-8400Y73875D02*
D03*
X70378Y32901D02*
D03*
X37700Y57775D02*
D03*
X28500Y57975D02*
D03*
X3200Y49475D02*
D03*
X5400Y65275D02*
D03*
X-5700Y64975D02*
D03*
X6500Y77975D02*
D03*
X42721Y24275D02*
D03*
X47700Y24575D02*
D03*
X-4636Y32802D02*
D03*
X-7563Y34875D02*
D03*
X-3693Y35875D02*
D03*
X16034Y29375D02*
D03*
X22600Y49575D02*
D03*
X33032Y50001D02*
D03*
X12800Y68258D02*
D03*
X13567Y71475D02*
D03*
X-17314Y77377D02*
D03*
X-9886Y19140D02*
D03*
X54476Y39354D02*
D03*
X54684Y34728D02*
D03*
X54756Y31501D02*
D03*
X55004Y28901D02*
D03*
X52476Y27601D02*
D03*
X58443Y26046D02*
D03*
X52476Y24501D02*
D03*
X67700Y62156D02*
D03*
X-35195Y-19200D02*
D03*
X-45100Y-19100D02*
D03*
X41242Y-16558D02*
D03*
X29700Y-16000D02*
D03*
X-7900Y-19400D02*
D03*
X2300D02*
D03*
M02*
