%FSLAX25Y25*%
%MOIN*%
G70*
G01*
G75*
%ADD10C,0.00500*%
%ADD11C,0.00667*%
D10*
X18202Y167107D02*
X21352D01*
X19777Y165532D02*
Y168682D01*
X-22152Y167107D02*
X-19002D01*
X-20577Y165532D02*
Y168682D01*
X18202Y181674D02*
X21352D01*
X19777Y180099D02*
Y183249D01*
X-22152Y181674D02*
X-19002D01*
X-20577Y180099D02*
Y183249D01*
X-11387Y145500D02*
X-9813D01*
X-10600Y144713D02*
Y146287D01*
X-14987Y145600D02*
X-13413D01*
X-14200Y144813D02*
Y146387D01*
X-19460Y145600D02*
X-17885D01*
X-18673Y144813D02*
Y146387D01*
X-23687Y145700D02*
X-22113D01*
X-22900Y144913D02*
Y146487D01*
X-23787Y150400D02*
X-22213D01*
X-23000Y149613D02*
Y151187D01*
X-20187Y151100D02*
X-18613D01*
X-19400Y150313D02*
Y151887D01*
X-17487Y151600D02*
X-15913D01*
X-16700Y150813D02*
Y152387D01*
X-14268Y151700D02*
X-12693D01*
X-13481Y150913D02*
Y152487D01*
X-10897Y151700D02*
X-9322D01*
X-10109Y150913D02*
Y152487D01*
X-19736Y17562D02*
X-18161D01*
X-18949Y16774D02*
Y18349D01*
X-1473Y18800D02*
X101D01*
X-686Y18013D02*
Y19587D01*
X6419Y18881D02*
X7994D01*
X7206Y18094D02*
Y19669D01*
X9572Y19000D02*
X11146D01*
X10359Y18213D02*
Y19787D01*
X-78823Y6500D02*
X-77248D01*
X-78035Y5713D02*
Y7287D01*
X-81887Y15500D02*
X-80313D01*
X-81100Y14713D02*
Y16287D01*
X-76487Y15600D02*
X-74913D01*
X-75700Y14813D02*
Y16387D01*
X-62887Y28300D02*
X-61313D01*
X-62100Y27513D02*
Y29087D01*
X-59187Y27100D02*
X-57613D01*
X-58400Y26313D02*
Y27887D01*
X-55344Y27228D02*
X-53769D01*
X-54556Y26441D02*
Y28016D01*
X-54187Y48000D02*
X-52613D01*
X-53400Y47213D02*
Y48787D01*
X-35187Y79900D02*
X-33613D01*
X-34400Y79113D02*
Y80687D01*
X-27787Y79139D02*
X-26213D01*
X-27000Y78352D02*
Y79927D01*
X25313Y81834D02*
X26887D01*
X26100Y81046D02*
Y82621D01*
X-29487Y3087D02*
X-27913D01*
X-28700Y2300D02*
Y3875D01*
X-25189Y3342D02*
X-23614D01*
X-24401Y2554D02*
Y4129D01*
X-20087Y3600D02*
X-18513D01*
X-19300Y2813D02*
Y4387D01*
X-19304Y7043D02*
X-17729D01*
X-18516Y6256D02*
Y7831D01*
X-24391Y7100D02*
X-22817D01*
X-23604Y6313D02*
Y7887D01*
X-29987Y7043D02*
X-28413D01*
X-29200Y6256D02*
Y7831D01*
X-33641Y8200D02*
X-32066D01*
X-32853Y7413D02*
Y8987D01*
X-37725Y9207D02*
X-36151D01*
X-36938Y8420D02*
Y9995D01*
X11430Y8300D02*
X13005D01*
X12217Y7513D02*
Y9087D01*
X17713Y5619D02*
X19287D01*
X18500Y4832D02*
Y6407D01*
X22482Y5500D02*
X24056D01*
X23269Y4713D02*
Y6287D01*
X27913Y5300D02*
X29487D01*
X28700Y4513D02*
Y6087D01*
X32413Y5200D02*
X33987D01*
X33200Y4413D02*
Y5987D01*
X33613Y9000D02*
X35187D01*
X34400Y8213D02*
Y9787D01*
X29265Y9200D02*
X30840D01*
X30053Y8413D02*
Y9987D01*
X24965Y9100D02*
X26540D01*
X25753Y8313D02*
Y9887D01*
X20413Y9100D02*
X21987D01*
X21200Y8313D02*
Y9887D01*
X16113Y8860D02*
X17687D01*
X16900Y8072D02*
Y9647D01*
X5550Y-2300D02*
X7125D01*
X6337Y-3087D02*
Y-1513D01*
X-2413Y-1600D02*
X-838D01*
X-1625Y-2387D02*
Y-813D01*
X-6306Y-2219D02*
X-4731D01*
X-5518Y-3007D02*
Y-1432D01*
X-6185Y941D02*
X-4611D01*
X-5398Y154D02*
Y1728D01*
X-3287Y1507D02*
X-1713D01*
X-2500Y720D02*
Y2295D01*
X73Y1600D02*
X1648D01*
X861Y813D02*
Y2387D01*
X3813Y1700D02*
X5387D01*
X4600Y913D02*
Y2487D01*
X8313Y1400D02*
X9887D01*
X9100Y613D02*
Y2187D01*
X11413Y1400D02*
X12987D01*
X12200Y613D02*
Y2187D01*
X11505Y4814D02*
X13080D01*
X12292Y4027D02*
Y5602D01*
X5964Y4814D02*
X7539D01*
X6752Y4027D02*
Y5602D01*
X1898Y4802D02*
X3473D01*
X2685Y4014D02*
Y5589D01*
X-1987Y4708D02*
X-413D01*
X-1200Y3920D02*
Y5495D01*
X-5787Y4802D02*
X-4213D01*
X-5000Y4014D02*
Y5589D01*
X18213Y155900D02*
X19787D01*
X19000Y155113D02*
Y156687D01*
X19213Y158200D02*
X20787D01*
X20000Y157413D02*
Y158987D01*
X21213Y160100D02*
X22787D01*
X22000Y159313D02*
Y160887D01*
X21113Y156000D02*
X22687D01*
X21900Y155213D02*
Y156787D01*
X19613Y153500D02*
X21187D01*
X20400Y152713D02*
Y154287D01*
X21934Y153200D02*
X23508D01*
X22721Y152413D02*
Y153987D01*
X24313Y154300D02*
X25887D01*
X25100Y153513D02*
Y155087D01*
X24761Y157200D02*
X26336D01*
X25549Y156413D02*
Y157987D01*
X-33687Y54000D02*
X-32113D01*
X-32900Y53213D02*
Y54787D01*
X72413Y-4000D02*
X73987D01*
X73200Y-4787D02*
Y-3213D01*
X76713Y-6400D02*
X78287D01*
X77500Y-7187D02*
Y-5613D01*
X80413Y-6400D02*
X81987D01*
X81200Y-7187D02*
Y-5613D01*
X83913Y-6100D02*
X85487D01*
X84700Y-6887D02*
Y-5313D01*
X79413Y-33800D02*
X80987D01*
X80200Y-34587D02*
Y-33013D01*
X-90387Y27300D02*
X-88813D01*
X-89600Y26513D02*
Y28087D01*
X-30403Y71591D02*
X-28829D01*
X-29616Y70803D02*
Y72378D01*
X36319Y79800D02*
X37894D01*
X37106Y79013D02*
Y80587D01*
X82413Y27200D02*
X83987D01*
X83200Y26413D02*
Y27987D01*
X-47347Y51099D02*
X-45773D01*
X-46560Y50312D02*
Y51887D01*
X-20487Y161500D02*
X-18913D01*
X-19700Y160713D02*
Y162287D01*
X-16187Y161500D02*
X-14613D01*
X-15400Y160713D02*
Y162287D01*
X-11987Y161500D02*
X-10413D01*
X-11200Y160713D02*
Y162287D01*
X-24487Y161468D02*
X-22913D01*
X-23700Y160680D02*
Y162255D01*
X75413Y-3600D02*
X76987D01*
X76200Y-4387D02*
Y-2813D01*
X78813Y-3600D02*
X80387D01*
X79600Y-4387D02*
Y-2813D01*
X82213Y-3500D02*
X83787D01*
X83000Y-4287D02*
Y-2713D01*
X85113Y-3600D02*
X86687D01*
X85900Y-4387D02*
Y-2813D01*
X85613Y-1100D02*
X87187D01*
X86400Y-1887D02*
Y-313D01*
X82213Y-1000D02*
X83787D01*
X83000Y-1787D02*
Y-213D01*
X78213Y-1000D02*
X79787D01*
X79000Y-1787D02*
Y-213D01*
X73813Y-900D02*
X75387D01*
X74600Y-1687D02*
Y-113D01*
X-40687Y18100D02*
X-39113D01*
X-39900Y17313D02*
Y18887D01*
X-91187Y4200D02*
X-89613D01*
X-90400Y3413D02*
Y4987D01*
X-97587Y37600D02*
X-96013D01*
X-96800Y36813D02*
Y38387D01*
X-92687Y-13400D02*
X-91113D01*
X-91900Y-14187D02*
Y-12613D01*
X-91887Y-44000D02*
X-90313D01*
X-91100Y-44787D02*
Y-43213D01*
X-89187Y-35800D02*
X-87613D01*
X-88400Y-36587D02*
Y-35013D01*
X-41887Y65400D02*
X-40313D01*
X-41100Y64613D02*
Y66187D01*
X-4487Y84900D02*
X-2913D01*
X-3700Y84113D02*
Y85687D01*
X7113Y84862D02*
X8687D01*
X7900Y84075D02*
Y85650D01*
X-30387Y113811D02*
X-28813D01*
X-29600Y113024D02*
Y114598D01*
X-31787Y110500D02*
X-30213D01*
X-31000Y109713D02*
Y111287D01*
X23813Y159600D02*
X25387D01*
X24600Y158813D02*
Y160387D01*
X-3687Y162900D02*
X-2113D01*
X-2900Y162113D02*
Y163687D01*
X-1187Y158600D02*
X387D01*
X-400Y157813D02*
Y159387D01*
X1313Y162900D02*
X2887D01*
X2100Y162113D02*
Y163687D01*
X44013Y-800D02*
X45587D01*
X44800Y-1587D02*
Y-13D01*
X43913Y14500D02*
X45487D01*
X44700Y13713D02*
Y15287D01*
X-3187Y10000D02*
X-1613D01*
X-2400Y9213D02*
Y10787D01*
X13Y9900D02*
X1587D01*
X800Y9113D02*
Y10687D01*
X-6543Y10200D02*
X-4969D01*
X-5756Y9413D02*
Y10987D01*
X-10187Y9900D02*
X-8613D01*
X-9400Y9113D02*
Y10687D01*
X76113Y-46700D02*
X77687D01*
X76900Y-47487D02*
Y-45913D01*
X66313Y-49700D02*
X67887D01*
X67100Y-50487D02*
Y-48913D01*
X69603Y-53290D02*
X71178D01*
X70390Y-54078D02*
Y-52503D01*
X86413Y-40100D02*
X87987D01*
X87200Y-40887D02*
Y-39313D01*
X-2387Y-88100D02*
X-813D01*
X-1600Y-88887D02*
Y-87313D01*
X-2387Y-92900D02*
X-813D01*
X-1600Y-93687D02*
Y-92113D01*
X-17387Y-95467D02*
X-15813D01*
X-16600Y-96254D02*
Y-94679D01*
X66413Y-60000D02*
X67987D01*
X67200Y-60787D02*
Y-59213D01*
X-81987Y-45696D02*
X-80413D01*
X-81200Y-46483D02*
Y-44908D01*
X77313Y-53600D02*
X78887D01*
X78100Y-54387D02*
Y-52813D01*
X-84687Y-60100D02*
X-83113D01*
X-83900Y-60887D02*
Y-59313D01*
X-94087Y45300D02*
X-92513D01*
X-93300Y44513D02*
Y46087D01*
X-47578Y20448D02*
X-46003D01*
X-46791Y19661D02*
Y21236D01*
X-20987Y24675D02*
X-19413D01*
X-20200Y23887D02*
Y25462D01*
X-24587Y29175D02*
X-23013D01*
X-23800Y28387D02*
Y29962D01*
X-21087Y69775D02*
X-19513D01*
X-20300Y68987D02*
Y70562D01*
X-33787Y34675D02*
X-32213D01*
X-33000Y33887D02*
Y35462D01*
X-15687Y69175D02*
X-14113D01*
X-14900Y68387D02*
Y69962D01*
X6213Y49512D02*
X7787D01*
X7000Y48724D02*
Y50299D01*
X5513Y60075D02*
X7087D01*
X6300Y59287D02*
Y60862D01*
X9650Y49675D02*
X11225D01*
X10438Y48887D02*
Y50462D01*
X8913Y60069D02*
X10487D01*
X9700Y59282D02*
Y60856D01*
X-42087Y51275D02*
X-40513D01*
X-41300Y50487D02*
Y52062D01*
X-43987Y36875D02*
X-42413D01*
X-43200Y36087D02*
Y37662D01*
X-18609Y59651D02*
X-17035D01*
X-17822Y58864D02*
Y60439D01*
X-27468Y18313D02*
X-25893D01*
X-26680Y17525D02*
Y19100D01*
X20194Y19297D02*
X21769D01*
X20982Y18509D02*
Y20084D01*
X36902Y19297D02*
X38477D01*
X37690Y18509D02*
Y20084D01*
X32579Y30321D02*
X34154D01*
X33366Y29533D02*
Y31108D01*
X39665Y28352D02*
X41240D01*
X40453Y27565D02*
Y29139D01*
X6968Y23807D02*
X8542D01*
X7755Y23019D02*
Y24594D01*
X3213Y23918D02*
X4787D01*
X4000Y23131D02*
Y24705D01*
X3213Y30375D02*
X4787D01*
X4000Y29587D02*
Y31162D01*
X6791Y30275D02*
X8366D01*
X7579Y29487D02*
Y31062D01*
X69688Y20301D02*
X71263D01*
X70476Y19513D02*
Y21088D01*
X-12881Y78352D02*
X-11306D01*
X-12094Y77565D02*
Y79139D01*
X-9187Y73875D02*
X-7613D01*
X-8400Y73087D02*
Y74662D01*
X69591Y32901D02*
X71166D01*
X70378Y32113D02*
Y33688D01*
X36913Y57775D02*
X38487D01*
X37700Y56987D02*
Y58562D01*
X27713Y57975D02*
X29287D01*
X28500Y57187D02*
Y58762D01*
X2413Y49475D02*
X3987D01*
X3200Y48687D02*
Y50262D01*
X4613Y65275D02*
X6187D01*
X5400Y64487D02*
Y66062D01*
X-6487Y64975D02*
X-4913D01*
X-5700Y64187D02*
Y65762D01*
X5713Y77975D02*
X7287D01*
X6500Y77187D02*
Y78762D01*
X41934Y24275D02*
X43508D01*
X42721Y23487D02*
Y25062D01*
X46913Y24575D02*
X48487D01*
X47700Y23787D02*
Y25362D01*
X-5423Y32802D02*
X-3849D01*
X-4636Y32015D02*
Y33589D01*
X-8350Y34875D02*
X-6775D01*
X-7563Y34087D02*
Y35662D01*
X-4480Y35875D02*
X-2905D01*
X-3693Y35087D02*
Y36662D01*
X15246Y29375D02*
X16821D01*
X16034Y28587D02*
Y30162D01*
X21813Y49575D02*
X23387D01*
X22600Y48787D02*
Y50362D01*
X32245Y50001D02*
X33820D01*
X33032Y49214D02*
Y50788D01*
X12013Y68258D02*
X13587D01*
X12800Y67471D02*
Y69045D01*
X12780Y71475D02*
X14354D01*
X13567Y70687D02*
Y72262D01*
X-18102Y77377D02*
X-16527D01*
X-17314Y76590D02*
Y78165D01*
X-10673Y19140D02*
X-9098D01*
X-9886Y18353D02*
Y19928D01*
X53688Y39354D02*
X55263D01*
X54476Y38567D02*
Y40142D01*
X53897Y34728D02*
X55472D01*
X54684Y33941D02*
Y35516D01*
X53968Y31501D02*
X55543D01*
X54756Y30713D02*
Y32288D01*
X54217Y28901D02*
X55791D01*
X55004Y28113D02*
Y29688D01*
X51688Y27601D02*
X53263D01*
X52476Y26813D02*
Y28388D01*
X57656Y26046D02*
X59231D01*
X58443Y25259D02*
Y26834D01*
X51688Y24501D02*
X53263D01*
X52476Y23713D02*
Y25288D01*
X66913Y62156D02*
X68487D01*
X67700Y61368D02*
Y62943D01*
X-35983Y-19200D02*
X-34408D01*
X-35195Y-19987D02*
Y-18413D01*
X-45887Y-19100D02*
X-44313D01*
X-45100Y-19887D02*
Y-18313D01*
X40454Y-16558D02*
X42029D01*
X41242Y-17346D02*
Y-15771D01*
X28913Y-16000D02*
X30487D01*
X29700Y-16787D02*
Y-15213D01*
X-8687Y-19400D02*
X-7113D01*
X-7900Y-20187D02*
Y-18613D01*
X1513Y-19400D02*
X3087D01*
X2300Y-20187D02*
Y-18613D01*
M02*
