%FSLAX25Y25*%
%MOIN*%
G70*
G01*
G75*
G04 Layer_Color=32896*
%ADD10C,0.00787*%
%ADD11C,0.01181*%
%ADD12C,0.01969*%
%ADD13R,0.01969X0.03937*%
G04:AMPARAMS|DCode=14|XSize=19.69mil|YSize=39.37mil|CornerRadius=0mil|HoleSize=0mil|Usage=FLASHONLY|Rotation=315.000|XOffset=0mil|YOffset=0mil|HoleType=Round|Shape=Rectangle|*
%AMROTATEDRECTD14*
4,1,4,-0.02088,-0.00696,0.00696,0.02088,0.02088,0.00696,-0.00696,-0.02088,-0.02088,-0.00696,0.0*
%
%ADD14ROTATEDRECTD14*%

G04:AMPARAMS|DCode=15|XSize=19.69mil|YSize=39.37mil|CornerRadius=0mil|HoleSize=0mil|Usage=FLASHONLY|Rotation=225.000|XOffset=0mil|YOffset=0mil|HoleType=Round|Shape=Rectangle|*
%AMROTATEDRECTD15*
4,1,4,-0.00696,0.02088,0.02088,-0.00696,0.00696,-0.02088,-0.02088,0.00696,-0.00696,0.02088,0.0*
%
%ADD15ROTATEDRECTD15*%

%ADD16R,0.03937X0.04724*%
G04:AMPARAMS|DCode=17|XSize=23.62mil|YSize=35.43mil|CornerRadius=0mil|HoleSize=0mil|Usage=FLASHONLY|Rotation=45.000|XOffset=0mil|YOffset=0mil|HoleType=Round|Shape=Rectangle|*
%AMROTATEDRECTD17*
4,1,4,0.00418,-0.02088,-0.02088,0.00418,-0.00418,0.02088,0.02088,-0.00418,0.00418,-0.02088,0.0*
%
%ADD17ROTATEDRECTD17*%

G04:AMPARAMS|DCode=18|XSize=23.62mil|YSize=35.43mil|CornerRadius=0mil|HoleSize=0mil|Usage=FLASHONLY|Rotation=315.000|XOffset=0mil|YOffset=0mil|HoleType=Round|Shape=Rectangle|*
%AMROTATEDRECTD18*
4,1,4,-0.02088,-0.00418,0.00418,0.02088,0.02088,0.00418,-0.00418,-0.02088,-0.02088,-0.00418,0.0*
%
%ADD18ROTATEDRECTD18*%

%ADD19R,0.03150X0.05118*%
%ADD20R,0.04724X0.03543*%
%ADD21R,0.01969X0.02362*%
%ADD22R,0.02362X0.01969*%
%ADD23R,0.02362X0.03543*%
%ADD24R,0.03937X0.02756*%
%ADD25R,0.02756X0.04921*%
%ADD26O,0.02362X0.05512*%
%ADD27R,0.02362X0.05512*%
%ADD28O,0.02362X0.07874*%
%ADD29R,0.01575X0.03937*%
%ADD30R,0.03937X0.03543*%
%ADD31R,0.01969X0.01575*%
%ADD32O,0.07480X0.12992*%
%ADD33R,0.02362X0.07874*%
%ADD34R,0.03150X0.07874*%
%ADD35R,0.01575X0.04724*%
%ADD36R,0.03543X0.03937*%
%ADD37R,0.06693X0.03543*%
%ADD38R,0.03543X0.02362*%
%ADD39R,0.04921X0.02756*%
%ADD40O,0.15748X0.11811*%
%ADD41O,0.07874X0.11811*%
%ADD42C,0.07874*%
%ADD43C,0.05906*%
%ADD44C,0.11811*%
%ADD45C,0.03937*%
%ADD46C,0.04724*%
%ADD47R,0.24200X0.17200*%
%ADD48R,0.05300X0.03507*%
%ADD49R,0.15182X0.11426*%
%ADD50R,0.14567X0.16142*%
%ADD51R,0.05512X0.13780*%
%ADD52R,0.08661X0.14173*%
%ADD53R,0.05906X0.13780*%
%ADD54R,0.19291X0.03830*%
%ADD55R,0.06400X0.17200*%
%ADD56R,0.29300X0.12570*%
%ADD57R,0.09645X0.14900*%
%ADD58O,0.05906X0.07874*%
%ADD59C,0.02362*%
%ADD60C,0.09843*%
%ADD61O,0.07874X0.05906*%
%ADD62R,0.07874X0.05906*%
%ADD63R,0.10581X0.53500*%
%ADD64R,0.07500X0.30800*%
%ADD65C,0.00394*%
%ADD66C,0.00197*%
%ADD67C,0.02362*%
%ADD68C,0.00984*%
%ADD69C,0.01000*%
%ADD70C,0.00400*%
%ADD71C,0.00591*%
%ADD72C,0.00200*%
%ADD73C,0.00500*%
%ADD74C,0.00800*%
%ADD75R,0.02769X0.04737*%
G04:AMPARAMS|DCode=76|XSize=27.69mil|YSize=47.37mil|CornerRadius=0mil|HoleSize=0mil|Usage=FLASHONLY|Rotation=315.000|XOffset=0mil|YOffset=0mil|HoleType=Round|Shape=Rectangle|*
%AMROTATEDRECTD76*
4,1,4,-0.02654,-0.00696,0.00696,0.02654,0.02654,0.00696,-0.00696,-0.02654,-0.02654,-0.00696,0.0*
%
%ADD76ROTATEDRECTD76*%

G04:AMPARAMS|DCode=77|XSize=27.69mil|YSize=47.37mil|CornerRadius=0mil|HoleSize=0mil|Usage=FLASHONLY|Rotation=225.000|XOffset=0mil|YOffset=0mil|HoleType=Round|Shape=Rectangle|*
%AMROTATEDRECTD77*
4,1,4,-0.00696,0.02654,0.02654,-0.00696,0.00696,-0.02654,-0.02654,0.00696,-0.00696,0.02654,0.0*
%
%ADD77ROTATEDRECTD77*%

%ADD78R,0.04737X0.05524*%
G04:AMPARAMS|DCode=79|XSize=31.62mil|YSize=43.43mil|CornerRadius=0mil|HoleSize=0mil|Usage=FLASHONLY|Rotation=45.000|XOffset=0mil|YOffset=0mil|HoleType=Round|Shape=Rectangle|*
%AMROTATEDRECTD79*
4,1,4,0.00418,-0.02654,-0.02654,0.00418,-0.00418,0.02654,0.02654,-0.00418,0.00418,-0.02654,0.0*
%
%ADD79ROTATEDRECTD79*%

G04:AMPARAMS|DCode=80|XSize=31.62mil|YSize=43.43mil|CornerRadius=0mil|HoleSize=0mil|Usage=FLASHONLY|Rotation=315.000|XOffset=0mil|YOffset=0mil|HoleType=Round|Shape=Rectangle|*
%AMROTATEDRECTD80*
4,1,4,-0.02654,-0.00418,0.00418,0.02654,0.02654,0.00418,-0.00418,-0.02654,-0.02654,-0.00418,0.0*
%
%ADD80ROTATEDRECTD80*%

%ADD81R,0.03950X0.05918*%
%ADD82R,0.05524X0.04343*%
%ADD83R,0.02769X0.03162*%
%ADD84R,0.03162X0.02769*%
%ADD85R,0.03162X0.04343*%
%ADD86R,0.04331X0.03150*%
%ADD87R,0.03556X0.05721*%
%ADD88O,0.03162X0.06312*%
%ADD89R,0.03162X0.06312*%
%ADD90O,0.03162X0.08674*%
%ADD91R,0.02375X0.04737*%
%ADD92R,0.04737X0.04343*%
%ADD93R,0.02769X0.02375*%
%ADD94O,0.08280X0.13792*%
%ADD95R,0.03162X0.08674*%
%ADD96R,0.03950X0.08674*%
%ADD97R,0.02375X0.05524*%
%ADD98R,0.04343X0.04737*%
%ADD99R,0.07493X0.04343*%
%ADD100R,0.04343X0.03162*%
%ADD101R,0.05721X0.03556*%
%ADD102O,0.16548X0.12611*%
%ADD103O,0.08674X0.12611*%
%ADD104O,0.06706X0.08674*%
%ADD105C,0.03162*%
%ADD106O,0.08674X0.06706*%
%ADD107R,0.08674X0.06706*%
D12*
X98425Y0D02*
G03*
X98425Y0I-98425J0D01*
G01*
D69*
X25000Y19800D02*
X23001D01*
X24000D01*
Y25798D01*
X25000Y24798D01*
X20002D02*
X19002Y25798D01*
X17003D01*
X16003Y24798D01*
Y20800D01*
X17003Y19800D01*
X19002D01*
X20002Y20800D01*
Y24798D01*
X14004Y25798D02*
Y19800D01*
X12004Y21799D01*
X10005Y19800D01*
Y25798D01*
X21001Y12598D02*
X25000D01*
Y9599D01*
X23001D01*
X25000D01*
Y6600D01*
X18002D02*
X16003D01*
X15003Y7600D01*
Y9599D01*
X16003Y10599D01*
X18002D01*
X19002Y9599D01*
Y7600D01*
X18002Y6600D01*
X13004Y10599D02*
Y6600D01*
Y8599D01*
X12004Y9599D01*
X11005Y10599D01*
X10005D01*
X22801Y-15902D02*
X23801Y-14902D01*
X25800D01*
X26800Y-15902D01*
Y-16901D01*
X25800Y-17901D01*
X23801D01*
X22801Y-18901D01*
Y-19900D01*
X23801Y-20900D01*
X25800D01*
X26800Y-19900D01*
X20802Y-20900D02*
Y-16901D01*
X18803Y-14902D01*
X16803Y-16901D01*
Y-20900D01*
Y-17901D01*
X20802D01*
X14804Y-20900D02*
Y-14902D01*
X10805Y-20900D01*
Y-14902D01*
X4807Y-15902D02*
X5807Y-14902D01*
X7806D01*
X8806Y-15902D01*
Y-16901D01*
X7806Y-17901D01*
X5807D01*
X4807Y-18901D01*
Y-19900D01*
X5807Y-20900D01*
X7806D01*
X8806Y-19900D01*
X2808Y-14902D02*
Y-19900D01*
X1808Y-20900D01*
X-191D01*
X-1191Y-19900D01*
Y-14902D01*
X-3190Y-20900D02*
Y-14902D01*
X-7189Y-20900D01*
Y-14902D01*
X-13187Y-15902D02*
X-12187Y-14902D01*
X-10188D01*
X-9188Y-15902D01*
Y-19900D01*
X-10188Y-20900D01*
X-12187D01*
X-13187Y-19900D01*
Y-17901D01*
X-11188D01*
X25900Y-1702D02*
X23901D01*
X24900D01*
Y-7700D01*
X25900D01*
X23901D01*
X20902Y-9699D02*
Y-3701D01*
X17903D01*
X16903Y-4701D01*
Y-6700D01*
X17903Y-7700D01*
X20902D01*
X14904Y-1702D02*
Y-7700D01*
Y-4701D01*
X13904Y-3701D01*
X11904D01*
X10905Y-4701D01*
Y-7700D01*
X7906D02*
X5906D01*
X4907Y-6700D01*
Y-4701D01*
X5906Y-3701D01*
X7906D01*
X8906Y-4701D01*
Y-6700D01*
X7906Y-7700D01*
X2907D02*
Y-3701D01*
X-92D01*
X-1091Y-4701D01*
Y-7700D01*
X-6090D02*
X-4090D01*
X-3091Y-6700D01*
Y-4701D01*
X-4090Y-3701D01*
X-6090D01*
X-7089Y-4701D01*
Y-5701D01*
X-3091D01*
X-15087Y-1702D02*
X-19085Y-7700D01*
Y-1702D02*
X-15087Y-7700D01*
D73*
X-44021Y21953D02*
X-34179D01*
Y69197D01*
X-44021Y21953D02*
Y69197D01*
X-34179D01*
M02*
