%FSLAX25Y25*%
%MOIN*%
G70*
G01*
G75*
G04 Layer_Color=8421504*
%ADD10C,0.00787*%
%ADD11C,0.01181*%
%ADD12C,0.01969*%
%ADD13R,0.01969X0.03937*%
G04:AMPARAMS|DCode=14|XSize=19.69mil|YSize=39.37mil|CornerRadius=0mil|HoleSize=0mil|Usage=FLASHONLY|Rotation=315.000|XOffset=0mil|YOffset=0mil|HoleType=Round|Shape=Rectangle|*
%AMROTATEDRECTD14*
4,1,4,-0.02088,-0.00696,0.00696,0.02088,0.02088,0.00696,-0.00696,-0.02088,-0.02088,-0.00696,0.0*
%
%ADD14ROTATEDRECTD14*%

G04:AMPARAMS|DCode=15|XSize=19.69mil|YSize=39.37mil|CornerRadius=0mil|HoleSize=0mil|Usage=FLASHONLY|Rotation=225.000|XOffset=0mil|YOffset=0mil|HoleType=Round|Shape=Rectangle|*
%AMROTATEDRECTD15*
4,1,4,-0.00696,0.02088,0.02088,-0.00696,0.00696,-0.02088,-0.02088,0.00696,-0.00696,0.02088,0.0*
%
%ADD15ROTATEDRECTD15*%

%ADD16R,0.03937X0.04724*%
G04:AMPARAMS|DCode=17|XSize=23.62mil|YSize=35.43mil|CornerRadius=0mil|HoleSize=0mil|Usage=FLASHONLY|Rotation=45.000|XOffset=0mil|YOffset=0mil|HoleType=Round|Shape=Rectangle|*
%AMROTATEDRECTD17*
4,1,4,0.00418,-0.02088,-0.02088,0.00418,-0.00418,0.02088,0.02088,-0.00418,0.00418,-0.02088,0.0*
%
%ADD17ROTATEDRECTD17*%

G04:AMPARAMS|DCode=18|XSize=23.62mil|YSize=35.43mil|CornerRadius=0mil|HoleSize=0mil|Usage=FLASHONLY|Rotation=315.000|XOffset=0mil|YOffset=0mil|HoleType=Round|Shape=Rectangle|*
%AMROTATEDRECTD18*
4,1,4,-0.02088,-0.00418,0.00418,0.02088,0.02088,0.00418,-0.00418,-0.02088,-0.02088,-0.00418,0.0*
%
%ADD18ROTATEDRECTD18*%

%ADD19R,0.03150X0.05118*%
%ADD20R,0.04724X0.03543*%
%ADD21R,0.01969X0.02362*%
%ADD22R,0.02362X0.01969*%
%ADD23R,0.02362X0.03543*%
%ADD24R,0.03937X0.02756*%
%ADD25R,0.02756X0.04921*%
%ADD26O,0.02362X0.05512*%
%ADD27R,0.02362X0.05512*%
%ADD28O,0.02362X0.07874*%
%ADD29R,0.01575X0.03937*%
%ADD30R,0.03937X0.03543*%
%ADD31R,0.01969X0.01575*%
%ADD32O,0.07480X0.12992*%
%ADD33R,0.02362X0.07874*%
%ADD34R,0.03150X0.07874*%
%ADD35R,0.01575X0.04724*%
%ADD36R,0.03543X0.03937*%
%ADD37R,0.06693X0.03543*%
%ADD38R,0.03543X0.02362*%
%ADD39R,0.04921X0.02756*%
%ADD40O,0.15748X0.11811*%
%ADD41O,0.07874X0.11811*%
%ADD42C,0.07874*%
%ADD43C,0.05906*%
%ADD44C,0.11811*%
%ADD45C,0.03937*%
%ADD46C,0.04724*%
%ADD47R,0.24200X0.17200*%
%ADD48R,0.05300X0.03507*%
%ADD49R,0.15182X0.11426*%
%ADD50R,0.14567X0.16142*%
%ADD51R,0.05512X0.13780*%
%ADD52R,0.08661X0.14173*%
%ADD53R,0.05906X0.13780*%
%ADD54R,0.19291X0.03830*%
%ADD55R,0.06400X0.17200*%
%ADD56R,0.29300X0.12570*%
%ADD57R,0.09645X0.14900*%
%ADD58O,0.05906X0.07874*%
%ADD59C,0.02362*%
%ADD60C,0.09843*%
%ADD61O,0.07874X0.05906*%
%ADD62R,0.07874X0.05906*%
%ADD63R,0.10581X0.53500*%
%ADD64R,0.07500X0.30800*%
%ADD65C,0.00394*%
%ADD66C,0.00197*%
%ADD67C,0.02362*%
%ADD68C,0.00984*%
%ADD69C,0.01000*%
%ADD70C,0.00400*%
%ADD71C,0.00591*%
%ADD72C,0.00200*%
%ADD73C,0.00500*%
%ADD74C,0.00800*%
D13*
X-8318Y106500D02*
D03*
X-4775D02*
D03*
X-1625D02*
D03*
X1918D02*
D03*
X-4718Y-94700D02*
D03*
X-1175D02*
D03*
X1975D02*
D03*
X5518D02*
D03*
D14*
X91819Y44081D02*
D03*
X89314Y46586D02*
D03*
X87086Y48814D02*
D03*
X84581Y51319D02*
D03*
X-74581Y-61419D02*
D03*
X-77087Y-58913D02*
D03*
X-79314Y-56686D02*
D03*
X-81819Y-54181D02*
D03*
D15*
X86219Y-55797D02*
D03*
X83714Y-58302D02*
D03*
X81486Y-60529D02*
D03*
X78981Y-63035D02*
D03*
X-86481Y48419D02*
D03*
X-88986Y45914D02*
D03*
X-91214Y43687D02*
D03*
X-93719Y41181D02*
D03*
D16*
X3537Y158300D02*
D03*
X-4337D02*
D03*
D17*
X70351Y-63049D02*
D03*
X74249Y-59151D02*
D03*
X-79951Y46549D02*
D03*
X-83849Y42651D02*
D03*
D18*
X-80123Y-47651D02*
D03*
X-76226Y-51549D02*
D03*
X91649Y35651D02*
D03*
X87751Y39549D02*
D03*
D19*
X-57760Y-48512D02*
D03*
Y-57528D02*
D03*
X11524Y81701D02*
D03*
X11524Y90717D02*
D03*
D20*
X-88424Y-29537D02*
D03*
X-78976Y-25600D02*
D03*
X-88424Y-21663D02*
D03*
Y-11261D02*
D03*
X-78976Y-7324D02*
D03*
X-88424Y-3387D02*
D03*
Y6739D02*
D03*
X-78976Y10676D02*
D03*
X-88424Y14613D02*
D03*
D21*
X-85672Y1176D02*
D03*
X-82128D02*
D03*
X-81828Y-17124D02*
D03*
X-85372D02*
D03*
X-82728Y20376D02*
D03*
X-86272D02*
D03*
X41242Y-14058D02*
D03*
X37698D02*
D03*
X29824Y-13664D02*
D03*
X26281D02*
D03*
X-36228Y15847D02*
D03*
X-39772D02*
D03*
X-36348Y20500D02*
D03*
X-39891D02*
D03*
X-73772Y31300D02*
D03*
X-70228D02*
D03*
X-50545Y39863D02*
D03*
X-47001D02*
D03*
X-57041Y39863D02*
D03*
X-60584D02*
D03*
X-50545Y43899D02*
D03*
X-47001D02*
D03*
X-5472Y70575D02*
D03*
X-1928D02*
D03*
X-57028Y48200D02*
D03*
X-60572D02*
D03*
X-1172Y45975D02*
D03*
X2372D02*
D03*
X-49928Y3100D02*
D03*
X-53472D02*
D03*
X-19694Y-1065D02*
D03*
X-16150D02*
D03*
X-61487Y3014D02*
D03*
X-57944Y3014D02*
D03*
X-60600Y43914D02*
D03*
X-57056Y43914D02*
D03*
X-2013Y76161D02*
D03*
X-5556Y76161D02*
D03*
X-50560Y47950D02*
D03*
X-47017Y47950D02*
D03*
X62697Y29787D02*
D03*
X59154Y29787D02*
D03*
D22*
X68390Y30771D02*
D03*
Y27228D02*
D03*
X-29616Y84880D02*
D03*
Y81336D02*
D03*
X32800Y35616D02*
D03*
Y32072D02*
D03*
X27780D02*
D03*
Y35616D02*
D03*
X37623Y32072D02*
D03*
Y35616D02*
D03*
X12820Y32072D02*
D03*
Y35616D02*
D03*
X17839D02*
D03*
Y32072D02*
D03*
X17642Y74395D02*
D03*
Y70852D02*
D03*
X32603Y70852D02*
D03*
Y74395D02*
D03*
X27583D02*
D03*
Y70852D02*
D03*
X37623D02*
D03*
Y74395D02*
D03*
X42642D02*
D03*
Y70852D02*
D03*
X28080Y88280D02*
D03*
Y84737D02*
D03*
X32804Y88280D02*
D03*
Y84737D02*
D03*
X23749D02*
D03*
Y88280D02*
D03*
X5639Y84615D02*
D03*
Y88158D02*
D03*
X-14900Y81249D02*
D03*
Y84792D02*
D03*
X-19300Y84679D02*
D03*
Y81135D02*
D03*
X-16300Y30303D02*
D03*
Y33846D02*
D03*
X-11500Y75846D02*
D03*
Y72303D02*
D03*
X-63106Y-54772D02*
D03*
Y-51228D02*
D03*
X-62460Y-58528D02*
D03*
Y-62072D02*
D03*
X-20300Y75776D02*
D03*
Y72233D02*
D03*
X-11686Y33962D02*
D03*
X-11686Y30419D02*
D03*
X-15514Y72287D02*
D03*
X-15514Y75831D02*
D03*
X-37186Y76162D02*
D03*
X-37186Y72619D02*
D03*
X42725Y32057D02*
D03*
X42725Y35600D02*
D03*
X-5514Y-9287D02*
D03*
X-5514Y-5744D02*
D03*
X-10109Y84862D02*
D03*
X-10109Y81319D02*
D03*
X-67142Y-54775D02*
D03*
X-67141Y-51232D02*
D03*
D23*
X-5756Y98500D02*
D03*
X-244D02*
D03*
X-15056Y-94600D02*
D03*
X-9544D02*
D03*
D24*
X18237Y83240D02*
D03*
X18237Y89540D02*
D03*
D25*
X-14664Y-6971D02*
D03*
X-21357D02*
D03*
X-21750Y-22719D02*
D03*
X-15057D02*
D03*
X-21357Y-14845D02*
D03*
X-14664D02*
D03*
X-41346Y3500D02*
D03*
X-34653D02*
D03*
X64748Y21505D02*
D03*
X58055D02*
D03*
X57957Y36677D02*
D03*
X64650D02*
D03*
D26*
X-61293Y33564D02*
D03*
X-46293Y11517D02*
D03*
X-56293D02*
D03*
X-46293Y33564D02*
D03*
X-56293D02*
D03*
X-61293Y11517D02*
D03*
X-51293D02*
D03*
X-51293Y33564D02*
D03*
X-35195Y-22522D02*
D03*
Y-44569D02*
D03*
X-40195Y-22522D02*
D03*
X-30195D02*
D03*
Y-44569D02*
D03*
X-45195Y-22522D02*
D03*
X-40195Y-44569D02*
D03*
X-45195D02*
D03*
X2206Y-22522D02*
D03*
Y-44569D02*
D03*
X-2794Y-22522D02*
D03*
X7206D02*
D03*
Y-44569D02*
D03*
X-7794Y-22522D02*
D03*
X-2794Y-44569D02*
D03*
X-7794D02*
D03*
D27*
X12721Y42505D02*
D03*
X42721D02*
D03*
X37721D02*
D03*
X32721D02*
D03*
X27721D02*
D03*
X22721D02*
D03*
X17721D02*
D03*
X12721Y63962D02*
D03*
X17721D02*
D03*
X22721D02*
D03*
X27721D02*
D03*
X32721D02*
D03*
X37721D02*
D03*
X42721D02*
D03*
D28*
X29608Y-21341D02*
D03*
X44608Y-45750D02*
D03*
X34608D02*
D03*
X44608Y-21341D02*
D03*
X34608D02*
D03*
X29608Y-45750D02*
D03*
X39608D02*
D03*
Y-21341D02*
D03*
D29*
X9836Y165926D02*
D03*
X2159D02*
D03*
X-400D02*
D03*
X-2959D02*
D03*
X-10636D02*
D03*
X-5518D02*
D03*
X-8077D02*
D03*
X4718D02*
D03*
X7277D02*
D03*
D30*
X-76124Y22446D02*
D03*
X-66676Y26384D02*
D03*
Y18509D02*
D03*
D31*
X-13098Y23234D02*
D03*
Y20675D02*
D03*
Y18116D02*
D03*
X-5617D02*
D03*
Y20675D02*
D03*
Y23234D02*
D03*
X-30421D02*
D03*
Y20675D02*
D03*
Y18116D02*
D03*
X-22940D02*
D03*
Y20675D02*
D03*
Y23234D02*
D03*
X16824D02*
D03*
Y20675D02*
D03*
Y18116D02*
D03*
X24304D02*
D03*
Y20675D02*
D03*
Y23234D02*
D03*
X34146D02*
D03*
Y20675D02*
D03*
Y18116D02*
D03*
X41627D02*
D03*
Y20675D02*
D03*
Y23234D02*
D03*
D32*
X60909Y55181D02*
D03*
D33*
X55004Y45732D02*
D03*
X66815D02*
D03*
D34*
X60909D02*
D03*
D35*
X-10224Y41565D02*
D03*
X-12783D02*
D03*
X-15342D02*
D03*
X-17901D02*
D03*
X-20460D02*
D03*
X-23019D02*
D03*
X-25578D02*
D03*
X-28137D02*
D03*
X-30696D02*
D03*
X-33255D02*
D03*
Y65187D02*
D03*
X-30696D02*
D03*
X-28137D02*
D03*
X-25578D02*
D03*
X-23019D02*
D03*
X-20460D02*
D03*
X-17901D02*
D03*
X-15342D02*
D03*
X-12783D02*
D03*
X-10224D02*
D03*
D36*
X4037Y41099D02*
D03*
X-3837D02*
D03*
X100Y31650D02*
D03*
D37*
X-40680Y-70498D02*
D03*
Y-59475D02*
D03*
X-22341Y-29805D02*
D03*
Y-40829D02*
D03*
X-23700Y-70512D02*
D03*
Y-59488D02*
D03*
X-32021Y-70476D02*
D03*
Y-59453D02*
D03*
X-49344Y-70498D02*
D03*
Y-59475D02*
D03*
D38*
X-53050Y-29609D02*
D03*
Y-35514D02*
D03*
X52856Y-35514D02*
D03*
Y-29609D02*
D03*
X60336Y-34924D02*
D03*
Y-29412D02*
D03*
X-29700Y76531D02*
D03*
Y71019D02*
D03*
D39*
X1281Y-3231D02*
D03*
Y-9924D02*
D03*
X11100Y-3153D02*
D03*
Y-9847D02*
D03*
D40*
X-44688Y-76500D02*
D03*
X28104Y-71800D02*
D03*
D41*
X12200Y152300D02*
D03*
X-13000Y152700D02*
D03*
M02*
