M48
;Layer_Color=9474304
;FILE_FORMAT=2:5
INCH,LZ
;TYPE=PLATED
T1F00S00C0.01575
%
T01
X00781Y-00536
X00769Y-00467
X00802Y-00338
X00872Y-00401
X00847Y-00061
X00859Y-00036
X00864Y-00011
X0083Y-0001
Y-00035
X00796Y-00036
X0079Y-0001
X00746Y-00009
X00762Y-00036
X00732Y-0004
X00775Y-00064
X00812
X0070476Y0020301
X00447Y00145
X003769Y0019297
X00344Y0009
X0030053Y00092
X0025753Y00091
X00212
X00169Y000886
X00185Y0005619
X0023269Y00055
X00287Y00053
X00332Y00052
X00448Y-00008
X0041242Y-0016558
X00297Y-0016
X00023Y-00194
X-00079
X-0005518Y-0002219
X-0005398Y0000941
X-00025Y0001507
X0000861Y00016
X00046Y00017
X00091Y00014
X00122
X0012292Y0004814
X0012217Y00083
X0006752Y0004814
X0002685Y0004802
X-00012Y0004708
X-0005Y0004802
X-0005756Y00102
X-00024Y001
X00008Y00099
X-00094
X-0009886Y001914
X-0000686Y00188
X0007206Y0018881
X0010359Y0019
X0020982Y0019297
X0006337Y-00023
X-0001625Y-00016
X-00193Y00036
X-0018516Y0007043
X-0023604Y00071
X-0024401Y0003342
X-00287Y0003087
X-00292Y0007043
X-0032853Y00082
X-0036938Y0009207
X-00399Y00181
X-0046791Y0020448
X-002668Y0018313
X-0018949Y0017562
X-0035195Y-00192
X-00451Y-00191
X-0078035Y00065
X-00757Y00156
X-00811Y00155
X-00812Y-0045696
X-00839Y-00601
X-00166Y-0095467
X-00016Y-00929
Y-00881
X00672Y-006
X007039Y-005329
X00671Y-00497
X-00911Y-0044
X-00884Y-00358
X-00919Y-00134
X-00904Y00042
X-00896Y00273
X-00968Y00376
X-00933Y00453
X-00534Y0048
X-004656Y0051099
X-00413Y0051275
X-00329Y0054
X-0033Y0034675
X-00432Y0036875
X-0054556Y0027228
X-00584Y00271
X-00621Y00283
X-00238Y0029175
X-00202Y0024675
X-0007563Y0034875
X-0003693Y0035875
X-0004636Y0032802
X0004Y0030375
X0007579Y0030275
X0007755Y0023807
X0004Y0023918
X0016034Y0029375
X0033366Y0030321
X0040453Y0028352
X0042721Y0024275
X00477Y0024575
X0052476Y0024501
Y0027601
X0055004Y0028901
X0054756Y0031501
X0054684Y0034728
X0054476Y0039354
X0058443Y0026046
X0070378Y0032901
X00677Y0062156
X00377Y0057775
X00285Y0057975
X0033032Y0050001
X00226Y0049575
X0010438Y0049675
X0007Y0049512
X00032Y0049475
X00063Y0060075
X00097Y0060069
X00054Y0065275
X00128Y0068258
X0013567Y0071475
X00065Y0077975
X00079Y0084862
X-00037Y00849
X-0012094Y0078352
X-0017314Y0077377
X-00203Y0069775
X-00149Y0069175
X-00084Y0073875
X-00057Y0064975
X-0017822Y0059651
X-0029616Y0071591
X-0027Y0079139
X-00344Y00799
X-00411Y00654
X-0031Y01105
X-00296Y0113811
X-00229Y01457
X-0018673Y01456
X-00142
X-00106Y01455
X-0010109Y01517
X-0013481
X-00167Y01516
X-00194Y01511
X-0023Y01504
X-00237Y0161468
X-00197Y01615
X-00154
X-00112
X-00029Y01629
X00021
X-00004Y01586
X002Y01582
X0019Y01559
X00219Y0156
X0022721Y01532
X00204Y01535
X00251Y01543
X0025549Y01572
X00246Y01596
X0022Y01601
X00261Y0081834
X0037106Y00798
X00832Y00272
M30
