%FSLAX25Y25*%
%MOIN*%
G70*
G01*
G75*
G04 Layer_Color=8388736*
%ADD10C,0.00787*%
%ADD11C,0.01181*%
%ADD12C,0.01969*%
%ADD13O,0.07874X0.11811*%
%ADD14O,0.15748X0.11811*%
%ADD15R,0.03543X0.02362*%
%ADD16R,0.02362X0.01969*%
%ADD17R,0.04921X0.02756*%
%ADD18R,0.02756X0.04921*%
%ADD19R,0.01969X0.02362*%
%ADD20R,0.06693X0.03543*%
%ADD21O,0.02362X0.05512*%
%ADD22R,0.03543X0.03937*%
%ADD23R,0.01575X0.04724*%
%ADD24R,0.03150X0.07874*%
%ADD25R,0.02362X0.07874*%
%ADD26O,0.07480X0.12992*%
G04:AMPARAMS|DCode=27|XSize=23.62mil|YSize=35.43mil|CornerRadius=0mil|HoleSize=0mil|Usage=FLASHONLY|Rotation=135.000|XOffset=0mil|YOffset=0mil|HoleType=Round|Shape=Rectangle|*
%AMROTATEDRECTD27*
4,1,4,0.02088,0.00418,-0.00418,-0.02088,-0.02088,-0.00418,0.00418,0.02088,0.02088,0.00418,0.0*
%
%ADD27ROTATEDRECTD27*%

%ADD28R,0.02362X0.03543*%
%ADD29R,0.01969X0.01575*%
%ADD30R,0.03937X0.03543*%
%ADD31R,0.01575X0.03937*%
%ADD32O,0.02362X0.07874*%
%ADD33R,0.02362X0.05512*%
%ADD34R,0.03150X0.05118*%
%ADD35R,0.03937X0.02756*%
G04:AMPARAMS|DCode=36|XSize=23.62mil|YSize=35.43mil|CornerRadius=0mil|HoleSize=0mil|Usage=FLASHONLY|Rotation=225.000|XOffset=0mil|YOffset=0mil|HoleType=Round|Shape=Rectangle|*
%AMROTATEDRECTD36*
4,1,4,-0.00418,0.02088,0.02088,-0.00418,0.00418,-0.02088,-0.02088,0.00418,-0.00418,0.02088,0.0*
%
%ADD36ROTATEDRECTD36*%

%ADD37R,0.04724X0.03543*%
%ADD38R,0.03937X0.04724*%
G04:AMPARAMS|DCode=39|XSize=19.69mil|YSize=39.37mil|CornerRadius=0mil|HoleSize=0mil|Usage=FLASHONLY|Rotation=45.000|XOffset=0mil|YOffset=0mil|HoleType=Round|Shape=Rectangle|*
%AMROTATEDRECTD39*
4,1,4,0.00696,-0.02088,-0.02088,0.00696,-0.00696,0.02088,0.02088,-0.00696,0.00696,-0.02088,0.0*
%
%ADD39ROTATEDRECTD39*%

G04:AMPARAMS|DCode=40|XSize=19.69mil|YSize=39.37mil|CornerRadius=0mil|HoleSize=0mil|Usage=FLASHONLY|Rotation=135.000|XOffset=0mil|YOffset=0mil|HoleType=Round|Shape=Rectangle|*
%AMROTATEDRECTD40*
4,1,4,0.02088,0.00696,-0.00696,-0.02088,-0.02088,-0.00696,0.00696,0.02088,0.02088,0.00696,0.0*
%
%ADD40ROTATEDRECTD40*%

%ADD41R,0.01969X0.03937*%
%ADD42C,0.07874*%
%ADD43C,0.03937*%
%ADD44C,0.05906*%
%ADD45C,0.04724*%
%ADD46C,0.11811*%
%ADD47R,0.09645X0.14900*%
%ADD48R,0.29300X0.12570*%
%ADD49R,0.06400X0.17200*%
%ADD50R,0.19291X0.03830*%
%ADD51R,0.05906X0.13780*%
%ADD52R,0.08661X0.14173*%
%ADD53R,0.05512X0.13780*%
%ADD54R,0.14567X0.16142*%
%ADD55R,0.15182X0.11426*%
%ADD56R,0.05300X0.03507*%
%ADD57R,0.24200X0.17200*%
%ADD58O,0.05906X0.07874*%
%ADD59C,0.02362*%
%ADD60C,0.09843*%
%ADD61O,0.07874X0.05906*%
%ADD62R,0.07874X0.05906*%
%ADD63R,0.07500X0.30800*%
%ADD64R,0.10581X0.53500*%
%ADD65C,0.00394*%
%ADD66C,0.00197*%
%ADD67C,0.00984*%
%ADD68C,0.01000*%
%ADD69C,0.02362*%
%ADD70C,0.00591*%
%ADD71C,0.00800*%
%ADD72C,0.00500*%
%ADD73C,0.00200*%
%ADD74C,0.00400*%
%ADD75O,0.08674X0.12611*%
%ADD76O,0.16548X0.12611*%
%ADD77R,0.04343X0.03162*%
%ADD78R,0.03162X0.02769*%
%ADD79R,0.05721X0.03556*%
%ADD80R,0.03556X0.05721*%
%ADD81R,0.02769X0.03162*%
%ADD82R,0.07493X0.04343*%
%ADD83O,0.03162X0.06312*%
%ADD84R,0.04343X0.04737*%
%ADD85R,0.02375X0.05524*%
%ADD86R,0.03950X0.08674*%
%ADD87R,0.03162X0.08674*%
%ADD88O,0.08280X0.13792*%
G04:AMPARAMS|DCode=89|XSize=31.62mil|YSize=43.43mil|CornerRadius=0mil|HoleSize=0mil|Usage=FLASHONLY|Rotation=135.000|XOffset=0mil|YOffset=0mil|HoleType=Round|Shape=Rectangle|*
%AMROTATEDRECTD89*
4,1,4,0.02654,0.00418,-0.00418,-0.02654,-0.02654,-0.00418,0.00418,0.02654,0.02654,0.00418,0.0*
%
%ADD89ROTATEDRECTD89*%

%ADD90R,0.03162X0.04343*%
%ADD91R,0.02769X0.02375*%
%ADD92R,0.04737X0.04343*%
%ADD93R,0.02375X0.04737*%
%ADD94O,0.03162X0.08674*%
%ADD95R,0.03162X0.06312*%
%ADD96R,0.03950X0.05918*%
%ADD97R,0.04331X0.03150*%
G04:AMPARAMS|DCode=98|XSize=31.62mil|YSize=43.43mil|CornerRadius=0mil|HoleSize=0mil|Usage=FLASHONLY|Rotation=225.000|XOffset=0mil|YOffset=0mil|HoleType=Round|Shape=Rectangle|*
%AMROTATEDRECTD98*
4,1,4,-0.00418,0.02654,0.02654,-0.00418,0.00418,-0.02654,-0.02654,0.00418,-0.00418,0.02654,0.0*
%
%ADD98ROTATEDRECTD98*%

%ADD99R,0.05524X0.04343*%
%ADD100R,0.04737X0.05524*%
G04:AMPARAMS|DCode=101|XSize=27.69mil|YSize=47.37mil|CornerRadius=0mil|HoleSize=0mil|Usage=FLASHONLY|Rotation=45.000|XOffset=0mil|YOffset=0mil|HoleType=Round|Shape=Rectangle|*
%AMROTATEDRECTD101*
4,1,4,0.00696,-0.02654,-0.02654,0.00696,-0.00696,0.02654,0.02654,-0.00696,0.00696,-0.02654,0.0*
%
%ADD101ROTATEDRECTD101*%

G04:AMPARAMS|DCode=102|XSize=27.69mil|YSize=47.37mil|CornerRadius=0mil|HoleSize=0mil|Usage=FLASHONLY|Rotation=135.000|XOffset=0mil|YOffset=0mil|HoleType=Round|Shape=Rectangle|*
%AMROTATEDRECTD102*
4,1,4,0.02654,0.00696,-0.00696,-0.02654,-0.02654,-0.00696,0.00696,0.02654,0.02654,0.00696,0.0*
%
%ADD102ROTATEDRECTD102*%

%ADD103R,0.02769X0.04737*%
%ADD104O,0.06706X0.08674*%
%ADD105C,0.03162*%
D10*
X-26800Y142004D02*
X-18928D01*
X21200Y142404D02*
X29072D01*
X25136Y146339D02*
Y138468D01*
D59*
X2300Y-19400D02*
D03*
X-7900D02*
D03*
X29700Y-16000D02*
D03*
X41242Y-16558D02*
D03*
X67700Y62156D02*
D03*
X52476Y24501D02*
D03*
X58443Y26046D02*
D03*
X52476Y27601D02*
D03*
X55004Y28901D02*
D03*
X54756Y31501D02*
D03*
X54684Y34728D02*
D03*
X54476Y39354D02*
D03*
X-17314Y77377D02*
D03*
X13567Y71475D02*
D03*
X12800Y68258D02*
D03*
X33032Y50001D02*
D03*
X22600Y49575D02*
D03*
X16034Y29375D02*
D03*
X-3693Y35875D02*
D03*
X-7563Y34875D02*
D03*
X-4636Y32802D02*
D03*
X6500Y77975D02*
D03*
X70378Y32901D02*
D03*
X70476Y20301D02*
D03*
X-20300Y69775D02*
D03*
X-46791Y20448D02*
D03*
X-93300Y45300D02*
D03*
X-81200Y-45696D02*
D03*
X67200Y-60000D02*
D03*
X-41100Y65400D02*
D03*
X-96800Y37600D02*
D03*
X74600Y-900D02*
D03*
X79000Y-1000D02*
D03*
X83000D02*
D03*
X86400Y-1100D02*
D03*
X85900Y-3600D02*
D03*
X83000Y-3500D02*
D03*
X79600Y-3600D02*
D03*
X76200D02*
D03*
X-23700Y161468D02*
D03*
X-11200Y161500D02*
D03*
X-15400D02*
D03*
X-19700D02*
D03*
X84700Y-6100D02*
D03*
X81200Y-6400D02*
D03*
X77500D02*
D03*
X73200Y-4000D02*
D03*
X25549Y157200D02*
D03*
X25100Y154300D02*
D03*
X22721Y153200D02*
D03*
X20400Y153500D02*
D03*
X21900Y156000D02*
D03*
X22000Y160100D02*
D03*
X20000Y158200D02*
D03*
X19000Y155900D02*
D03*
X-5000Y4802D02*
D03*
X-1200Y4708D02*
D03*
X2685Y4802D02*
D03*
X6752Y4814D02*
D03*
X12292D02*
D03*
X12200Y1400D02*
D03*
X9100D02*
D03*
X4600Y1700D02*
D03*
X861Y1600D02*
D03*
X-2500Y1507D02*
D03*
X-5398Y941D02*
D03*
X-5518Y-2219D02*
D03*
X-1625Y-1600D02*
D03*
X6337Y-2300D02*
D03*
X16900Y8860D02*
D03*
X21200Y9100D02*
D03*
X25753D02*
D03*
X30053Y9200D02*
D03*
X34400Y9000D02*
D03*
X33200Y5200D02*
D03*
X28700Y5300D02*
D03*
X23269Y5500D02*
D03*
X18500Y5619D02*
D03*
X12217Y8300D02*
D03*
X-36938Y9207D02*
D03*
X-32853Y8200D02*
D03*
X-29200Y7043D02*
D03*
X-23604Y7100D02*
D03*
X-18516Y7043D02*
D03*
X-19300Y3600D02*
D03*
X-24401Y3342D02*
D03*
X-28700Y3087D02*
D03*
X26100Y81834D02*
D03*
X-27000Y79139D02*
D03*
X-34400Y79900D02*
D03*
X-53400Y48000D02*
D03*
X-54556Y27228D02*
D03*
X-58400Y27100D02*
D03*
X-62100Y28300D02*
D03*
X-75700Y15600D02*
D03*
X-81100Y15500D02*
D03*
X-78035Y6500D02*
D03*
X10359Y19000D02*
D03*
X7206Y18881D02*
D03*
X-686Y18800D02*
D03*
X-18949Y17562D02*
D03*
X-10109Y151700D02*
D03*
X-13481D02*
D03*
X-16700Y151600D02*
D03*
X-19400Y151100D02*
D03*
X-23000Y150400D02*
D03*
X-22900Y145700D02*
D03*
X-18673Y145600D02*
D03*
X-14200D02*
D03*
X-10600Y145500D02*
D03*
D75*
X-13000Y152700D02*
D03*
X12200Y152300D02*
D03*
D76*
X28104Y-71800D02*
D03*
X-44688Y-76500D02*
D03*
D77*
X-29700Y71019D02*
D03*
Y76531D02*
D03*
X60336Y-29412D02*
D03*
Y-34924D02*
D03*
X52856Y-29609D02*
D03*
Y-35514D02*
D03*
X-53050Y-35514D02*
D03*
Y-29609D02*
D03*
D78*
X-67141Y-51232D02*
D03*
X-67142Y-54775D02*
D03*
X-10109Y81319D02*
D03*
X-10109Y84862D02*
D03*
X-5514Y-5744D02*
D03*
X-5514Y-9287D02*
D03*
X42725Y35600D02*
D03*
X42725Y32057D02*
D03*
X-37186Y72619D02*
D03*
X-37186Y76162D02*
D03*
X-15514Y75831D02*
D03*
X-15514Y72287D02*
D03*
X-11686Y30419D02*
D03*
X-11686Y33962D02*
D03*
X-20300Y72233D02*
D03*
Y75776D02*
D03*
X-62460Y-62072D02*
D03*
Y-58528D02*
D03*
X-63106Y-51228D02*
D03*
Y-54772D02*
D03*
X-11500Y72303D02*
D03*
Y75846D02*
D03*
X-16300Y33846D02*
D03*
Y30303D02*
D03*
X-19300Y81135D02*
D03*
Y84679D02*
D03*
X-14900Y84792D02*
D03*
Y81249D02*
D03*
X5639Y88158D02*
D03*
Y84615D02*
D03*
X23749Y88280D02*
D03*
Y84737D02*
D03*
X32804D02*
D03*
Y88280D02*
D03*
X28080Y84737D02*
D03*
Y88280D02*
D03*
X42642Y70852D02*
D03*
Y74395D02*
D03*
X37623D02*
D03*
Y70852D02*
D03*
X27583D02*
D03*
Y74395D02*
D03*
X32603D02*
D03*
Y70852D02*
D03*
X17642Y70852D02*
D03*
Y74395D02*
D03*
X17839Y32072D02*
D03*
Y35616D02*
D03*
X12820D02*
D03*
Y32072D02*
D03*
X37623Y35616D02*
D03*
Y32072D02*
D03*
X27780Y35616D02*
D03*
Y32072D02*
D03*
X32800D02*
D03*
Y35616D02*
D03*
X-29616Y81336D02*
D03*
Y84880D02*
D03*
X68390Y27228D02*
D03*
Y30771D02*
D03*
D79*
X11100Y-9847D02*
D03*
Y-3153D02*
D03*
X1281Y-9924D02*
D03*
Y-3231D02*
D03*
D80*
X64650Y36677D02*
D03*
X57957D02*
D03*
X58055Y21505D02*
D03*
X64748D02*
D03*
X-34653Y3500D02*
D03*
X-41346D02*
D03*
X-14664Y-14845D02*
D03*
X-21357D02*
D03*
X-15057Y-22719D02*
D03*
X-21750D02*
D03*
X-21357Y-6971D02*
D03*
X-14664D02*
D03*
D81*
X59154Y29787D02*
D03*
X62697Y29787D02*
D03*
X-47017Y47950D02*
D03*
X-50560Y47950D02*
D03*
X-5556Y76161D02*
D03*
X-2013Y76161D02*
D03*
X-57056Y43914D02*
D03*
X-60600Y43914D02*
D03*
X-57944Y3014D02*
D03*
X-61487Y3014D02*
D03*
X-16150Y-1065D02*
D03*
X-19694D02*
D03*
X-53472Y3100D02*
D03*
X-49928D02*
D03*
X2372Y45975D02*
D03*
X-1172D02*
D03*
X-60572Y48200D02*
D03*
X-57028D02*
D03*
X-1928Y70575D02*
D03*
X-5472D02*
D03*
X-47001Y43899D02*
D03*
X-50545D02*
D03*
X-60584Y39863D02*
D03*
X-57041D02*
D03*
X-47001Y39863D02*
D03*
X-50545D02*
D03*
X-70228Y31300D02*
D03*
X-73772D02*
D03*
X-39891Y20500D02*
D03*
X-36348D02*
D03*
X-39772Y15847D02*
D03*
X-36228D02*
D03*
X26281Y-13664D02*
D03*
X29824D02*
D03*
X37698Y-14058D02*
D03*
X41242D02*
D03*
X-86272Y20376D02*
D03*
X-82728D02*
D03*
X-85372Y-17124D02*
D03*
X-81828D02*
D03*
X-82128Y1176D02*
D03*
X-85672D02*
D03*
D82*
X-49344Y-59475D02*
D03*
Y-70498D02*
D03*
X-32021Y-59453D02*
D03*
Y-70476D02*
D03*
X-23700Y-59488D02*
D03*
Y-70512D02*
D03*
X-22341Y-40829D02*
D03*
Y-29805D02*
D03*
X-40680Y-59475D02*
D03*
Y-70498D02*
D03*
D83*
X-7794Y-44569D02*
D03*
X-2794D02*
D03*
X-7794Y-22522D02*
D03*
X7206Y-44569D02*
D03*
Y-22522D02*
D03*
X-2794D02*
D03*
X2206Y-44569D02*
D03*
Y-22522D02*
D03*
X-45195Y-44569D02*
D03*
X-40195D02*
D03*
X-45195Y-22522D02*
D03*
X-30195Y-44569D02*
D03*
Y-22522D02*
D03*
X-40195D02*
D03*
X-35195Y-44569D02*
D03*
Y-22522D02*
D03*
X-51293Y33564D02*
D03*
X-51293Y11517D02*
D03*
X-61293D02*
D03*
X-56293Y33564D02*
D03*
X-46293D02*
D03*
X-56293Y11517D02*
D03*
X-46293D02*
D03*
X-61293Y33564D02*
D03*
D84*
X100Y31650D02*
D03*
X-3837Y41099D02*
D03*
X4037D02*
D03*
D85*
X-10224Y65187D02*
D03*
X-12783D02*
D03*
X-15342D02*
D03*
X-17901D02*
D03*
X-20460D02*
D03*
X-23019D02*
D03*
X-25578D02*
D03*
X-28137D02*
D03*
X-30696D02*
D03*
X-33255D02*
D03*
Y41565D02*
D03*
X-30696D02*
D03*
X-28137D02*
D03*
X-25578D02*
D03*
X-23019D02*
D03*
X-20460D02*
D03*
X-17901D02*
D03*
X-15342D02*
D03*
X-12783D02*
D03*
X-10224D02*
D03*
D86*
X60909Y45732D02*
D03*
D87*
X66815D02*
D03*
X55004D02*
D03*
D88*
X60909Y55181D02*
D03*
D89*
X87751Y39549D02*
D03*
X91649Y35651D02*
D03*
X-76226Y-51549D02*
D03*
X-80123Y-47651D02*
D03*
D90*
X-9544Y-94600D02*
D03*
X-15056D02*
D03*
X-244Y98500D02*
D03*
X-5756D02*
D03*
D91*
X41627Y23234D02*
D03*
Y20675D02*
D03*
Y18116D02*
D03*
X34146D02*
D03*
Y20675D02*
D03*
Y23234D02*
D03*
X24304D02*
D03*
Y20675D02*
D03*
Y18116D02*
D03*
X16824D02*
D03*
Y20675D02*
D03*
Y23234D02*
D03*
X-22940D02*
D03*
Y20675D02*
D03*
Y18116D02*
D03*
X-30421D02*
D03*
Y20675D02*
D03*
Y23234D02*
D03*
X-5617D02*
D03*
Y20675D02*
D03*
Y18116D02*
D03*
X-13098D02*
D03*
Y20675D02*
D03*
Y23234D02*
D03*
D92*
X-66676Y18509D02*
D03*
Y26384D02*
D03*
X-76124Y22446D02*
D03*
D93*
X7277Y165926D02*
D03*
X4718D02*
D03*
X-8077D02*
D03*
X-5518D02*
D03*
X-10636D02*
D03*
X-2959D02*
D03*
X-400D02*
D03*
X2159D02*
D03*
X9836D02*
D03*
D94*
X39608Y-21341D02*
D03*
Y-45750D02*
D03*
X29608D02*
D03*
X34608Y-21341D02*
D03*
X44608D02*
D03*
X34608Y-45750D02*
D03*
X44608D02*
D03*
X29608Y-21341D02*
D03*
D95*
X42721Y63962D02*
D03*
X37721D02*
D03*
X32721D02*
D03*
X27721D02*
D03*
X22721D02*
D03*
X17721D02*
D03*
X12721D02*
D03*
X17721Y42505D02*
D03*
X22721D02*
D03*
X27721D02*
D03*
X32721D02*
D03*
X37721D02*
D03*
X42721D02*
D03*
X12721D02*
D03*
D96*
X11524Y90717D02*
D03*
X11524Y81701D02*
D03*
X-57760Y-57528D02*
D03*
Y-48512D02*
D03*
D97*
X18237Y89540D02*
D03*
X18237Y83240D02*
D03*
D98*
X-83849Y42651D02*
D03*
X-79951Y46549D02*
D03*
X74249Y-59151D02*
D03*
X70351Y-63049D02*
D03*
D99*
X-88424Y14613D02*
D03*
X-78976Y10676D02*
D03*
X-88424Y6739D02*
D03*
Y-3387D02*
D03*
X-78976Y-7324D02*
D03*
X-88424Y-11261D02*
D03*
Y-21663D02*
D03*
X-78976Y-25600D02*
D03*
X-88424Y-29537D02*
D03*
D100*
X-4337Y158300D02*
D03*
X3537D02*
D03*
D101*
X-93719Y41181D02*
D03*
X-91214Y43687D02*
D03*
X-88986Y45914D02*
D03*
X-86481Y48419D02*
D03*
X78981Y-63035D02*
D03*
X81486Y-60529D02*
D03*
X83714Y-58302D02*
D03*
X86219Y-55797D02*
D03*
D102*
X-81819Y-54181D02*
D03*
X-79314Y-56686D02*
D03*
X-77087Y-58913D02*
D03*
X-74581Y-61419D02*
D03*
X84581Y51319D02*
D03*
X87086Y48814D02*
D03*
X89314Y46586D02*
D03*
X91819Y44081D02*
D03*
D103*
X5518Y-94700D02*
D03*
X1975D02*
D03*
X-1175D02*
D03*
X-4718D02*
D03*
X1918Y106500D02*
D03*
X-1625D02*
D03*
X-4775D02*
D03*
X-8318D02*
D03*
D104*
X-20577Y181674D02*
D03*
X19777D02*
D03*
X-20577Y167107D02*
D03*
X19777D02*
D03*
D105*
X-45100Y-19100D02*
D03*
X-35195Y-19200D02*
D03*
X-9886Y19140D02*
D03*
X47700Y24575D02*
D03*
X42721Y24275D02*
D03*
X-5700Y64975D02*
D03*
X5400Y65275D02*
D03*
X3200Y49475D02*
D03*
X28500Y57975D02*
D03*
X37700Y57775D02*
D03*
X-8400Y73875D02*
D03*
X-12094Y78352D02*
D03*
X7579Y30275D02*
D03*
X4000Y30375D02*
D03*
Y23918D02*
D03*
X7755Y23807D02*
D03*
X40453Y28352D02*
D03*
X33366Y30321D02*
D03*
X37690Y19297D02*
D03*
X20982D02*
D03*
X-26680Y18313D02*
D03*
X-17822Y59651D02*
D03*
X-43200Y36875D02*
D03*
X-41300Y51275D02*
D03*
X9700Y60069D02*
D03*
X10438Y49675D02*
D03*
X6300Y60075D02*
D03*
X7000Y49512D02*
D03*
X-14900Y69175D02*
D03*
X-33000Y34675D02*
D03*
X-23800Y29175D02*
D03*
X-20200Y24675D02*
D03*
X-83900Y-60100D02*
D03*
X78100Y-53600D02*
D03*
X-16600Y-95467D02*
D03*
X-1600Y-92900D02*
D03*
Y-88100D02*
D03*
X87200Y-40100D02*
D03*
X70390Y-53290D02*
D03*
X67100Y-49700D02*
D03*
X76900Y-46700D02*
D03*
X-9400Y9900D02*
D03*
X-5756Y10200D02*
D03*
X800Y9900D02*
D03*
X-2400Y10000D02*
D03*
X44700Y14500D02*
D03*
X44800Y-800D02*
D03*
X2100Y162900D02*
D03*
X-400Y158600D02*
D03*
X-2900Y162900D02*
D03*
X24600Y159600D02*
D03*
X-31000Y110500D02*
D03*
X-29600Y113811D02*
D03*
X7900Y84862D02*
D03*
X-3700Y84900D02*
D03*
X-88400Y-35800D02*
D03*
X-91100Y-44000D02*
D03*
X-91900Y-13400D02*
D03*
X-90400Y4200D02*
D03*
X-39900Y18100D02*
D03*
X-46560Y51099D02*
D03*
X83200Y27200D02*
D03*
X37106Y79800D02*
D03*
X-29616Y71591D02*
D03*
X-89600Y27300D02*
D03*
X80200Y-33800D02*
D03*
X-32900Y54000D02*
D03*
M02*
