%FSLAX25Y25*%
%MOIN*%
G70*
G01*
G75*
%ADD10C,0.00787*%
%ADD11C,0.01181*%
%ADD12C,0.01969*%
%ADD13O,0.07874X0.11811*%
%ADD14O,0.15748X0.11811*%
%ADD15R,0.03543X0.02362*%
%ADD16R,0.02362X0.01969*%
%ADD17R,0.04921X0.02756*%
%ADD18R,0.02756X0.04921*%
%ADD19R,0.01969X0.02362*%
%ADD20R,0.06693X0.03543*%
%ADD21O,0.02362X0.05512*%
%ADD22R,0.03543X0.03937*%
%ADD23R,0.01575X0.04724*%
%ADD24R,0.03150X0.07874*%
%ADD25R,0.02362X0.07874*%
%ADD26O,0.07480X0.12992*%
G04:AMPARAMS|DCode=27|XSize=23.62mil|YSize=35.43mil|CornerRadius=0mil|HoleSize=0mil|Usage=FLASHONLY|Rotation=135.000|XOffset=0mil|YOffset=0mil|HoleType=Round|Shape=Rectangle|*
%AMROTATEDRECTD27*
4,1,4,0.02088,0.00418,-0.00418,-0.02088,-0.02088,-0.00418,0.00418,0.02088,0.02088,0.00418,0.0*
%
%ADD27ROTATEDRECTD27*%

%ADD28R,0.02362X0.03543*%
%ADD29R,0.01969X0.01575*%
%ADD30R,0.03937X0.03543*%
%ADD31R,0.01575X0.03937*%
%ADD32O,0.02362X0.07874*%
%ADD33R,0.02362X0.05512*%
%ADD34R,0.03150X0.05118*%
%ADD35R,0.03937X0.02756*%
G04:AMPARAMS|DCode=36|XSize=23.62mil|YSize=35.43mil|CornerRadius=0mil|HoleSize=0mil|Usage=FLASHONLY|Rotation=225.000|XOffset=0mil|YOffset=0mil|HoleType=Round|Shape=Rectangle|*
%AMROTATEDRECTD36*
4,1,4,-0.00418,0.02088,0.02088,-0.00418,0.00418,-0.02088,-0.02088,0.00418,-0.00418,0.02088,0.0*
%
%ADD36ROTATEDRECTD36*%

%ADD37R,0.04724X0.03543*%
%ADD38R,0.03937X0.04724*%
G04:AMPARAMS|DCode=39|XSize=19.69mil|YSize=39.37mil|CornerRadius=0mil|HoleSize=0mil|Usage=FLASHONLY|Rotation=45.000|XOffset=0mil|YOffset=0mil|HoleType=Round|Shape=Rectangle|*
%AMROTATEDRECTD39*
4,1,4,0.00696,-0.02088,-0.02088,0.00696,-0.00696,0.02088,0.02088,-0.00696,0.00696,-0.02088,0.0*
%
%ADD39ROTATEDRECTD39*%

G04:AMPARAMS|DCode=40|XSize=19.69mil|YSize=39.37mil|CornerRadius=0mil|HoleSize=0mil|Usage=FLASHONLY|Rotation=135.000|XOffset=0mil|YOffset=0mil|HoleType=Round|Shape=Rectangle|*
%AMROTATEDRECTD40*
4,1,4,0.02088,0.00696,-0.00696,-0.02088,-0.02088,-0.00696,0.00696,0.02088,0.02088,0.00696,0.0*
%
%ADD40ROTATEDRECTD40*%

%ADD41R,0.01969X0.03937*%
%ADD42C,0.07874*%
%ADD43C,0.03937*%
%ADD44C,0.05906*%
%ADD45C,0.04724*%
%ADD46C,0.11811*%
%ADD47R,0.09645X0.14900*%
%ADD48R,0.29300X0.12570*%
%ADD49R,0.06400X0.17200*%
%ADD50R,0.19291X0.03830*%
%ADD51R,0.05906X0.13780*%
%ADD52R,0.08661X0.14173*%
%ADD53R,0.05512X0.13780*%
%ADD54R,0.14567X0.16142*%
%ADD55R,0.15182X0.11426*%
%ADD56R,0.05300X0.03507*%
%ADD57R,0.24200X0.17200*%
%ADD58O,0.05906X0.07874*%
%ADD59C,0.02362*%
%ADD60C,0.09843*%
%ADD61O,0.07874X0.05906*%
%ADD62R,0.07874X0.05906*%
%ADD63R,0.07500X0.30800*%
%ADD64R,0.10581X0.53500*%
%ADD65C,0.00394*%
%ADD66C,0.00197*%
%ADD67C,0.00984*%
%ADD68C,0.01000*%
%ADD69C,0.02362*%
%ADD70C,0.00591*%
%ADD71C,0.00800*%
%ADD72C,0.00500*%
%ADD73C,0.00200*%
%ADD74C,0.00400*%
G36*
X-82445Y-60793D02*
X-82237Y-61335D01*
X-83698Y-60793D01*
X-82306Y-60236D01*
X-82445Y-60793D01*
D02*
G37*
G36*
X87054Y-64009D02*
X86497Y-62617D01*
X87054Y-62757D01*
X87597Y-62548D01*
X87054Y-64009D01*
D02*
G37*
G36*
X-93997Y48001D02*
X-94554Y48141D01*
X-95097Y47932D01*
X-94554Y49393D01*
X-93997Y48001D01*
D02*
G37*
G36*
X-55791Y-54181D02*
X-59791D01*
X-57791Y-52181D01*
X-55791Y-54181D01*
D02*
G37*
G36*
X-486Y-99818D02*
X46Y-100054D01*
X-1372Y-100704D01*
X-781Y-99326D01*
X-486Y-99818D01*
D02*
G37*
G36*
X1187Y-100212D02*
X1719Y-100448D01*
X302Y-101098D01*
X892Y-99720D01*
X1187Y-100212D01*
D02*
G37*
G36*
X-81541Y-62254D02*
X-81332Y-62797D01*
X-82793Y-62254D01*
X-81401Y-61697D01*
X-81541Y-62254D01*
D02*
G37*
G36*
X85593Y-64914D02*
X85036Y-63522D01*
X85593Y-63661D01*
X86136Y-63452D01*
X85593Y-64914D01*
D02*
G37*
G36*
X15265Y86174D02*
Y86843D01*
X15934D01*
X15265Y86174D01*
D02*
G37*
G36*
X19979Y85406D02*
X16633D01*
X18306Y87374D01*
X19979Y85406D01*
D02*
G37*
G36*
X-3692Y111520D02*
X-3987Y112012D01*
X-4519Y112248D01*
X-3102Y112898D01*
X-3692Y111520D01*
D02*
G37*
G36*
X-2019Y111126D02*
X-2314Y111618D01*
X-2846Y111854D01*
X-1428Y112504D01*
X-2019Y111126D01*
D02*
G37*
G36*
X93698Y50693D02*
X92306Y50136D01*
X92445Y50693D01*
X92237Y51236D01*
X93698Y50693D01*
D02*
G37*
G36*
X-92536Y48906D02*
X-93093Y49045D01*
X-93635Y48837D01*
X-93093Y50298D01*
X-92536Y48906D01*
D02*
G37*
G36*
X11556Y85371D02*
X9556Y87371D01*
X13556D01*
X11556Y85371D01*
D02*
G37*
G36*
X92793Y52154D02*
X91401Y51597D01*
X91541Y52154D01*
X91332Y52697D01*
X92793Y52154D01*
D02*
G37*
D10*
X9549Y-26853D02*
X9549Y-40239D01*
X-10136Y-26853D02*
X9549Y-26853D01*
X-10136Y-40239D02*
X-10136Y-26853D01*
Y-40239D02*
X9549D01*
X-27853Y-26853D02*
X-27853Y-40239D01*
X-47538Y-26853D02*
X-27853Y-26853D01*
X-47538Y-40239D02*
X-47538Y-26853D01*
Y-40239D02*
X-27853D01*
X6005Y32930D02*
Y35686D01*
X2856Y32930D02*
X6005D01*
X-5805D02*
Y35686D01*
Y32930D02*
X-2656D01*
X-74845Y16541D02*
X-72089D01*
X-74845D02*
Y19691D01*
Y28352D02*
X-72089D01*
X-74845Y25202D02*
Y28352D01*
X-16935Y192304D02*
X16135D01*
X-16935D02*
X-14967Y190335D01*
X14167D02*
X16135Y192304D01*
X-14967Y167107D02*
X-12400D01*
X11800D02*
X14167D01*
X-14967D02*
Y190335D01*
X14167Y167107D02*
Y190335D01*
X-14967D02*
X14167D01*
X27265Y-41026D02*
X46950D01*
X27265D02*
X27265Y-26065D01*
X46950Y-26065D01*
X46950Y-41026D01*
X10753Y59828D02*
X44709D01*
X10753Y46738D02*
X44709D01*
Y59828D01*
X10733Y46738D02*
Y59828D01*
X-63635Y15847D02*
X-43950D01*
X-63635D02*
X-63635Y29233D01*
X-43950Y29233D01*
X-43950D02*
X-43950Y15847D01*
X-1820Y-70692D02*
Y-65606D01*
X-243Y-70728D02*
Y-65642D01*
D11*
X46559Y-29628D02*
G03*
X46559Y-37463I392J-3918D01*
G01*
D12*
X11969Y-22522D02*
G03*
X11969Y-22522I-423J0D01*
G01*
X-25432D02*
G03*
X-25432Y-22522I-423J0D01*
G01*
X-6740Y60758D02*
G03*
X-6740Y60758I-423J0D01*
G01*
X45040Y-27691D02*
G03*
X45040Y-27691I-423J0D01*
G01*
X-41530Y33564D02*
G03*
X-41530Y33564I-423J0D01*
G01*
D65*
X-27900Y68775D02*
G03*
X-27113Y69562I-0J787D01*
G01*
X-32287D02*
G03*
X-31500Y68775I787J0D01*
G01*
Y78775D02*
G03*
X-32287Y77987I0J-787D01*
G01*
X-27113D02*
G03*
X-27900Y78775I-787J0D01*
G01*
X14643Y-1677D02*
G03*
X13659Y-693I-984J0D01*
G01*
X8541D02*
G03*
X7557Y-1677I0J-984D01*
G01*
X13659Y-12307D02*
G03*
X14643Y-11323I0J984D01*
G01*
X7557D02*
G03*
X8541Y-12307I984J0D01*
G01*
X4824Y-1754D02*
G03*
X3840Y-770I-984J0D01*
G01*
X-1278D02*
G03*
X-2262Y-1754I0J-984D01*
G01*
X3840Y-12384D02*
G03*
X4824Y-11400I0J984D01*
G01*
X-2262D02*
G03*
X-1278Y-12384I984J0D01*
G01*
X56480Y40220D02*
G03*
X55496Y39236I0J-984D01*
G01*
Y34118D02*
G03*
X56480Y33134I984J0D01*
G01*
X67110Y39236D02*
G03*
X66126Y40220I-984J0D01*
G01*
Y33134D02*
G03*
X67110Y34118I0J984D01*
G01*
X66224Y17962D02*
G03*
X67209Y18946I0J984D01*
G01*
Y24064D02*
G03*
X66224Y25048I-984J0D01*
G01*
X55594Y18946D02*
G03*
X56579Y17962I984J0D01*
G01*
Y25048D02*
G03*
X55594Y24064I0J-984D01*
G01*
X-42823Y7043D02*
G03*
X-43807Y6059I0J-984D01*
G01*
Y941D02*
G03*
X-42823Y-43I984J0D01*
G01*
X-32193Y6059D02*
G03*
X-33177Y7043I-984J0D01*
G01*
Y-43D02*
G03*
X-32193Y941I0J984D01*
G01*
X-22833Y-11302D02*
G03*
X-23817Y-12286I0J-984D01*
G01*
Y-17404D02*
G03*
X-22833Y-18388I984J0D01*
G01*
X-12203Y-12286D02*
G03*
X-13187Y-11302I-984J0D01*
G01*
Y-18388D02*
G03*
X-12203Y-17404I0J984D01*
G01*
X-23227Y-19176D02*
G03*
X-24211Y-20160I0J-984D01*
G01*
Y-25278D02*
G03*
X-23227Y-26262I984J0D01*
G01*
X-12597Y-20160D02*
G03*
X-13581Y-19176I-984J0D01*
G01*
Y-26262D02*
G03*
X-12597Y-25278I0J984D01*
G01*
X-52394Y-56619D02*
G03*
X-53675Y-57900I0J-1281D01*
G01*
X-45013Y-57891D02*
G03*
X-46294Y-56609I-1281J0D01*
G01*
X-53675Y-72083D02*
G03*
X-52394Y-73364I1281J0D01*
G01*
X-46294Y-73354D02*
G03*
X-45013Y-72073I0J1281D01*
G01*
X58536Y-27168D02*
G03*
X57749Y-27955I0J-787D01*
G01*
X62924D02*
G03*
X62136Y-27168I-787J0D01*
G01*
Y-37168D02*
G03*
X62924Y-36380I-0J787D01*
G01*
X57749D02*
G03*
X58536Y-37168I787J0D01*
G01*
X50002Y-37068D02*
G03*
X50769Y-37835I767J0D01*
G01*
X54943D02*
G03*
X55710Y-37068I0J767D01*
G01*
X50769Y-27288D02*
G03*
X50002Y-28055I0J-767D01*
G01*
X55710D02*
G03*
X54943Y-27288I-767J-0D01*
G01*
X-35071Y-56597D02*
G03*
X-36352Y-57878I0J-1281D01*
G01*
X-27690Y-57869D02*
G03*
X-28971Y-56587I-1281J0D01*
G01*
X-36352Y-72061D02*
G03*
X-35071Y-73342I1281J0D01*
G01*
X-28971Y-73332D02*
G03*
X-27690Y-72051I0J1281D01*
G01*
X-26750Y-56632D02*
G03*
X-28031Y-57913I0J-1281D01*
G01*
X-19369Y-57904D02*
G03*
X-20650Y-56623I-1281J0D01*
G01*
X-28031Y-72096D02*
G03*
X-26750Y-73377I1281J0D01*
G01*
X-20650Y-73368D02*
G03*
X-19369Y-72087I0J1281D01*
G01*
X-19291Y-43685D02*
G03*
X-18010Y-42404I0J1281D01*
G01*
X-26672Y-42413D02*
G03*
X-25391Y-43694I1281J0D01*
G01*
X-18010Y-28221D02*
G03*
X-19291Y-26940I-1281J0D01*
G01*
X-25390Y-26950D02*
G03*
X-26672Y-28231I0J-1281D01*
G01*
X-50195Y-28055D02*
G03*
X-50963Y-27288I-767J-0D01*
G01*
X-55137D02*
G03*
X-55904Y-28055I0J-767D01*
G01*
X-50963Y-37835D02*
G03*
X-50195Y-37068I0J767D01*
G01*
X-55904D02*
G03*
X-55137Y-37835I767J0D01*
G01*
X-43729Y-56619D02*
G03*
X-45010Y-57900I0J-1281D01*
G01*
X-36349Y-57891D02*
G03*
X-37630Y-56609I-1281J0D01*
G01*
X-45011Y-72083D02*
G03*
X-43730Y-73364I1281J0D01*
G01*
X-37630Y-73354D02*
G03*
X-36349Y-72073I0J1281D01*
G01*
X-6500Y161300D02*
G03*
X-7013Y160787I0J-513D01*
G01*
X-7005Y155714D02*
G03*
X-6492Y155201I513J0D01*
G01*
X5700Y155187D02*
G03*
X6213Y155700I-0J513D01*
G01*
X6213Y160787D02*
G03*
X5700Y161300I-513J-0D01*
G01*
X-89752Y49741D02*
G03*
X-95041Y44452I-2645J-2645D01*
G01*
X-83141Y-57452D02*
G03*
X-77852Y-62741I2645J-2645D01*
G01*
X-3340Y-97948D02*
G03*
X4140Y-97948I3740J0D01*
G01*
X82252Y-64357D02*
G03*
X87541Y-59068I2645J2645D01*
G01*
X93141Y47352D02*
G03*
X87852Y52641I-2645J2645D01*
G01*
X540Y109748D02*
G03*
X-6940Y109748I-3740J0D01*
G01*
X-31600Y68775D02*
X-28000D01*
X-27100Y69675D02*
Y73175D01*
X-32300Y69475D02*
Y73175D01*
Y74275D02*
Y78075D01*
X-27100Y74175D02*
Y77875D01*
X-31600Y78775D02*
X-28000D01*
X14643Y-4728D02*
Y-1677D01*
X8443Y-693D02*
X13659D01*
X7557Y-4728D02*
Y-1677D01*
X14643Y-11323D02*
Y-8272D01*
X8541Y-12307D02*
X13758D01*
X7557Y-11323D02*
Y-8272D01*
X4825Y-4806D02*
Y-1754D01*
X-1376Y-770D02*
X3840D01*
X-2262Y-4806D02*
Y-1754D01*
X4825Y-11400D02*
Y-8349D01*
X-1278Y-12384D02*
X3939D01*
X-2262Y-11400D02*
Y-8349D01*
X56480Y40220D02*
X59531D01*
X55496Y34020D02*
Y39236D01*
X56480Y33134D02*
X59531D01*
X63075Y40220D02*
X66126D01*
X67110Y34118D02*
Y39334D01*
X63075Y33134D02*
X66126D01*
X63173Y17962D02*
X66224D01*
X67209Y18946D02*
Y24163D01*
X63173Y25049D02*
X66224D01*
X56579Y17962D02*
X59630D01*
X55594Y18848D02*
Y24064D01*
X56579Y25049D02*
X59630D01*
X-42823Y7043D02*
X-39772D01*
X-43807Y843D02*
Y6059D01*
X-42823Y-43D02*
X-39772D01*
X-36228Y7043D02*
X-33177D01*
X-32193Y941D02*
Y6157D01*
X-36228Y-43D02*
X-33177D01*
X-22833Y-11302D02*
X-19782D01*
X-23817Y-17502D02*
Y-12286D01*
X-22833Y-18388D02*
X-19782D01*
X-16239Y-11302D02*
X-13187D01*
X-12203Y-17404D02*
Y-12187D01*
X-16239Y-18388D02*
X-13187D01*
X-23227Y-19175D02*
X-20176D01*
X-24211Y-25376D02*
Y-20160D01*
X-23227Y-26262D02*
X-20176D01*
X-16632Y-19175D02*
X-13581D01*
X-12597Y-25278D02*
Y-20061D01*
X-16632Y-26262D02*
X-13581D01*
X-52394Y-56619D02*
X-46193D01*
X-45013Y-57891D02*
X-45012Y-62624D01*
X-53676D02*
X-53675Y-57900D01*
X-45013Y-72073D02*
X-45012Y-67349D01*
X-53676D02*
X-53675Y-72083D01*
X-52495Y-73354D02*
X-46294D01*
X58636Y-27168D02*
X62236D01*
X57736Y-31568D02*
Y-28068D01*
X62936Y-31568D02*
Y-27868D01*
Y-36468D02*
Y-32668D01*
X57736Y-36268D02*
Y-32568D01*
X58636Y-37168D02*
X62236D01*
X50002Y-37068D02*
Y-34628D01*
X50789Y-37835D02*
X54943D01*
X55710Y-37068D02*
Y-34628D01*
X50002Y-30494D02*
Y-28055D01*
X50769Y-27288D02*
X54923D01*
X55710Y-30494D02*
Y-28055D01*
X-35071Y-56597D02*
X-28870D01*
X-27690Y-57869D02*
X-27689Y-62602D01*
X-36353D02*
X-36352Y-57878D01*
X-27690Y-72051D02*
X-27689Y-67327D01*
X-36353D02*
X-36352Y-72061D01*
X-35172Y-73332D02*
X-28971D01*
X-26750Y-56632D02*
X-20549D01*
X-19369Y-57904D02*
X-19368Y-62638D01*
X-28032D02*
X-28031Y-57913D01*
X-19369Y-72087D02*
X-19368Y-67362D01*
X-28032D02*
X-28031Y-72096D01*
X-26851Y-73368D02*
X-20650D01*
X-25492Y-43685D02*
X-19291D01*
X-26673Y-37679D02*
X-26672Y-42413D01*
X-18010Y-42404D02*
X-18009Y-37679D01*
X-26673Y-32955D02*
X-26672Y-28231D01*
X-18010Y-28221D02*
X-18009Y-32955D01*
X-25390Y-26950D02*
X-19190D01*
X-50195Y-30494D02*
Y-28055D01*
X-55137Y-27288D02*
X-50983D01*
X-55904Y-30494D02*
Y-28055D01*
X-50195Y-37068D02*
Y-34628D01*
X-55116Y-37835D02*
X-50963D01*
X-55904Y-37068D02*
Y-34628D01*
X-43729Y-56619D02*
X-37528D01*
X-36349Y-57891D02*
X-36347Y-62624D01*
X-45012D02*
X-45011Y-57900D01*
X-36349Y-72073D02*
X-36347Y-67349D01*
X-45012D02*
X-45011Y-72083D01*
X-43831Y-73354D02*
X-37630D01*
X91468Y32438D02*
X94933Y35903D01*
X88003Y42833D02*
X94862Y35974D01*
X84538Y39368D02*
X88003Y42833D01*
X84467Y39297D02*
X91397Y32367D01*
X-17200Y-97100D02*
Y-92200D01*
X-17100Y-97100D02*
X-7400D01*
Y-92200D01*
X-17200Y-92100D02*
X-7400D01*
X-23817Y-10514D02*
Y-3428D01*
X-23817Y-10514D02*
X-12203Y-10514D01*
X-12203D02*
Y-3427D01*
X-23817D02*
X-12203D01*
X9556Y85571D02*
X13456Y85571D01*
X11556Y87571D02*
X11556Y85171D01*
X14410Y80522D02*
X14410Y91857D01*
X8702Y80522D02*
Y91857D01*
X14410Y84812D02*
X14410Y81289D01*
X8702Y84812D02*
X8702Y81289D01*
X14410Y87568D02*
Y91090D01*
X8702D02*
X8702Y87568D01*
X21091Y92058D02*
X21091Y88556D01*
X15383Y88555D02*
X15383Y92058D01*
X21091Y92058D01*
X16277Y86711D02*
X16885Y86255D01*
X16673Y87202D02*
X19959Y87202D01*
X15599Y86508D02*
X16208Y86052D01*
X16208Y86843D01*
X15383Y80723D02*
X21091Y80723D01*
X21091Y84225D01*
X15383Y84225D02*
X15383Y80723D01*
X-7900Y96000D02*
Y100900D01*
X-7800Y96000D02*
X1900D01*
Y100900D01*
X-7900Y101000D02*
X1900D01*
X-80203Y49833D02*
X-76738Y46368D01*
X-87133Y42903D02*
X-80274Y49762D01*
X-87133Y42903D02*
X-83668Y39438D01*
X-83597Y39367D02*
X-76667Y46297D01*
X-59691Y-52381D02*
X-55791D01*
X-57791Y-54381D02*
Y-51981D01*
X-60646Y-58667D02*
Y-47333D01*
X-54937Y-58667D02*
Y-47333D01*
X-60646Y-51622D02*
Y-48100D01*
X-54937Y-51622D02*
Y-48100D01*
X-60646Y-57900D02*
Y-54378D01*
X-54937Y-57900D02*
Y-54378D01*
X-83407Y-47903D02*
X-79943Y-44438D01*
X-83337Y-47974D02*
X-76478Y-54833D01*
X-73013Y-51368D01*
X-79872Y-44367D02*
X-72942Y-51297D01*
X67138Y-62868D02*
X70603Y-66333D01*
X70674Y-66262D02*
X77533Y-59403D01*
X74068Y-55938D02*
X77533Y-59403D01*
X67067Y-62797D02*
X73997Y-55867D01*
X-6500Y161300D02*
X-1672D01*
X-7010Y155710D02*
Y160797D01*
X-6400Y155200D02*
X-1600D01*
X-913Y156324D02*
Y160504D01*
X131Y156351D02*
X135Y160461D01*
X-1724Y158300D02*
X-1184Y158304D01*
X288Y158292D02*
X977D01*
X495Y155200D02*
X5700D01*
X6213Y155700D02*
Y160786D01*
X495Y161300D02*
X5700D01*
X-97756Y41738D02*
X-87038Y52456D01*
X-82444Y47862D01*
X-97756Y41738D02*
X-93162Y37144D01*
X-82444Y47862D01*
X-94554Y48419D02*
Y48419D01*
Y46749D02*
Y48419D01*
X-93093Y47653D02*
Y49324D01*
X-93093Y49324D02*
X-93093Y49324D01*
X-82724Y-60793D02*
X-82724Y-60793D01*
X-81054D01*
X-81819Y-62254D02*
X-80149D01*
X-81819D02*
X-81819D01*
X-81262Y-50144D02*
X-70544Y-60862D01*
X-75138Y-65456D02*
X-70544Y-60862D01*
X-85856Y-54738D02*
X-81262Y-50144D01*
X-85856Y-54738D02*
X-75138Y-65456D01*
X-7179Y-97948D02*
X7979D01*
X-7179D02*
Y-91452D01*
X7979Y-97948D02*
Y-91452D01*
X-7179D02*
X7979D01*
X991Y-100409D02*
Y-100409D01*
X2172Y-99228D01*
X-683Y-100015D02*
X498Y-98834D01*
X-683Y-100015D02*
Y-100015D01*
X85593Y-63940D02*
X85593Y-63940D01*
X85593Y-63940D02*
Y-62269D01*
X87054Y-63035D02*
Y-61365D01*
Y-63035D02*
Y-63035D01*
X74944Y-62478D02*
X85662Y-51760D01*
X90256Y-56354D01*
X74944Y-62478D02*
X79538Y-67071D01*
X90256Y-56354D01*
X85138Y55356D02*
X95856Y44638D01*
X91262Y40044D02*
X95856Y44638D01*
X80544Y50762D02*
X85138Y55356D01*
X80544Y50762D02*
X91262Y40044D01*
X91819Y52154D02*
X91819D01*
X90149D02*
X91819D01*
X91053Y50693D02*
X92724D01*
X92724Y50693D01*
X-2117Y111815D02*
Y111815D01*
X-3298Y110634D02*
X-2117Y111815D01*
X-4972Y111028D02*
X-3791Y112209D01*
Y112209D01*
X-10779Y103252D02*
X4379D01*
X-10779D02*
Y109748D01*
X4379Y103252D02*
Y109748D01*
X-10779D02*
X4379D01*
X8600Y-53622D02*
Y-53222D01*
X-11200Y-53500D02*
Y-53200D01*
X-19016Y-82964D02*
Y-53436D01*
X-19000Y-82964D02*
X16400D01*
X-19700Y-78100D02*
X-19200D01*
X-19800Y-58358D02*
X-19100D01*
X-18900Y-53436D02*
X16400D01*
X16417Y-82964D02*
Y-53436D01*
D66*
X-65408Y-49713D02*
G03*
X-68939Y-49688I-1784J-2596D01*
G01*
X-68942Y-56302D02*
G03*
X-65359Y-56292I1784J2596D01*
G01*
X-11842Y79800D02*
G03*
X-8312Y79775I1784J2596D01*
G01*
X-8309Y86389D02*
G03*
X-11891Y86379I-1784J-2596D01*
G01*
X-3781Y-4225D02*
G03*
X-7311Y-4200I-1784J-2596D01*
G01*
X-7314Y-10814D02*
G03*
X-3732Y-10804I1784J2596D01*
G01*
X57635Y31520D02*
G03*
X57609Y27990I2596J-1784D01*
G01*
X64224Y27987D02*
G03*
X64214Y31569I-2596J1784D01*
G01*
X44458Y37119D02*
G03*
X40928Y37144I-1784J-2596D01*
G01*
X40925Y30530D02*
G03*
X44507Y30540I1784J2596D01*
G01*
X-38919Y71100D02*
G03*
X-35389Y71075I1784J2596D01*
G01*
X-35386Y77689D02*
G03*
X-38968Y77679I-1784J-2596D01*
G01*
X-13781Y77350D02*
G03*
X-17311Y77375I-1784J-2596D01*
G01*
X-17314Y70761D02*
G03*
X-13732Y70771I1784J2596D01*
G01*
X-13419Y28900D02*
G03*
X-9889Y28875I1784J2596D01*
G01*
X-9886Y35489D02*
G03*
X-13468Y35479I-1784J-2596D01*
G01*
X-18500Y77204D02*
G03*
X-22045Y77220I-1784J-2596D01*
G01*
X-22100Y70604D02*
G03*
X-18625Y70665I1691J2657D01*
G01*
X-45498Y46217D02*
G03*
X-45473Y49747I-2596J1784D01*
G01*
X-52087Y49750D02*
G03*
X-52077Y46168I2596J-1784D01*
G01*
X-7075Y77894D02*
G03*
X-7100Y74363I2596J-1784D01*
G01*
X-486Y74361D02*
G03*
X-496Y77943I-2596J1784D01*
G01*
X-55537Y42181D02*
G03*
X-55512Y45711I-2596J1784D01*
G01*
X-62126Y45714D02*
G03*
X-62116Y42132I2596J-1784D01*
G01*
X-56425Y1281D02*
G03*
X-56400Y4811I-2596J1784D01*
G01*
X-63014Y4814D02*
G03*
X-63004Y1232I2596J-1784D01*
G01*
X-65342Y-56204D02*
X-65341Y-49760D01*
X-68942Y-56282D02*
X-68941Y-49685D01*
X-11910Y79847D02*
X-11909Y86291D01*
X-8309Y79772D02*
X-8309Y86369D01*
X-3714Y-10716D02*
X-3714Y-4272D01*
X-7314Y-10795D02*
X-7314Y-4198D01*
X57681Y31587D02*
X64125Y31587D01*
X57607Y27987D02*
X64204Y27987D01*
X44525Y30628D02*
X44525Y37072D01*
X40925Y30550D02*
X40925Y37146D01*
X-38986Y71147D02*
X-38986Y77591D01*
X-35386Y71072D02*
X-35386Y77669D01*
X-13714Y70859D02*
X-13714Y77303D01*
X-17314Y70780D02*
X-17314Y77377D01*
X-13486Y28946D02*
X-13486Y35391D01*
X-9886Y28872D02*
X-9886Y35469D01*
X-20962Y73808D02*
X-19651Y73806D01*
X-20953Y74228D02*
X-19642Y74226D01*
X-22100Y70604D02*
X-22100Y77204D01*
X-18500Y70804D02*
Y77204D01*
X-51989Y46150D02*
X-45544Y46149D01*
X-52067Y49750D02*
X-45470Y49750D01*
X-7028Y77961D02*
X-584Y77961D01*
X-7102Y74361D02*
X-506Y74361D01*
X-62028Y42114D02*
X-55584Y42114D01*
X-62107Y45714D02*
X-55510Y45714D01*
X-62916Y1214D02*
X-56472Y1214D01*
X-62994Y4814D02*
X-56398Y4814D01*
X-14522Y-2765D02*
Y735D01*
X-21322D02*
X-14522D01*
X-21322Y-2865D02*
Y735D01*
Y-2865D02*
X-14522D01*
X-55100Y1300D02*
X-48300D01*
X-55100D02*
Y4900D01*
X-48300D01*
Y1400D02*
Y4900D01*
X-64160Y-63700D02*
X-60660D01*
Y-56900D01*
X-64260D02*
X-60660D01*
X-64260Y-63700D02*
Y-56900D01*
X-2800Y47775D02*
X4000D01*
Y44175D02*
Y47775D01*
X-2800Y44175D02*
X4000D01*
X-2800D02*
Y47675D01*
X-64906Y-49600D02*
X-61406D01*
X-64906Y-56400D02*
Y-49600D01*
Y-56400D02*
X-61306D01*
Y-49600D01*
X-62200Y46400D02*
X-55400D01*
X-62200D02*
Y50000D01*
X-55400D01*
Y46500D02*
Y50000D01*
X-300Y68875D02*
Y72375D01*
X-7100D02*
X-300D01*
X-7100Y68775D02*
Y72375D01*
Y68775D02*
X-300D01*
X-52173Y45699D02*
X-45373D01*
Y42099D02*
Y45699D01*
X-52173Y42099D02*
X-45373D01*
X-52173D02*
Y45599D01*
X-62212Y38063D02*
Y41563D01*
Y38063D02*
X-55412D01*
Y41663D01*
X-62212D02*
X-55412D01*
X-52173Y41663D02*
X-45373D01*
Y38063D02*
Y41663D01*
X-52173Y38063D02*
X-45373D01*
X-52173D02*
Y41563D01*
X-13200Y70675D02*
X-9700D01*
Y77475D01*
X-13300D02*
X-9700D01*
X-13300Y70675D02*
Y77475D01*
X-18100Y28675D02*
Y35475D01*
X-14500D01*
Y28675D02*
Y35475D01*
X-18000Y28675D02*
X-14500D01*
X-21000Y79507D02*
X-17500D01*
Y86307D01*
X-21100D02*
X-17500D01*
X-21100Y79507D02*
Y86307D01*
X-75400Y33100D02*
X-68600D01*
Y29500D02*
Y33100D01*
X-75400Y29500D02*
X-68600D01*
X-75400D02*
Y33000D01*
X-16700Y86421D02*
X-13200D01*
X-16700Y79620D02*
Y86421D01*
Y79620D02*
X-13100D01*
Y86421D01*
X-41520Y18700D02*
X-34720D01*
X-41520D02*
Y22300D01*
X-34720D01*
Y18800D02*
Y22300D01*
X3839Y89786D02*
X7339D01*
X3839Y82986D02*
Y89786D01*
Y82986D02*
X7439D01*
Y89786D01*
X21949Y83108D02*
Y89908D01*
X25549D01*
Y83108D02*
Y89908D01*
X22049Y83108D02*
X25549D01*
X31104D02*
X34604D01*
Y89908D01*
X31004D02*
X34604D01*
X31004Y83108D02*
Y89908D01*
X29880Y83108D02*
Y89908D01*
X26280Y83108D02*
X29880D01*
X26280D02*
Y89908D01*
X29779D01*
X-41400Y14047D02*
Y17547D01*
Y14047D02*
X-34600D01*
Y17647D01*
X-41400D02*
X-34600D01*
X24653Y-15464D02*
X31453D01*
X24653D02*
Y-11864D01*
X31453D01*
Y-15364D02*
Y-11864D01*
X36070Y-15857D02*
Y-12358D01*
Y-15857D02*
X42870D01*
Y-12257D01*
X36070D02*
X42870D01*
X44442Y69224D02*
Y76024D01*
X40842Y69224D02*
X44442D01*
X40842D02*
Y76024D01*
X44342D01*
X35823D02*
X39323D01*
X35823Y69224D02*
Y76024D01*
Y69224D02*
X39423D01*
Y76024D01*
X29383Y69224D02*
Y76024D01*
X25783Y69224D02*
X29383D01*
X25783D02*
Y76024D01*
X29283D01*
X30803D02*
X34303D01*
X30803Y69224D02*
Y76024D01*
Y69224D02*
X34403D01*
Y76024D01*
X19442Y69224D02*
Y76024D01*
X15842Y69224D02*
X19442D01*
X15842D02*
Y76024D01*
X19342D01*
X16139Y30444D02*
X19639D01*
Y37244D01*
X16039D02*
X19639D01*
X16039Y30444D02*
Y37244D01*
X11020Y30444D02*
Y37244D01*
X14619D01*
Y30444D02*
Y37244D01*
X11119Y30444D02*
X14619D01*
X35823Y37244D02*
X39323D01*
X35823Y30444D02*
Y37244D01*
Y30444D02*
X39423D01*
Y37244D01*
X25980Y30444D02*
Y37244D01*
X29580D01*
Y30444D02*
Y37244D01*
X26080Y30444D02*
X29580D01*
X31100D02*
X34600D01*
Y37244D01*
X31000D02*
X34600D01*
X31000Y30444D02*
Y37244D01*
X-27816Y79708D02*
Y86508D01*
X-31416Y79708D02*
X-27816D01*
X-31416D02*
Y86508D01*
X-27916D01*
X66690Y25600D02*
X70190D01*
Y32400D01*
X66590D02*
X70190D01*
X66590Y25600D02*
Y32400D01*
X-87900Y18576D02*
X-81100D01*
X-87900D02*
Y22176D01*
X-81100D01*
Y18676D02*
Y22176D01*
X-87000Y-18924D02*
Y-15424D01*
Y-18924D02*
X-80200D01*
Y-15324D01*
X-87000D02*
X-80200D01*
X-87300Y2976D02*
X-80500D01*
Y-624D02*
Y2976D01*
X-87300Y-624D02*
X-80500D01*
X-87300D02*
Y2876D01*
D67*
X3939Y31650D02*
G03*
X3939Y31650I-492J0D01*
G01*
X-75632Y19100D02*
G03*
X-75632Y19100I-492J0D01*
G01*
X46560Y62880D02*
G03*
X46560Y62880I-492J0D01*
G01*
D68*
X32081Y23160D02*
G03*
X32081Y23160I-32J0D01*
G01*
X14758D02*
G03*
X14758Y23160I-32J0D01*
G01*
X-32486D02*
G03*
X-32486Y23160I-32J0D01*
G01*
X-15163D02*
G03*
X-15163Y23160I-32J0D01*
G01*
X39200Y9898D02*
Y4900D01*
X41699D01*
X42532Y5733D01*
Y6566D01*
X41699Y7399D01*
X39200D01*
X41699D01*
X42532Y8232D01*
Y9065D01*
X41699Y9898D01*
X39200D01*
X44198Y4900D02*
Y9898D01*
X46698D01*
X47531Y9065D01*
Y7399D01*
X46698Y6566D01*
X44198D01*
X49197Y7399D02*
X52529D01*
X54195Y4900D02*
X55861D01*
X55028D01*
Y9898D01*
X54195Y9065D01*
X58360D02*
X59193Y9898D01*
X60860D01*
X61693Y9065D01*
Y5733D01*
X60860Y4900D01*
X59193D01*
X58360Y5733D01*
Y9065D01*
X63359Y9898D02*
X66691D01*
Y9065D01*
X63359Y5733D01*
Y4900D01*
X68357Y9898D02*
Y4900D01*
X70023Y6566D01*
X71689Y4900D01*
Y9898D01*
X76688D02*
X73356D01*
Y7399D01*
X75022Y8232D01*
X75855D01*
X76688Y7399D01*
Y5733D01*
X75855Y4900D01*
X74189D01*
X73356Y5733D01*
X78354Y4900D02*
Y8232D01*
X80020Y9898D01*
X81686Y8232D01*
Y4900D01*
Y7399D01*
X78354D01*
X83352Y4900D02*
Y8232D01*
X85018Y9898D01*
X86685Y8232D01*
Y4900D01*
Y7399D01*
X83352D01*
X88351Y9065D02*
X89184Y9898D01*
X90850D01*
X91683Y9065D01*
Y5733D01*
X90850Y4900D01*
X89184D01*
X88351Y5733D01*
Y9065D01*
X44175Y-7000D02*
X40842D01*
X44175Y-3668D01*
Y-2835D01*
X43341Y-2002D01*
X41675D01*
X40842Y-2835D01*
X45841D02*
X46674Y-2002D01*
X48340D01*
X49173Y-2835D01*
Y-6167D01*
X48340Y-7000D01*
X46674D01*
X45841Y-6167D01*
Y-2835D01*
X50839Y-7000D02*
X52505D01*
X51672D01*
Y-2002D01*
X50839Y-2835D01*
X55004D02*
X55838Y-2002D01*
X57504D01*
X58337Y-2835D01*
Y-3668D01*
X57504Y-4501D01*
X58337Y-5334D01*
Y-6167D01*
X57504Y-7000D01*
X55838D01*
X55004Y-6167D01*
Y-5334D01*
X55838Y-4501D01*
X55004Y-3668D01*
Y-2835D01*
X55838Y-4501D02*
X57504D01*
X60003D02*
X63335D01*
X65001Y-2835D02*
X65834Y-2002D01*
X67500D01*
X68333Y-2835D01*
Y-6167D01*
X67500Y-7000D01*
X65834D01*
X65001Y-6167D01*
Y-2835D01*
X69999D02*
X70833Y-2002D01*
X72499D01*
X73332Y-2835D01*
Y-3668D01*
X72499Y-4501D01*
X71666D01*
X72499D01*
X73332Y-5334D01*
Y-6167D01*
X72499Y-7000D01*
X70833D01*
X69999Y-6167D01*
X74998Y-4501D02*
X78330D01*
X79996Y-2835D02*
X80829Y-2002D01*
X82495D01*
X83329Y-2835D01*
Y-6167D01*
X82495Y-7000D01*
X80829D01*
X79996Y-6167D01*
Y-2835D01*
X88327Y-7000D02*
X84995D01*
X88327Y-3668D01*
Y-2835D01*
X87494Y-2002D01*
X85828D01*
X84995Y-2835D01*
D69*
X41953Y53332D02*
G03*
X41953Y53332I-1181J0D01*
G01*
D70*
X-34535Y45109D02*
Y61644D01*
Y45109D02*
X-8944D01*
Y61644D01*
X-34535D02*
X-8944D01*
X-86259Y16519D02*
X-81141D01*
X-86259Y4708D02*
Y16519D01*
Y4708D02*
X-81141D01*
Y16519D01*
X-86259Y-1481D02*
X-81141D01*
X-86259Y-13292D02*
Y-1481D01*
Y-13292D02*
X-81141D01*
Y-1481D01*
X-86259Y-19758D02*
X-81141D01*
X-86259Y-31569D02*
Y-19758D01*
Y-31569D02*
X-81141D01*
Y-19758D01*
D71*
X69965Y57937D02*
X69965Y48094D01*
X51854D02*
Y57937D01*
Y48094D02*
X53035D01*
X68783D02*
X69965D01*
X56972D02*
X58154D01*
X63665Y48094D02*
X64846Y48094D01*
X65634Y57937D02*
X69965Y57937D01*
X51854Y57937D02*
X56185D01*
D72*
X35287Y24775D02*
X40554D01*
X35287Y16575D02*
X40562D01*
X17964Y24775D02*
X23232D01*
X17964Y16575D02*
X23239D01*
X-29280Y24775D02*
X-24013D01*
X-29280Y16575D02*
X-24005D01*
X-11958Y24775D02*
X-6690D01*
X-11958Y16575D02*
X-6682D01*
D73*
X-85287Y6956D02*
X-84771Y8184D01*
X-85287Y6956D02*
X-84141Y7507D01*
X-85287Y6956D02*
X-82598Y9645D01*
X-82574D01*
X-85306Y14361D02*
X-82645Y11700D01*
X-82578Y11094D02*
X-82574D01*
Y6960D02*
Y14271D01*
X-85287Y-11044D02*
X-84771Y-9816D01*
X-85287Y-11044D02*
X-84141Y-10493D01*
X-85287Y-11044D02*
X-82598Y-8355D01*
X-82574D01*
X-85306Y-3639D02*
X-82645Y-6300D01*
X-82578Y-6906D02*
X-82574D01*
Y-11040D02*
Y-3729D01*
X-85287Y-29320D02*
X-84771Y-28092D01*
X-85287Y-29320D02*
X-84141Y-28769D01*
X-85287Y-29320D02*
X-82598Y-26632D01*
X-82574D01*
X-85306Y-21915D02*
X-82645Y-24576D01*
X-82578Y-25183D02*
X-82574D01*
Y-29317D02*
Y-22005D01*
D74*
X-3334Y-68135D02*
X-1702D01*
X-360Y-68172D02*
X1271D01*
M02*
